<?xml version="1.0" encoding="utf-8"?>
<!-- Generator: Adobe Illustrator 16.0.0, SVG Export Plug-In . SVG Version: 6.00 Build 0)  -->
<!DOCTYPE svg PUBLIC "-//W3C//DTD SVG 1.1//EN" "http://www.w3.org/Graphics/SVG/1.1/DTD/svg11.dtd">
<svg version="1.1" id="Layer_1" xmlns="http://www.w3.org/2000/svg" xmlns:xlink="http://www.w3.org/1999/xlink" x="0px" y="0px"
	 width="720px" height="324px" viewBox="0 0 720 324" enable-background="new 0 0 720 324" xml:space="preserve">
<g>
	<path fill="#FFFFFF" d="M180.661,115.471c0.972,1.567,1.458,3.349,1.458,5.347c0,3.132-1.027,6.236-3.078,9.315
		c-7.183,7.613-15.013,11.421-23.49,11.421c-3.078,0-6.048-0.596-8.909-1.781c-1.514-0.975-2.512-2.62-2.998-4.941
		c0.324-2.052,0.62-3.377,0.891-3.97c0.539-1.403,1.43-2.43,2.673-3.079c1.835-0.54,3.078-0.025,3.726,1.539
		c-0.109,1.027-0.19,2.539-0.243,4.535c0.053,1.244,0.647,2.107,1.782,2.591c1.403,0.596,2.997,0.894,4.779,0.894
		c4.536,0,8.667-1.592,12.393-4.78c3.997-3.349,5.777-7.263,5.347-11.745c-0.379-3.24-2.647-6.831-6.805-10.775
		c-0.485-0.105-0.919-0.403-1.295-0.888l-0.243-0.165c-2.269-1.024-4.969-2.185-8.101-3.482c-0.702-0.053-1.688-0.309-2.955-0.769
		c-1.271-0.459-2.257-0.716-2.957-0.771c-3.24-0.863-6.696-1.294-10.369-1.294c-4.536,0-12.446,1.186-23.733,3.563
		c-3.187,1.08-6.346,2.16-9.477,3.24c-3.673,1.35-6.671,2.781-8.991,4.292c-5.131,2.483-9.693,5.913-13.689,10.286
		c-4.212,4.646-6.939,9.506-8.182,14.581c-0.27,1.838-0.404,3.619-0.404,5.348c0,6.154,1.701,11.071,5.102,14.742
		c5.184,5.667,11.827,9.773,19.926,12.31c5.885,1.837,13.824,3.131,23.813,3.889c3.403-0.053,8.533-0.189,15.391-0.404
		c8.153-0.487,15.767-2.16,22.842-5.024c0.432-0.105,1.079-0.105,1.943,0c0.649,0.326,0.973,0.918,0.973,1.785
		c0,0.916-0.324,1.592-0.973,2.023c-0.161,0.108-0.404,0.217-0.728,0.326c-11.719,4.587-24.167,6.884-37.342,6.884
		c-6.858,0-13.446-0.676-19.764-2.026c-15.553-3.292-26.596-9.206-33.129-17.737c-3.51-4.644-5.428-9.531-5.751-14.662
		c-0.107-1.297-0.188-2.591-0.243-3.886c-0.054-1.567,0.162-2.836,0.648-3.808c0.701-3.781,2.511-7.75,5.426-11.909
		c2.701-3.995,5.724-7.179,9.073-9.557c1.348-0.81,3.212-2.16,5.589-4.05c0.593-0.487,1.606-1.038,3.038-1.659
		c1.43-0.623,2.469-1.202,3.118-1.742c3.455-1.35,6.102-2.645,7.938-3.889c4.536-1.241,9.045-2.483,13.527-3.728
		c5.237-1.347,9.854-1.996,13.851-1.943c2.593-0.537,5.454-0.81,8.586-0.81c3.078,0,7.209,0.298,12.393,0.891
		C165.945,101.62,175.153,106.778,180.661,115.471z"/>
	<path fill="#FFFFFF" d="M196.171,175.654c-0.19,0.487-1.041,1.459-2.552,2.917c-1.673,0.699-3.699,0.649-6.075-0.161
		c-1.674-1.406-2.51-3.513-2.51-6.319c0-1.136,0.188-2.998,0.567-5.59c-0.109-0.702-0.567-1.105-1.377-1.213
		c-2.755,0.701-4.86,1.052-6.318,1.052c-0.864,0-1.243-0.162-1.133-0.484c-0.054-0.217-0.405-0.975-1.054-2.269
		c-0.432-0.919-0.648-1.702-0.648-2.353c0-0.484,0.082-0.944,0.244-1.375c0.648-1.834,1.106-3.023,1.377-3.563
		c0.647-1.672,1.241-2.7,1.782-3.079c0.323-0.213,0.891-0.27,1.701-0.161c0.756,0.485,1.161,1.834,1.215,4.05
		c0.054,1.89,0.62,2.834,1.701,2.834c0.377,0,0.864-0.081,1.458-0.242c1.135-0.702,2.241-1.055,3.322-1.055
		c0.647,0,1.24,0.164,1.782,0.487c0.81,0.487,1.214,1.322,1.214,2.511c0,0.378-0.041,0.933-0.121,1.662
		c-0.081,0.729-0.121,1.253-0.121,1.579c-0.271,2.107-0.406,3.429-0.406,3.97c0,1.996,0.594,3.455,1.783,4.373
		c0.323,0.326,0.836,0.487,1.539,0.487c0.215,0,0.539-0.027,0.972-0.081c0.431-0.056,0.729-0.081,0.891-0.081
		c0.701,0,1.053,0.295,1.053,0.891C196.455,174.763,196.36,175.167,196.171,175.654z"/>
	<path fill="#FFFFFF" d="M266.6,167.231c-2.484,0.487-4.59,0.729-6.318,0.729c-1.296,0-2.592-0.133-3.888-0.406
		c-2.377-0.916-3.564-2.861-3.564-5.832c0-0.538,0-1.336,0-2.389s0-1.848,0-2.391c0-0.646-0.028-1.239-0.082-1.781l-1.368-2.35
		c-1.985-0.916-4.24-1.375-6.761-1.375c-2.791,0-5.608,0.54-8.452,1.62c-3.114,1.189-5.501,3.104-7.166,5.751
		c-1.288,2.105-1.931,4.32-1.931,6.642c0,1.722,0.329,2.807,0.958,3.318c-2.919,1.127-5.804,1.704-8.651,1.704
		c-1.62,0-3.159-0.189-4.618-0.568c-3.024-0.701-4.914-1.809-5.67-3.321c3.564-3.724,5.346-6.912,5.346-9.559
		c0-1.996-0.783-3.669-2.349-5.019c-0.972-0.487-1.943-0.731-2.916-0.731c-0.92,0-1.958,0.192-3.119,0.568
		c-1.162,0.378-2.309,0.729-3.442,1.052c-0.756,1.027-1.539,2.055-2.349,3.079c-0.919,1.188-1.539,2.257-1.864,3.198
		c-0.323,0.947-0.485,1.879-0.485,2.795c0,2.485,1.349,4.726,4.05,6.722c2.269,1.676,4.994,2.89,8.181,3.646
		c1.835,0.432,3.833,0.649,5.994,0.649c3.564,0,8.396-0.702,14.499-2.107c0.425-0.166,0.852-0.356,1.277-0.532
		c1.058,0.234,2.165,0.37,3.339,0.37c2.97,0,6.372-0.726,10.207-2.188c3.078,1.999,6.966,2.998,11.664,2.998
		c3.131,0,6.291-0.415,9.477-1.25c0.594-0.156,0.891-0.727,0.891-1.718S267.194,167.123,266.6,167.231z M206.903,162.371
		c-0.595,0.487-0.972,0.702-1.134,0.648c-0.702-0.919-0.919-3.023-0.648-6.319c0.811-1.564,1.54-2.349,2.188-2.349
		c0.755,0,1.214,0.459,1.376,1.377C208.847,158.106,208.251,160.319,206.903,162.371z M244.972,159.169
		c-1.026,0.676-1.593,1.311-1.701,1.904c-0.433,1.188-0.864,2.35-1.295,3.482c-0.648,1.244-1.539,2.107-2.673,2.594
		c-0.324,0.053-0.647,0.081-0.972,0.081c-1.781,0-2.89-0.729-3.321-2.188c-0.161-0.537-0.243-1.052-0.243-1.54
		c0-0.807,0.647-2.645,1.943-5.506c1.512-1.621,3.051-2.7,4.618-3.241c2.861,0,4.589,0.729,5.183,2.186
		C246.511,157.755,245.998,158.496,244.972,159.169z"/>
	<path fill="#FFFFFF" d="M360.238,149.086c-4.428-0.648-11.015-1.35-19.764-2.107c-18.308-0.646-31.51-0.972-39.609-0.972
		c-8.535,0-16.444,0.242-23.733,0.729c-0.597,0.053-1.054,0.568-1.378,1.54c-0.705,4.86-1.053,8.182-1.053,9.963
		c0,4.969,1.377,8.64,4.13,11.015c1.728,1.512,3.942,2.269,6.644,2.269c1.566,0,2.995-0.27,4.292-0.81
		c2.485-0.971,4.618-2.375,6.401-4.211c0.214-0.217,0.377-0.323,0.485-0.323c0.323,0,0.485,0.376,0.485,1.133
		c0,1.35-0.378,2.43-1.134,3.24c-1.62,1.673-3.753,2.833-6.4,3.482c-2.323,0.323-4.644,0.674-6.966,1.052
		c-7.183-1.781-11.475-4.857-12.878-9.23c-0.217-0.866-0.729-2.136-1.54-3.808c-0.108-0.758-0.162-1.568-0.162-2.43
		c0-1.567,0.162-3.566,0.486-5.996c0.486-3.185,0.755-5.184,0.811-5.994l-0.648-0.648c-3.349-0.053-7.965-0.025-13.851,0.081
		c-6.156,0.109-10.773,0.165-13.852,0.165c-10.745,0-19.925-0.838-27.54-2.514c-1.079-0.971-1.62-1.778-1.62-2.427
		c0-0.431,0.162-0.81,0.487-1.136c1.133-1.242,2.377-1.862,3.725-1.862c0.919,0,2.485,0.515,4.699,1.539
		c1.999,0.972,3.618,1.351,4.859,1.133c5.886,0.918,13.15,1.406,21.789,1.459c7.29,0,14.581,0,21.871,0
		c0.755,0,1.483-0.729,2.186-2.188c0.539-1.996,1.62-4.966,3.241-8.911c1.565-3.777,2.619-6.748,3.159-8.908
		c0.432-0.757,1.053-1.135,1.863-1.135c1.134,0,2.078,0.568,2.836,1.701c-0.758,4.646-2.053,9.506-3.887,14.581
		c-0.812,0.918-1.164,2.216-1.057,3.889l0.408,0.323c11.068,0,22.14,0,33.211,0c12.903,0.053,23.867,0.507,32.886,1.359
		c5.236,0.481,8.02,0.749,8.342,0.802c3.129,0.481,5.723,1.414,7.776,2.797V149.086z"/>
	<path fill="#FFFFFF" d="M334.477,167.473c-1.025,0.487-2.026,0.971-2.994,1.458c-1.189,0.54-2.188,0.81-2.998,0.81
		c-4.051,0.487-7.587,0.729-10.611,0.729c-8.694,0-15.633-1.971-20.818-5.916c-0.539-0.968-1.08-1.943-1.619-2.915
		c-0.539-1.188-0.812-2.241-0.812-3.159c0-0.646,0.11-1.295,0.326-1.943c0.107-1.133,0.998-2.887,2.671-5.267
		c0.81,0.055,1.903-0.362,3.283-1.253c1.376-0.894,2.415-1.339,3.117-1.339c0.594,0,1.188,0.217,1.78,0.648
		c-1.834,2.864-2.752,5.05-2.752,6.562c0,2.43,0.972,4.727,2.916,6.884c1.944,2.163,4.129,3.458,6.562,3.889
		c2.214,0.757,4.586,1.133,7.127,1.133c4.265,0,8.991-1.024,14.175-3.076L334.477,167.473z"/>
	<path fill="#FFFFFF" d="M371.007,159.13l-1.214,2.834c-2-0.376-3.862-0.618-5.589-0.729c-1.404,0.865-2.621,2.163-3.644,3.889
		c-0.759,1.458-1.512,2.917-2.271,4.373c-1.89,2.325-4.913,3.485-9.07,3.485c-1.189,0-2.406-0.081-3.647-0.242
		c-1.189,0-2.67-1.731-4.452-5.186c-1.676-3.293-3.322-4.78-4.942-4.454c-5.076-0.487-7.616-1.592-7.616-3.321
		c0-0.863,0.677-1.673,2.026-2.43c1.348-0.755,2.756-1.134,4.215-1.134c2.213,0,4.102,1,5.668,2.996
		c1.026,1.297,2.05,3.376,3.079,6.238c0.916,0.757,1.782,1.133,2.591,1.133c1.134,0,2.592-1.403,4.373-4.211
		c1.948-3.132,3.754-5.021,5.429-5.67C359.181,156.809,364.204,157.619,371.007,159.13z"/>
	<path fill="#FFFFFF" d="M410.455,167.554c-0.11,0.971-0.647,1.676-1.622,2.107c-0.972,0.431-1.943,0.834-2.913,1.213
		c-6.104,1.406-10.937,2.107-14.5,2.107c-2.161,0-4.158-0.217-5.995-0.649c-3.186-0.757-5.914-1.97-8.181-3.646
		c-2.699-1.996-4.048-4.237-4.048-6.722c0-0.916,0.159-1.849,0.485-2.795c0.323-0.94,0.941-2.01,1.862-3.198
		c0.809-1.024,1.592-2.052,2.348-3.079c1.136-0.323,2.28-0.674,3.444-1.052c1.159-0.376,2.198-0.568,3.118-0.568
		c0.971,0,1.941,0.244,2.913,0.731c1.568,1.35,2.353,3.023,2.353,5.019c0,2.647-1.785,5.835-5.347,9.559
		c0.757,1.512,2.645,2.62,5.67,3.321c1.457,0.379,2.997,0.568,4.618,0.568c4.316,0,8.717-1.297,13.2-3.889
		C409.266,166.582,410.131,166.905,410.455,167.554z M383.966,155.729c-0.16-0.918-0.62-1.377-1.376-1.377
		c-0.646,0-1.377,0.785-2.186,2.349c-0.273,3.296-0.056,5.4,0.648,6.319c0.16,0.053,0.537-0.161,1.132-0.648
		C383.534,160.319,384.129,158.106,383.966,155.729z"/>
	<g>
		<path fill="#FFFFFF" d="M555.606,167.231c-2.485,0.487-4.59,0.729-6.318,0.729c-1.295,0-2.592-0.133-3.89-0.406
			c-2.374-0.916-3.562-2.861-3.562-5.832c0-0.538,0-1.336,0-2.389s0-1.848,0-2.391c0-0.646-0.025-1.239-0.083-1.781l-1.364-2.35
			c-1.988-0.916-4.243-1.375-6.762-1.375c-2.792,0-5.609,0.54-8.454,1.62c-3.115,1.189-5.5,3.104-7.165,5.751
			c-1.286,2.105-1.932,4.32-1.932,6.642c0,1.89,0.382,3.051,1.136,3.482c2.051,1.189,4.401,1.781,7.045,1.781
			c2.973,0,6.374-0.726,10.208-2.188c3.079,1.999,6.965,2.998,11.664,2.998c3.132,0,6.291-0.415,9.478-1.25
			c0.593-0.156,0.891-0.727,0.891-1.718S556.199,167.123,555.606,167.231z M533.981,159.169c-1.028,0.676-1.597,1.311-1.705,1.904
			c-0.431,1.188-0.862,2.35-1.293,3.482c-0.649,1.244-1.54,2.107-2.676,2.594c-0.322,0.053-0.649,0.081-0.972,0.081
			c-1.781,0-2.887-0.729-3.321-2.188c-0.161-0.537-0.242-1.052-0.242-1.54c0-0.807,0.648-2.645,1.945-5.506
			c1.512-1.621,3.049-2.7,4.616-3.241c2.861,0,4.59,0.729,5.183,2.186C535.517,157.755,535.002,158.496,533.981,159.169z"/>
		<path fill="#FFFFFF" d="M649.243,147.726c-2.054-1.383-4.648-2.316-7.777-2.797c-0.312-0.053-2.917-0.301-7.799-0.749
			c-0.969-0.938-2.068-1.412-3.3-1.412c-0.542,0-1.052,0.081-1.539,0.242l-0.599,0.716c-8.009-0.59-17.328-0.913-27.995-0.958
			c-11.067,0-22.138,0-33.206,0l-0.406-0.323c-0.108-1.673,0.242-2.97,1.052-3.889c1.834-5.075,3.132-9.935,3.89-14.581
			c-0.758-1.133-1.701-1.701-2.835-1.701c-0.81,0-1.433,0.378-1.864,1.135c-0.537,2.16-1.593,5.13-3.159,8.908
			c-1.618,3.944-2.701,6.915-3.238,8.911c-0.704,1.458-1.431,2.188-2.188,2.188c-7.288,0-14.581,0-21.871,0
			c-6.62-0.042-12.424-0.337-17.426-0.885c0.68-2.906,0.96-5.464,0.826-7.627c-0.982-4.49-2.023-7.912-3.085-10.11
			c-1.736-3.566-4.338-6.578-7.732-8.953l-0.066-0.055c-5.179-5.553-16.064-11.553-32.354-17.83
			c-0.081-0.019-0.557-0.097-2.436-0.264c-1.183-0.064-1.942-0.331-2.306-0.821c-7.245-1.949-15.854-3.641-25.598-5.03
			c-10.274-1.395-19.132-2.105-26.32-2.105c-1.3,0-3.224,0.048-5.709,0.146c-2.503,0.094-4.396,0.142-5.629,0.142
			c-1.531,0-2.972-0.095-4.282-0.284c-2.788,0.384-7.193,0.804-13.099,1.244c-5.934,0.446-10.455,0.93-13.437,1.437
			c-1.717,0.07-4.181,0.47-7.385,1.197c-3.221,0.734-5.88,1.107-7.903,1.116l-15.912,4.215c-6.257,1.709-11.249,3.574-14.835,5.533
			c-13.177,5.415-20.521,10.971-21.869,16.535c0.577,1.554,2.229,2.311,5.04,2.311l0.201-0.003c0.45-0.264,1.463-0.601,4.496-0.762
			c1.757-0.114,2.85-0.585,3.244-1.395l0.107-0.136c0.446-0.368,0.661-0.794,0.661-1.309v-1.431
			c-0.076-0.557-0.076-1.111,0.009-1.595l0.022-0.142l0.107-0.092c3.178-2.817,8.264-5.281,15.119-7.321
			c1.72-1.086,4.345-2.119,7.8-3.07c4.048-1.134,6.751-1.994,8.035-2.556c11.275-3.001,26.269-5.155,44.618-6.425
			c4.839-0.317,9.786-0.479,14.701-0.479c16.977,0,34.035,2.038,50.704,6.052c4.766,1.718,9.583,3.427,14.369,5.091
			c5.389,2.043,9.993,4.15,13.698,6.261c1.822,1.506,3.612,3.023,5.381,4.551c2.143,1.781,3.714,3.374,4.656,4.727
			c2.412,2.013,4.262,4.668,5.51,7.894c0.854,2.776,1.703,5.56,2.55,8.368l0.028,0.092l-0.015,0.095
			c-0.089,0.509-0.175,0.999-0.259,1.478c-0.283-0.12-0.574-0.248-0.877-0.396c-2.213-1.024-3.78-1.539-4.699-1.539
			c-1.347,0-2.591,0.621-3.725,1.862c-0.325,0.326-0.483,0.705-0.483,1.136c0,0.648,0.537,1.456,1.617,2.427
			c2.296,0.507,4.752,0.925,7.329,1.278c-0.197,1.097-0.373,2.057-0.526,2.867c-2.118,5.417-7.098,10.826-14.82,16.143
			c-0.437,0.481-1.291,1.077-2.616,1.82c-1.572,0.879-2.194,1.4-2.438,1.684l-0.062,0.072l-0.089,0.036
			c-0.175,0.073-1.155,0.529-5.763,2.772c-2.24,1.15-4.37,1.84-6.324,2.043c-7.928,3.182-14.839,4.991-20.549,5.375
			c-2.197-0.125-4.373-0.226-6.517-0.287c-2.637-0.343-4.384-1.078-5.386-2.255l-0.07-0.084l-0.02-0.103
			c-0.498-2.542,1.081-4.977,4.693-7.243c1.554-0.905,4.928-2.453,10.04-4.606c0.195-0.22,0.296-0.429,0.296-0.621
			c0-0.253-0.095-0.487-0.293-0.715c-1.831-0.704-4.103-0.818-6.746-0.329c-7.786,2.993-12.998,7.333-15.417,12.883
			c-0.22,1.23-0.331,2.257-0.331,3.053c0,2.464,1.23,4.287,3.769,5.567c2.937,0.496,5.329,0.685,7.132,0.562
			c0.576,0.027,1.119,0.039,1.676,0.039c1.955,0,4.143-0.173,6.508-0.515c6.2-0.938,7.506-1.113,7.817-1.149l2.132-1.022
			c7.792-2.118,12.744-3.75,14.79-4.88l0.139-0.047c0.276-0.036,0.839-0.239,1.971-0.991c0.983-0.654,1.898-0.997,2.724-1.024
			c9.659-5.047,15.744-8.908,18.084-11.474l0.079-0.064c2.805-1.824,5.423-4.153,7.777-6.923c1.049-1.306,2.938-3.897,5.618-7.694
			c0.252-0.704,0.488-1.397,0.709-2.074c3.824,0.273,7.889,0.417,12.226,0.417c3.076,0,7.694-0.056,13.849-0.165
			c5.888-0.105,10.506-0.133,13.852-0.081l0.652,0.648c-0.06,0.81-0.327,2.809-0.813,5.994c-0.323,2.43-0.486,4.429-0.486,5.996
			c0,0.862,0.055,1.672,0.163,2.43c0.81,1.672,1.323,2.942,1.537,3.808c1.406,4.373,5.697,7.449,12.88,9.23
			c2.321-0.378,4.644-0.729,6.967-1.052c2.642-0.648,4.777-1.809,6.399-3.482c0.752-0.81,1.132-1.89,1.132-3.24
			c0-0.757-0.159-1.133-0.485-1.133c-0.108,0-0.271,0.105-0.487,0.323c-1.781,1.837-3.917,3.24-6.399,4.211
			c-1.295,0.541-2.726,0.81-4.293,0.81c-2.699,0-4.913-0.757-6.638-2.269c-2.756-2.375-4.134-6.046-4.134-11.015
			c0-1.781,0.351-5.103,1.055-9.963c0.323-0.972,0.782-1.487,1.378-1.54c7.29-0.487,15.199-0.729,23.732-0.729
			c7.517,0,19.437,0.281,35.745,0.838l-2.618,3.131c-0.649,2.052-0.972,3.7-0.972,4.941c0,1.027,0.187,1.943,0.568,2.753
			c0.266,0.487,1.049,1.107,2.346,1.865c1.137,0.592,1.729,1.294,1.782,2.104c-0.488,0.918-1.567,2.35-3.24,4.292
			c-0.215,0.25-0.412,0.484-0.594,0.707c-0.283-0.039-0.596-0.059-0.946-0.059c-4.479,2.592-8.883,3.889-13.202,3.889
			c-1.618,0-3.157-0.189-4.616-0.568c-3.025-0.701-4.913-1.809-5.67-3.321c3.562-3.724,5.348-6.912,5.348-9.559
			c0-1.996-0.783-3.669-2.353-5.019c-0.972-0.487-1.94-0.731-2.915-0.731c-0.918,0-1.956,0.192-3.117,0.568
			c-1.164,0.378-2.308,0.729-3.443,1.052c-0.754,1.027-1.54,2.055-2.347,3.079c-0.919,1.188-1.539,2.257-1.862,3.198
			c-0.325,0.947-0.49,1.879-0.49,2.795c0,2.485,1.353,4.726,4.051,6.722c2.271,1.676,4.996,2.89,8.184,3.646
			c1.834,0.432,3.833,0.649,5.993,0.649c3.563,0,8.396-0.702,14.498-2.107c0.718-0.278,1.434-0.587,2.148-0.894
			c0.113,0.03,0.226,0.064,0.361,0.083c1.351,0,3.457-1.428,6.319-4.292l2.998-1.539l8.018,5.915
			c0.378,0.376,0.566,0.888,0.566,1.537c0,0.757-0.199,1.54-0.609,2.349c-0.403,0.81-0.769,1.284-1.091,1.417
			c-0.325,0.136-0.62,0.203-0.894,0.203c-0.701,0-1.834-0.403-3.402-1.213c-1.566-0.81-2.725-1.216-3.481-1.216
			c-0.271,0-0.513,0.027-0.729,0.081c-0.483,0.161-0.957,0.351-1.416,0.568c-0.46,0.214-0.744,0.621-0.853,1.213
			c-0.429,1.245-0.13,2.135,0.894,2.675c0.698,0.162,2.051,0.649,4.051,1.459c1.673,0.646,3.075,0.997,4.211,1.052
			c1.834,0.053,3.592-0.568,5.265-1.862c1.458-1.189,2.594-2.703,3.401-4.538c0.164-0.648,0.242-1.27,0.242-1.862
			c0-2.322-1.133-4.618-3.398-6.887c-2.056-1.834-4.106-3.697-6.158-5.586c-1.62-1.027-2.431-2.322-2.431-3.89
			c0-0.757,0.257-1.943,0.772-3.563c0.512-1.62,0.768-2.864,0.768-3.727c0-0.284-0.022-0.56-0.064-0.833
			c5.821,0.551,10.406,1.072,13.757,1.562V147.726z M596.268,162.371c-0.595,0.487-0.975,0.702-1.136,0.648
			c-0.701-0.919-0.918-3.023-0.646-6.319c0.807-1.564,1.539-2.349,2.185-2.349c0.756,0,1.217,0.459,1.376,1.377
			C598.211,158.106,597.615,160.319,596.268,162.371z"/>
		<path fill="#FFFFFF" d="M428.126,127.591c-0.841,0-1.621,0.237-2.321,0.702c-3.246,1.389-4.794,3.371-4.794,6.099v0.101
			l-0.046,0.086c-0.661,1.284-0.993,2.837-0.993,4.618c0,0.766,0.053,1.904,0.161,3.382c0.109,1.503,0.194,2.575,0.251,3.212
			l0.003,0.056l-0.01,0.053c-0.214,1.175-0.156,3.271,0.169,6.225l0.005,0.044l-0.005,0.044c-0.153,1.375-0.133,3.549,0.06,6.463
			c0.193,3.01,0.174,5.208-0.062,6.72l0.003,1.222c0.15,0.532,0.153,1.013,0.013,1.442l0.448,2.781
			c0.197,0.994,0.639,1.676,1.346,2.074c1.984,0.262,4.329-0.899,6.996-3.443c0.375-6.347,0.45-11.19,0.225-14.391l-0.01-0.109
			l0.047-0.094c0.275-0.574,0.358-1.557,0.25-2.917c-0.117-1.47,0.013-2.564,0.4-3.34c-0.072-1.832-0.031-5.23,0.12-10.107
			c0.073-4.134-0.039-7.51-0.335-10.035C429.657,127.884,429.027,127.591,428.126,127.591z"/>
	</g>
	<g>
		<path fill="#FFFFFF" d="M87.361,206.737c0.14,1.036,0.287,2.128,0.441,3.275c0.153,1.148,0.287,2.253,0.399,3.317
			c0.111,1.064,0.182,2.03,0.21,2.897c0.027,0.868,0,1.533-0.084,1.995s-0.252,0.657-0.504,0.588
			c-0.252-0.07-0.616-0.51-1.092-1.323c0-1.932-0.091-3.758-0.273-5.479c-0.182-1.722-0.413-3.45-0.693-5.186
			c-0.644,0-1.274-0.105-1.89-0.315s-1.175-0.447-1.679-0.714c-0.504-0.266-0.903-0.545-1.197-0.839s-0.441-0.539-0.441-0.735
			c0.195,0.056,0.504,0.126,0.924,0.21s0.861,0.161,1.323,0.231c0.461,0.07,0.923,0.126,1.385,0.168s0.833,0.063,1.113,0.063
			c-0.168-1.26-0.329-2.394-0.483-3.401s-0.308-1.987-0.462-2.939c-0.154-0.951-0.308-1.924-0.462-2.918s-0.301-2.106-0.441-3.338
			c-0.868-0.363-1.742-0.699-2.624-1.008c-0.882-0.308-1.729-0.657-2.541-1.05c-0.056-0.168-0.098-0.287-0.126-0.357
			c-0.027-0.069-0.035-0.132-0.021-0.189c0.015-0.056,0.057-0.119,0.126-0.189c0.07-0.069,0.189-0.174,0.357-0.315
			c0.224-0.056,0.749,0.036,1.575,0.273c0.825,0.238,1.806,0.574,2.939,1.008c1.134,0.435,2.352,0.952,3.653,1.554
			c1.302,0.603,2.562,1.218,3.779,1.848c1.217,0.63,2.309,1.26,3.275,1.89s1.672,1.211,2.121,1.742
			c0.42,0.336,0.707,0.729,0.861,1.176c0.153,0.448,0.195,0.91,0.126,1.386c-0.07,0.477-0.246,0.952-0.525,1.428
			c-0.28,0.476-0.63,0.924-1.05,1.344c-0.42,0.392-0.917,0.805-1.491,1.239s-1.197,0.84-1.869,1.218
			c-0.671,0.377-1.4,0.7-2.183,0.965C89.055,206.521,88.229,206.682,87.361,206.737z M86.815,204.806c1.315,0,2.484-0.14,3.506-0.42
			c1.021-0.28,1.882-0.672,2.582-1.176s1.21-1.092,1.533-1.764c0.322-0.672,0.427-1.371,0.315-2.1
			c-0.056-0.56-0.434-1.126-1.134-1.701c-0.7-0.573-1.547-1.133-2.54-1.679c-0.994-0.546-2.044-1.078-3.149-1.596
			c-1.106-0.518-2.093-1.015-2.96-1.491c0.056,0.588,0.133,1.225,0.231,1.911c0.098,0.686,0.217,1.484,0.357,2.393
			c0.14,0.91,0.315,1.981,0.525,3.212C86.291,201.629,86.535,203.099,86.815,204.806z"/>
		<path fill="#FFFFFF" d="M101.595,205.226c-0.028-0.252,0.105-0.315,0.399-0.189s0.594,0.259,0.903,0.398
			c0.111,0.645,0.195,1.155,0.252,1.533c0.056,0.378,0.098,0.735,0.126,1.071c0.027,0.336,0.056,0.7,0.084,1.092
			c0.027,0.393,0.069,0.91,0.126,1.554c0.252-0.644,0.56-1.239,0.924-1.785c0.363-0.546,0.833-1.014,1.406-1.407
			c0.574-0.392,1.26-0.678,2.058-0.861c0.798-0.182,1.756-0.245,2.876-0.189c0,0.225-0.078,0.414-0.231,0.567
			c-0.154,0.154-0.511,0.273-1.071,0.357c-0.812,0.141-1.519,0.414-2.121,0.819c-0.602,0.406-1.12,0.875-1.554,1.407
			c-0.434,0.532-0.784,1.099-1.049,1.701c-0.267,0.602-0.483,1.155-0.651,1.659c-0.028,0.252-0.063,0.609-0.105,1.071
			c-0.042,0.461-0.07,0.952-0.084,1.469c-0.015,0.519-0.028,1.022-0.042,1.512c-0.015,0.49,0.006,0.875,0.063,1.155
			c0.027,0.141-0.036,0.246-0.189,0.315c-0.154,0.069-0.33,0.119-0.525,0.147c-0.196,0.027-0.378,0.014-0.546-0.042
			c-0.168-0.057-0.252-0.153-0.252-0.294c0.056-2.883-0.021-5.368-0.231-7.453C101.952,208.747,101.763,206.878,101.595,205.226z"/>
		<path fill="#FFFFFF" d="M120.407,206.611c0.084-0.027,0.321-0.105,0.713-0.231s0.714-0.147,0.966-0.063
			c0.812-0.027,1.435,0.183,1.869,0.63c0.434,0.448,0.469,1.316,0.105,2.604c-0.532,1.428-1.239,2.618-2.121,3.569
			s-1.925,1.862-3.128,2.729c0.279,0.729,0.699,1.134,1.26,1.218c0.56,0.084,1.147-0.006,1.763-0.273
			c0.616-0.266,1.218-0.623,1.806-1.071c0.588-0.447,1.063-0.84,1.428-1.176c0.588-0.503,1.056-0.93,1.407-1.28
			c0.35-0.35,0.72-0.777,1.113-1.281c0.084-0.056,0.132-0.049,0.147,0.021c0.014,0.07,0.006,0.175-0.021,0.315
			c-0.028,0.14-0.07,0.336-0.126,0.588c-0.084,0.196-0.168,0.371-0.252,0.525s-0.204,0.322-0.357,0.504
			c-0.154,0.182-0.357,0.398-0.609,0.65s-0.561,0.588-0.924,1.008c-0.42,0.393-0.826,0.777-1.218,1.155
			c-0.392,0.378-0.805,0.708-1.239,0.987c-0.434,0.28-0.91,0.477-1.428,0.588c-0.518,0.112-1.112,0.112-1.784,0
			c-0.561-0.195-1.008-0.405-1.344-0.63c-0.336-0.224-0.595-0.455-0.777-0.693c-0.183-0.237-0.315-0.455-0.399-0.651
			c-0.084-0.195-0.141-0.363-0.168-0.504c-0.141-0.56-0.196-1.315-0.168-2.267c0.027-0.952,0.308-2.184,0.84-3.695
			c0.363-0.783,0.756-1.449,1.176-1.995S119.846,206.92,120.407,206.611z M118.559,214.044c0.363-0.196,0.791-0.469,1.281-0.819
			c0.489-0.35,0.951-0.756,1.385-1.218s0.812-0.973,1.134-1.533c0.322-0.56,0.497-1.147,0.525-1.764
			c0.084-0.42,0.07-0.714-0.042-0.882c-0.056-0.084-0.112-0.126-0.168-0.126c-0.476-0.224-0.952-0.153-1.428,0.21
			c-0.476,0.364-0.91,0.882-1.301,1.554c-0.393,0.672-0.721,1.421-0.987,2.247C118.691,212.539,118.559,213.316,118.559,214.044z"/>
		<path fill="#FFFFFF" d="M141.905,208.459c0.084,0,0.14,0.057,0.168,0.168c0.028,0.112,0.035,0.246,0.021,0.399
			c-0.014,0.154-0.042,0.301-0.084,0.441c-0.042,0.141-0.077,0.238-0.105,0.294c-0.308-0.027-0.798-0.035-1.47-0.021
			c-0.672,0.015-1.372,0.042-2.099,0.084c-0.729,0.042-1.386,0.099-1.974,0.168c-0.588,0.07-0.938,0.162-1.05,0.273
			c-0.141-0.531-0.12-0.951,0.063-1.26c0.182-0.308,0.497-0.447,0.945-0.42c0.504,0,0.945-0.006,1.323-0.021
			c0.378-0.014,0.762-0.021,1.155-0.021c0.392,0,0.825-0.006,1.301-0.021C140.576,208.508,141.177,208.487,141.905,208.459z"/>
		<path fill="#FFFFFF" d="M161.053,206.737c0.14,1.036,0.287,2.128,0.441,3.275c0.153,1.148,0.287,2.253,0.399,3.317
			c0.111,1.064,0.182,2.03,0.21,2.897c0.027,0.868,0,1.533-0.084,1.995s-0.252,0.657-0.504,0.588
			c-0.252-0.07-0.616-0.51-1.092-1.323c0-1.932-0.091-3.758-0.273-5.479c-0.182-1.722-0.413-3.45-0.693-5.186
			c-0.644,0-1.274-0.105-1.89-0.315s-1.175-0.447-1.679-0.714c-0.504-0.266-0.903-0.545-1.197-0.839s-0.441-0.539-0.441-0.735
			c0.195,0.056,0.504,0.126,0.924,0.21s0.861,0.161,1.323,0.231c0.461,0.07,0.923,0.126,1.385,0.168s0.833,0.063,1.113,0.063
			c-0.168-1.26-0.329-2.394-0.483-3.401s-0.308-1.987-0.462-2.939c-0.154-0.951-0.308-1.924-0.462-2.918s-0.301-2.106-0.441-3.338
			c-0.868-0.363-1.742-0.699-2.624-1.008c-0.882-0.308-1.729-0.657-2.541-1.05c-0.056-0.168-0.098-0.287-0.126-0.357
			c-0.027-0.069-0.035-0.132-0.021-0.189c0.015-0.056,0.057-0.119,0.126-0.189c0.07-0.069,0.189-0.174,0.357-0.315
			c0.224-0.056,0.749,0.036,1.575,0.273c0.825,0.238,1.806,0.574,2.939,1.008c1.134,0.435,2.352,0.952,3.653,1.554
			c1.302,0.603,2.562,1.218,3.779,1.848c1.217,0.63,2.309,1.26,3.275,1.89s1.672,1.211,2.121,1.742
			c0.42,0.336,0.707,0.729,0.861,1.176c0.153,0.448,0.195,0.91,0.126,1.386c-0.07,0.477-0.246,0.952-0.525,1.428
			c-0.28,0.476-0.63,0.924-1.05,1.344c-0.42,0.392-0.917,0.805-1.491,1.239s-1.197,0.84-1.869,1.218
			c-0.671,0.377-1.4,0.7-2.183,0.965C162.746,206.521,161.92,206.682,161.053,206.737z M160.507,204.806
			c1.315,0,2.484-0.14,3.506-0.42c1.021-0.28,1.882-0.672,2.582-1.176s1.21-1.092,1.533-1.764c0.322-0.672,0.427-1.371,0.315-2.1
			c-0.056-0.56-0.434-1.126-1.134-1.701c-0.7-0.573-1.547-1.133-2.54-1.679c-0.994-0.546-2.044-1.078-3.149-1.596
			c-1.106-0.518-2.093-1.015-2.96-1.491c0.056,0.588,0.133,1.225,0.231,1.911c0.098,0.686,0.217,1.484,0.357,2.393
			c0.14,0.91,0.315,1.981,0.525,3.212C159.982,201.629,160.227,203.099,160.507,204.806z"/>
		<path fill="#FFFFFF" d="M181.081,209.803c0,0.084,0.042,0.477,0.126,1.176c0.084,0.7,0.182,1.554,0.294,2.562
			c0.111,1.007,0.245,2.093,0.399,3.254c0.153,1.162,0.294,2.268,0.42,3.317s0.245,1.974,0.357,2.771
			c0.111,0.798,0.182,1.309,0.21,1.533c-0.168-0.028-0.309-0.056-0.42-0.084c-0.112-0.028-0.225-0.098-0.336-0.21
			c-0.112-0.112-0.246-0.273-0.399-0.483c-0.154-0.21-0.372-0.511-0.651-0.902c-0.364-2.576-0.651-4.822-0.861-6.74
			c-0.21-1.917-0.385-3.478-0.525-4.682c-0.504,0.672-0.867,1.12-1.092,1.344c-0.224,0.224-0.363,0.336-0.42,0.336
			c-0.084,0-0.098-0.126-0.042-0.378c0.028-0.14,0.057-0.28,0.084-0.42c0.028-0.14,0.057-0.266,0.084-0.378
			c0.028-0.112,0.07-0.21,0.126-0.294c0.196-0.28,0.372-0.56,0.525-0.84c0.153-0.28,0.273-0.531,0.357-0.756
			c0.111-0.279,0.195-0.546,0.252-0.798c-0.028-0.308-0.049-0.573-0.063-0.798c-0.015-0.224-0.021-0.455-0.021-0.693
			c0-0.237-0.007-0.483-0.021-0.735c-0.015-0.252-0.021-0.573-0.021-0.966c0-0.363,0-0.917,0-1.658s0-1.567,0-2.478
			c0-0.909,0.014-1.869,0.042-2.876c0.027-1.008,0.063-1.966,0.105-2.876s0.098-1.735,0.168-2.478
			c0.069-0.741,0.147-1.308,0.231-1.701c0.195-0.812,0.497-1.434,0.903-1.869c0.405-0.434,0.833-0.686,1.281-0.756
			c0.447-0.069,0.888,0.042,1.322,0.336s0.763,0.75,0.987,1.365c0.252,0.616,0.378,1.414,0.378,2.394
			c0,0.98-0.084,2.051-0.252,3.212s-0.399,2.372-0.693,3.632s-0.608,2.485-0.944,3.674c-0.336,1.19-0.672,2.303-1.008,3.338
			C181.627,208.235,181.333,209.104,181.081,209.803z M180.745,207.409c0.699-2.043,1.273-4.052,1.722-6.025
			c0.447-1.974,0.777-3.744,0.986-5.312c0.21-1.567,0.28-2.834,0.21-3.8s-0.273-1.462-0.608-1.491
			c-0.532-0.195-0.952-0.014-1.26,0.546c-0.309,0.561-0.553,1.344-0.735,2.352c-0.183,1.008-0.301,2.163-0.357,3.464
			c-0.057,1.302-0.078,2.597-0.063,3.884c0.014,1.288,0.035,2.505,0.063,3.653C180.73,205.828,180.745,206.737,180.745,207.409z"/>
		<path fill="#FFFFFF" d="M201.067,206.149c-0.028,0.168-0.091,0.519-0.189,1.05c-0.099,0.532-0.204,1.155-0.315,1.869
			c-0.112,0.714-0.21,1.463-0.294,2.247c-0.084,0.784-0.133,1.526-0.147,2.226c-0.014,0.7,0.028,1.295,0.126,1.784
			c0.098,0.49,0.258,0.792,0.483,0.903c0.644,0.309,1.302,0.204,1.974-0.315c0.672-0.518,1.455-1.308,2.352-2.372
			c0.084,0,0.09,0.112,0.021,0.336c-0.07,0.224-0.183,0.469-0.336,0.734c-0.154,0.267-0.309,0.532-0.462,0.798
			c-0.154,0.267-0.273,0.441-0.357,0.525c-0.225,0.28-0.546,0.595-0.966,0.945c-0.42,0.351-0.868,0.63-1.344,0.84
			c-0.477,0.21-0.931,0.301-1.365,0.273c-0.434-0.027-0.791-0.279-1.071-0.756c-0.14-0.336-0.224-0.749-0.252-1.239
			c-0.028-0.489-0.028-0.987,0-1.491c0.028-0.503,0.07-0.965,0.126-1.385c0.056-0.42,0.098-0.728,0.126-0.924
			c-0.588,1.092-1.26,2.127-2.016,3.107c-0.755,0.98-1.498,1.75-2.225,2.31c-0.729,0.561-1.4,0.861-2.016,0.903
			c-0.616,0.042-1.092-0.315-1.428-1.071c-0.195-0.728-0.195-1.546,0-2.457c0.196-0.909,0.49-1.728,0.882-2.456
			c0.588-1.008,1.203-1.932,1.848-2.771c0.644-0.84,1.329-1.554,2.058-2.142c0.728-0.588,1.49-1.014,2.288-1.281
			C199.367,206.073,200.199,206.01,201.067,206.149z M193.173,216.815c0.279,0.057,0.728-0.153,1.344-0.63
			c0.615-0.476,1.26-1.14,1.932-1.995c0.671-0.854,1.28-1.847,1.826-2.981s0.903-2.331,1.071-3.59c-0.112,0-0.273,0-0.483,0
			s-0.455,0.084-0.735,0.252c-1.064,0.7-1.973,1.519-2.729,2.457c-0.756,0.938-1.344,1.848-1.764,2.729s-0.672,1.673-0.756,2.372
			C192.795,216.129,192.893,216.591,193.173,216.815z"/>
		<path fill="#FFFFFF" d="M213.664,205.688c0,0.784-0.007,1.568-0.021,2.352c-0.015,0.784-0.028,1.54-0.042,2.268
			c-0.015,0.728-0.028,1.414-0.042,2.058c-0.015,0.644-0.036,1.218-0.063,1.722c0-0.112,0.063-0.385,0.189-0.819
			s0.3-0.931,0.525-1.491c0.224-0.56,0.468-1.155,0.735-1.785c0.266-0.63,0.552-1.189,0.861-1.68
			c0.308-0.489,0.623-0.875,0.944-1.155c0.322-0.279,0.623-0.363,0.903-0.252c0.616,0.28,1.05,0.687,1.302,1.218
			c0.252,0.532,0.434,1.141,0.546,1.827c0.112,0.686,0.224,1.449,0.336,2.289c0.111,0.84,0.363,1.722,0.756,2.645
			c0.168,0.42,0.413,0.729,0.735,0.924c0.321,0.196,0.63,0.336,0.924,0.42s0.531,0.133,0.714,0.147
			c0.182,0.015,0.245,0.063,0.189,0.147c-0.7,0.532-1.302,0.714-1.806,0.546s-0.931-0.539-1.281-1.113
			c-0.35-0.573-0.637-1.26-0.861-2.057c-0.224-0.798-0.427-1.568-0.609-2.31c-0.182-0.742-0.343-1.371-0.483-1.89
			c-0.14-0.518-0.294-0.777-0.462-0.777c-0.252,0.028-0.525,0.267-0.819,0.714c-0.294,0.448-0.595,1.008-0.902,1.68
			c-0.309,0.672-0.603,1.407-0.882,2.205c-0.28,0.797-0.54,1.547-0.777,2.246c-0.238,0.7-0.427,1.302-0.567,1.806
			c-0.141,0.504-0.225,0.812-0.252,0.924c-0.42,0-0.679,0.014-0.777,0.042c-0.099,0.027-0.259-0.111-0.483-0.42
			c0.14-2.463,0.189-4.793,0.147-6.991c-0.042-2.197-0.105-4.108-0.189-5.731c0-0.252,0.063-0.378,0.189-0.378
			s0.266,0.056,0.42,0.168c0.153,0.112,0.315,0.224,0.483,0.335C213.412,205.632,213.551,205.688,213.664,205.688z"/>
		<path fill="#FFFFFF" d="M232.097,205.688c0,0.784-0.007,1.568-0.021,2.352c-0.015,0.784-0.028,1.54-0.042,2.268
			c-0.015,0.728-0.028,1.414-0.042,2.058c-0.015,0.644-0.036,1.218-0.063,1.722c0-0.112,0.063-0.385,0.189-0.819
			s0.3-0.931,0.525-1.491c0.224-0.56,0.468-1.155,0.735-1.785c0.266-0.63,0.552-1.189,0.861-1.68
			c0.308-0.489,0.623-0.875,0.944-1.155c0.322-0.279,0.623-0.363,0.903-0.252c0.616,0.28,1.05,0.687,1.302,1.218
			c0.252,0.532,0.434,1.141,0.546,1.827c0.112,0.686,0.224,1.449,0.336,2.289c0.111,0.84,0.363,1.722,0.756,2.645
			c0.168,0.42,0.413,0.729,0.735,0.924c0.321,0.196,0.63,0.336,0.924,0.42s0.531,0.133,0.714,0.147
			c0.182,0.015,0.245,0.063,0.189,0.147c-0.7,0.532-1.302,0.714-1.806,0.546s-0.931-0.539-1.281-1.113
			c-0.35-0.573-0.637-1.26-0.861-2.057c-0.224-0.798-0.427-1.568-0.609-2.31c-0.182-0.742-0.343-1.371-0.483-1.89
			c-0.14-0.518-0.294-0.777-0.462-0.777c-0.252,0.028-0.525,0.267-0.819,0.714c-0.294,0.448-0.595,1.008-0.902,1.68
			c-0.309,0.672-0.603,1.407-0.882,2.205c-0.28,0.797-0.54,1.547-0.777,2.246c-0.238,0.7-0.427,1.302-0.567,1.806
			c-0.141,0.504-0.225,0.812-0.252,0.924c-0.42,0-0.679,0.014-0.777,0.042c-0.099,0.027-0.259-0.111-0.483-0.42
			c0.14-2.463,0.189-4.793,0.147-6.991c-0.042-2.197-0.105-4.108-0.189-5.731c0-0.252,0.063-0.378,0.189-0.378
			s0.266,0.056,0.42,0.168c0.153,0.112,0.315,0.224,0.483,0.335C231.845,205.632,231.984,205.688,232.097,205.688z"/>
		<path fill="#FFFFFF" d="M252.336,206.611c0.084-0.027,0.321-0.105,0.713-0.231s0.714-0.147,0.966-0.063
			c0.812-0.027,1.435,0.183,1.869,0.63c0.434,0.448,0.469,1.316,0.105,2.604c-0.532,1.428-1.239,2.618-2.121,3.569
			s-1.925,1.862-3.128,2.729c0.279,0.729,0.699,1.134,1.26,1.218c0.56,0.084,1.147-0.006,1.763-0.273
			c0.616-0.266,1.218-0.623,1.806-1.071c0.588-0.447,1.063-0.84,1.428-1.176c0.588-0.503,1.056-0.93,1.407-1.28
			c0.35-0.35,0.72-0.777,1.113-1.281c0.084-0.056,0.132-0.049,0.147,0.021c0.014,0.07,0.006,0.175-0.021,0.315
			c-0.028,0.14-0.07,0.336-0.126,0.588c-0.084,0.196-0.168,0.371-0.252,0.525s-0.204,0.322-0.357,0.504
			c-0.154,0.182-0.357,0.398-0.609,0.65s-0.561,0.588-0.924,1.008c-0.42,0.393-0.826,0.777-1.218,1.155
			c-0.392,0.378-0.805,0.708-1.239,0.987c-0.434,0.28-0.91,0.477-1.428,0.588c-0.518,0.112-1.112,0.112-1.784,0
			c-0.561-0.195-1.008-0.405-1.344-0.63c-0.336-0.224-0.595-0.455-0.777-0.693c-0.183-0.237-0.315-0.455-0.399-0.651
			c-0.084-0.195-0.141-0.363-0.168-0.504c-0.141-0.56-0.196-1.315-0.168-2.267c0.027-0.952,0.308-2.184,0.84-3.695
			c0.363-0.783,0.756-1.449,1.176-1.995S251.775,206.92,252.336,206.611z M250.488,214.044c0.363-0.196,0.791-0.469,1.281-0.819
			c0.489-0.35,0.951-0.756,1.385-1.218s0.812-0.973,1.134-1.533c0.322-0.56,0.497-1.147,0.525-1.764
			c0.084-0.42,0.07-0.714-0.042-0.882c-0.056-0.084-0.112-0.126-0.168-0.126c-0.476-0.224-0.952-0.153-1.428,0.21
			c-0.476,0.364-0.91,0.882-1.301,1.554c-0.393,0.672-0.721,1.421-0.987,2.247C250.621,212.539,250.488,213.316,250.488,214.044z"/>
		<path fill="#FFFFFF" d="M280.259,196.408c-0.084,0.503-0.182,1.036-0.294,1.595c-0.112,0.561-0.231,1.092-0.357,1.596
			s-0.231,0.938-0.315,1.302c-0.084,0.364-0.14,0.588-0.168,0.672c-0.168,0.476-0.392,1.092-0.671,1.848
			c-0.28,0.756-0.609,1.547-0.987,2.372c-0.378,0.826-0.805,1.652-1.281,2.478c-0.477,0.826-0.966,1.533-1.47,2.121
			c0,0.42,0.048,1.127,0.147,2.121c0.098,0.994,0.216,2.064,0.357,3.212c0.14,1.148,0.273,2.275,0.399,3.38s0.203,1.966,0.231,2.583
			c-0.141,0.14-0.267,0.111-0.378-0.084c-0.112-0.196-0.28-0.532-0.504-1.008c-0.168-0.729-0.301-1.4-0.399-2.016
			c-0.099-0.615-0.189-1.239-0.273-1.869s-0.175-1.294-0.273-1.995c-0.099-0.699-0.246-1.497-0.441-2.393
			c-0.532,0.672-1.169,1.435-1.911,2.288c-0.742,0.854-1.512,1.61-2.309,2.268c-0.798,0.658-1.582,1.12-2.352,1.386
			c-0.771,0.266-1.435,0.147-1.995-0.357c-0.336-0.447-0.483-0.972-0.441-1.575c0.042-0.602,0.21-1.218,0.504-1.848
			c0.294-0.629,0.672-1.252,1.134-1.868s0.93-1.189,1.407-1.722c0.476-0.532,0.924-0.993,1.344-1.386
			c0.42-0.392,0.728-0.672,0.923-0.84c0.392-0.252,0.721-0.455,0.987-0.609c0.266-0.153,0.504-0.279,0.714-0.378
			c0.21-0.098,0.427-0.168,0.651-0.21c0.224-0.042,0.504-0.048,0.84-0.021c-0.056-0.644-0.091-1.413-0.105-2.309
			c-0.014-0.896-0.014-1.798,0-2.708c0.014-0.909,0.042-1.756,0.084-2.541c0.042-0.783,0.105-1.386,0.189-1.806
			c0.056-0.615,0.189-1.26,0.399-1.931c0.21-0.672,0.476-1.323,0.798-1.953c0.321-0.63,0.678-1.189,1.071-1.68
			c0.392-0.489,0.819-0.84,1.281-1.05s0.938-0.258,1.428-0.147c0.489,0.112,0.972,0.462,1.448,1.05
			c0.392,0.476,0.588,1.071,0.588,1.785S280.259,195.625,280.259,196.408z M268.628,211.524c-0.756,0.784-1.309,1.505-1.659,2.163
			c-0.351,0.658-0.637,1.267-0.861,1.826c0,0.084,0,0.217,0,0.399c0,0.183,0.021,0.357,0.063,0.525s0.126,0.315,0.252,0.441
			s0.329,0.162,0.609,0.105c0.279-0.111,0.51-0.224,0.693-0.336c0.182-0.111,0.35-0.231,0.504-0.357
			c0.153-0.126,0.321-0.258,0.504-0.399c0.182-0.14,0.413-0.321,0.693-0.546c0.392-0.42,0.875-0.896,1.448-1.427
			s1.078-1.092,1.512-1.68c0.434-0.588,0.721-1.189,0.861-1.806c0.14-0.615-0.042-1.218-0.546-1.806
			c-0.196,0-0.399,0.028-0.609,0.084c-0.21,0.057-0.469,0.189-0.777,0.399s-0.679,0.504-1.113,0.882
			S269.243,210.881,268.628,211.524z M274.716,207.619c0.504-0.56,0.924-1.155,1.26-1.785c0.336-0.629,0.714-1.378,1.134-2.246
			c0.363-0.756,0.693-1.722,0.987-2.897s0.497-2.331,0.608-3.464c0.112-1.133,0.112-2.12,0-2.96s-0.392-1.288-0.839-1.344
			c-0.393-0.056-0.756,0.091-1.092,0.441c-0.336,0.35-0.645,0.784-0.924,1.302c-0.28,0.518-0.519,1.071-0.714,1.659
			c-0.196,0.587-0.336,1.106-0.42,1.553c-0.112,0.561-0.189,1.064-0.231,1.512c-0.042,0.448-0.07,0.917-0.084,1.407
			c-0.015,0.49-0.036,1.022-0.063,1.596c-0.028,0.574-0.084,1.281-0.168,2.121c0,0.42,0.021,0.84,0.063,1.259
			c0.042,0.42,0.098,0.777,0.168,1.071c0.069,0.294,0.132,0.519,0.189,0.672C274.646,207.668,274.688,207.703,274.716,207.619z"/>
		<path fill="#FFFFFF" d="M287.817,216.437c0.308-0.056,0.546-0.048,0.714,0.021c0.168,0.07,0.363,0.133,0.588,0.189
			c-0.112,0.532-0.364,1.162-0.756,1.89c-0.393,0.728-0.833,1.413-1.323,2.058c-0.49,0.644-0.966,1.189-1.428,1.638
			c-0.462,0.447-0.833,0.671-1.113,0.671c-0.14-0.112-0.09-0.343,0.147-0.692c0.238-0.351,0.546-0.798,0.924-1.344
			s0.783-1.19,1.218-1.932C287.222,218.194,287.565,217.361,287.817,216.437z"/>
		<path fill="#FFFFFF" d="M299.322,190.655c0.168,0.028,0.3,0.162,0.399,0.399c0.098,0.238,0.168,0.532,0.21,0.882
			c0.042,0.351,0.077,0.721,0.105,1.113c0.027,0.392,0.056,0.77,0.084,1.134c0.056,0.448,0.14,1.302,0.252,2.561
			c0.111,1.26,0.245,2.708,0.399,4.346c0.153,1.638,0.329,3.338,0.525,5.102c0.195,1.764,0.392,3.367,0.587,4.808
			c0.196,1.442,0.392,2.618,0.588,3.527c0.196,0.91,0.378,1.309,0.546,1.197c0.588,0.196,1.162-0.035,1.722-0.693
			c0.56-0.657,1.077-1.56,1.554-2.708c0.476-1.147,0.909-2.47,1.302-3.968c0.392-1.497,0.707-3.002,0.945-4.514
			c0.237-1.512,0.405-2.946,0.504-4.304c0.098-1.357,0.09-2.484-0.021-3.38c-0.028-0.196,0.048-0.336,0.231-0.42
			c0.182-0.084,0.384-0.126,0.609-0.126c0.224,0,0.447,0.042,0.671,0.126s0.364,0.21,0.42,0.378c0,0.952-0.028,2.072-0.084,3.359
			c-0.056,1.288-0.098,2.646-0.126,4.073s-0.042,2.855-0.042,4.283s0.049,2.737,0.147,3.926c0.098,1.19,0.266,2.219,0.504,3.086
			c0.238,0.868,0.581,1.442,1.029,1.722c0.756,0.225,1.441,0.21,2.058-0.042c0.615-0.252,1.155-0.602,1.617-1.05
			c0.462-0.447,0.846-0.917,1.155-1.406c0.308-0.49,0.531-0.847,0.672-1.071c0.111-0.224,0.195-0.238,0.252-0.042
			c0.056,0.196,0.014,0.504-0.126,0.924c-0.364,0.644-0.805,1.316-1.323,2.015c-0.519,0.7-1.078,1.281-1.68,1.743
			c-0.603,0.462-1.232,0.742-1.89,0.84c-0.658,0.098-1.323-0.132-1.995-0.693c-0.308-0.195-0.588-0.63-0.839-1.302
			c-0.252-0.672-0.462-1.441-0.63-2.31c-0.168-0.867-0.288-1.777-0.357-2.729c-0.07-0.952-0.078-1.806-0.021-2.562
			c-0.84,2.408-1.568,4.227-2.184,5.458c-0.616,1.232-1.148,2.1-1.596,2.604c-0.448,0.504-0.819,0.771-1.113,0.798
			c-0.294,0.028-0.539,0.042-0.735,0.042c-0.308,0.028-0.588,0.042-0.84,0.042s-0.49-0.069-0.714-0.21
			c-0.224-0.14-0.427-0.371-0.608-0.693c-0.183-0.321-0.357-0.791-0.525-1.407c-0.477-3.918-0.903-7.921-1.281-12.009
			c-0.378-4.087-0.847-8.16-1.407-12.219c0-0.14,0.042-0.279,0.126-0.42C298.482,190.726,298.79,190.655,299.322,190.655z"/>
		<path fill="#FFFFFF" d="M326.742,205.688c0,0.784-0.007,1.568-0.021,2.352c-0.015,0.784-0.028,1.54-0.042,2.268
			c-0.015,0.728-0.028,1.414-0.042,2.058c-0.015,0.644-0.036,1.218-0.063,1.722c0-0.112,0.063-0.385,0.189-0.819
			s0.3-0.931,0.525-1.491c0.224-0.56,0.468-1.155,0.735-1.785c0.266-0.63,0.552-1.189,0.861-1.68
			c0.308-0.489,0.623-0.875,0.944-1.155c0.322-0.279,0.623-0.363,0.903-0.252c0.616,0.28,1.05,0.687,1.302,1.218
			c0.252,0.532,0.434,1.141,0.546,1.827c0.112,0.686,0.224,1.449,0.336,2.289c0.111,0.84,0.363,1.722,0.756,2.645
			c0.168,0.42,0.413,0.729,0.735,0.924c0.321,0.196,0.63,0.336,0.924,0.42s0.531,0.133,0.714,0.147
			c0.182,0.015,0.245,0.063,0.189,0.147c-0.7,0.532-1.302,0.714-1.806,0.546s-0.931-0.539-1.281-1.113
			c-0.35-0.573-0.637-1.26-0.861-2.057c-0.224-0.798-0.427-1.568-0.609-2.31c-0.182-0.742-0.343-1.371-0.483-1.89
			c-0.14-0.518-0.294-0.777-0.462-0.777c-0.252,0.028-0.525,0.267-0.819,0.714c-0.294,0.448-0.595,1.008-0.902,1.68
			c-0.309,0.672-0.603,1.407-0.882,2.205c-0.28,0.797-0.54,1.547-0.777,2.246c-0.238,0.7-0.427,1.302-0.567,1.806
			c-0.141,0.504-0.225,0.812-0.252,0.924c-0.42,0-0.679,0.014-0.777,0.042c-0.099,0.027-0.259-0.111-0.483-0.42
			c0.14-2.463,0.189-4.793,0.147-6.991c-0.042-2.197-0.105-4.108-0.189-5.731c0-0.252,0.063-0.378,0.189-0.378
			s0.266,0.056,0.42,0.168c0.153,0.112,0.315,0.224,0.483,0.335C326.49,205.632,326.629,205.688,326.742,205.688z"/>
		<path fill="#FFFFFF" d="M344.881,200.019c0.279-0.056,0.447,0.112,0.504,0.504c0.056,0.393,0,0.687-0.168,0.882
			c-0.309,0.252-0.504,0.469-0.588,0.651c-0.084,0.182-0.28,0.301-0.588,0.357c-0.168-0.028-0.315-0.035-0.441-0.021
			c-0.126,0.014-0.231-0.217-0.315-0.693c0.111-0.308,0.287-0.615,0.525-0.924C344.048,200.467,344.405,200.215,344.881,200.019z
			 M345.007,205.478c0.14,1.344,0.237,2.821,0.294,4.43c0.056,1.61,0.153,3.296,0.294,5.06c0.111,0.896,0.224,1.596,0.336,2.1
			c0.111,0.504,0.195,0.98,0.252,1.428c-0.448,0.084-0.798,0.077-1.05-0.021s-0.49-0.216-0.714-0.357
			c-0.057-0.447-0.12-1.189-0.189-2.226c-0.07-1.035-0.141-2.162-0.21-3.38c-0.07-1.218-0.141-2.4-0.21-3.548
			c-0.07-1.147-0.133-2.058-0.189-2.729c0.111-0.056,0.203-0.14,0.273-0.252c0.069-0.111,0.147-0.21,0.231-0.294
			s0.195-0.153,0.336-0.21C344.601,205.422,344.783,205.422,345.007,205.478z"/>
		<path fill="#FFFFFF" d="M365.875,206.359c-0.055,0.477-0.119,1.162-0.188,2.058c-0.07,0.896-0.135,1.883-0.189,2.96
			c-0.057,1.078-0.105,2.19-0.146,3.338c-0.043,1.148-0.064,2.198-0.064,3.149c0,0.672-0.014,1.483-0.041,2.436
			c-0.027,0.951-0.049,1.959-0.062,3.023c-0.016,1.064-0.008,2.142,0.02,3.233c0.029,1.092,0.1,2.127,0.211,3.107
			c0.111,0.979,0.279,1.861,0.504,2.645c0.223,0.784,0.518,1.386,0.881,1.806c-0.168,0.112-0.377,0.161-0.629,0.147
			c-0.252-0.014-0.498-0.063-0.734-0.147c-0.238-0.084-0.449-0.182-0.631-0.294c-0.182-0.112-0.272-0.21-0.272-0.294
			c-0.196,0-0.336-0.518-0.42-1.554s-0.133-2.435-0.146-4.199c-0.015-1.764-0.015-3.786,0-6.067c0.014-2.282,0.021-4.667,0.021-7.16
			c-0.588,0.672-1.238,1.295-1.952,1.869c-0.714,0.574-1.428,1.008-2.142,1.302s-1.406,0.393-2.078,0.294
			c-0.672-0.098-1.232-0.483-1.68-1.155c-0.196-0.42-0.238-1-0.126-1.743c0.111-0.741,0.35-1.546,0.714-2.414
			c0.363-0.868,0.854-1.735,1.47-2.604c0.615-0.867,1.315-1.623,2.099-2.268c0.784-0.644,1.651-1.113,2.603-1.407
			C363.846,206.128,364.84,206.107,365.875,206.359z M357.562,216.017c0.336,0.561,0.903,0.729,1.7,0.504
			c0.798-0.224,1.589-0.741,2.372-1.554c0.784-0.812,1.463-1.854,2.037-3.128c0.572-1.273,0.818-2.68,0.734-4.22
			c-0.729-0.056-1.428,0.084-2.1,0.42s-1.288,0.777-1.847,1.323c-0.56,0.546-1.057,1.162-1.49,1.848
			c-0.435,0.686-0.784,1.351-1.05,1.995c-0.267,0.644-0.435,1.225-0.504,1.742C357.345,215.465,357.395,215.822,357.562,216.017z"/>
		<path fill="#FFFFFF" d="M377.465,216.647c0.195,0.141,0.518-0.098,0.966-0.714c0.447-0.615,0.882-1.407,1.302-2.372
			c0.42-0.966,0.77-1.995,1.05-3.086c0.279-1.092,0.363-2.043,0.252-2.855c0-0.168,0.069-0.273,0.21-0.315
			c0.14-0.042,0.3-0.063,0.482-0.063c0.182,0,0.363,0.015,0.546,0.042c0.182,0.028,0.315,0.057,0.399,0.084
			c-0.057,0.616-0.134,1.393-0.231,2.331c-0.099,0.938-0.161,1.869-0.188,2.792c-0.028,0.924,0.006,1.763,0.104,2.519
			c0.098,0.756,0.329,1.246,0.693,1.47c0.308,0.196,0.664,0.183,1.07-0.042c0.405-0.224,0.798-0.504,1.176-0.84
			s0.721-0.636,1.028-0.903c0.308-0.266,0.504-0.357,0.588-0.273c-0.112,0.477-0.35,0.938-0.714,1.386
			c-0.364,0.448-0.776,0.826-1.238,1.134c-0.462,0.309-0.952,0.525-1.47,0.651c-0.519,0.126-0.986,0.105-1.406-0.063
			c-0.168-0.027-0.302-0.189-0.399-0.483c-0.099-0.294-0.183-0.636-0.252-1.029c-0.07-0.392-0.126-0.812-0.168-1.26
			c-0.042-0.447-0.091-0.854-0.146-1.217c-0.225,0.448-0.477,0.952-0.756,1.511c-0.28,0.561-0.561,1.092-0.84,1.596
			c-0.28,0.504-0.546,0.938-0.798,1.302c-0.252,0.364-0.462,0.573-0.63,0.63c-0.561,0.224-0.994,0.273-1.302,0.147
			c-0.309-0.126-0.519-0.3-0.63-0.525c-0.168-0.084-0.287-0.371-0.357-0.861c-0.069-0.489-0.126-1.113-0.168-1.869
			s-0.062-1.609-0.062-2.561s0-1.924,0-2.918c0-0.993-0.015-1.974-0.042-2.939c-0.028-0.966-0.07-1.854-0.126-2.666
			c0.195,0,0.392,0.014,0.588,0.042c0.168,0.028,0.336,0.063,0.504,0.105s0.308,0.133,0.42,0.273c0.14,0.644,0.16,1.778,0.062,3.401
			c-0.098,1.624-0.175,3.583-0.23,5.879c0,0.083,0.007,0.245,0.021,0.482c0.014,0.238,0.042,0.498,0.084,0.777
			c0.042,0.28,0.112,0.546,0.21,0.798S377.297,216.563,377.465,216.647z"/>
		<path fill="#FFFFFF" d="M397.326,206.611c0.084-0.027,0.321-0.105,0.714-0.231c0.392-0.126,0.714-0.147,0.966-0.063
			c0.812-0.027,1.434,0.183,1.868,0.63c0.434,0.448,0.469,1.316,0.105,2.604c-0.532,1.428-1.239,2.618-2.121,3.569
			s-1.925,1.862-3.128,2.729c0.279,0.729,0.699,1.134,1.26,1.218c0.56,0.084,1.147-0.006,1.764-0.273
			c0.615-0.266,1.218-0.623,1.806-1.071c0.588-0.447,1.063-0.84,1.428-1.176c0.587-0.503,1.056-0.93,1.406-1.28
			c0.35-0.35,0.721-0.777,1.112-1.281c0.084-0.056,0.133-0.049,0.147,0.021c0.014,0.07,0.007,0.175-0.021,0.315
			c-0.028,0.14-0.07,0.336-0.126,0.588c-0.084,0.196-0.168,0.371-0.252,0.525s-0.203,0.322-0.356,0.504
			c-0.154,0.182-0.357,0.398-0.609,0.65s-0.56,0.588-0.924,1.008c-0.419,0.393-0.825,0.777-1.217,1.155
			c-0.393,0.378-0.806,0.708-1.239,0.987c-0.435,0.28-0.91,0.477-1.428,0.588c-0.519,0.112-1.112,0.112-1.784,0
			c-0.561-0.195-1.008-0.405-1.344-0.63c-0.336-0.224-0.595-0.455-0.777-0.693c-0.182-0.237-0.314-0.455-0.398-0.651
			c-0.084-0.195-0.141-0.363-0.168-0.504c-0.141-0.56-0.196-1.315-0.168-2.267c0.027-0.952,0.308-2.184,0.84-3.695
			c0.363-0.783,0.756-1.449,1.176-1.995S396.766,206.92,397.326,206.611z M395.479,214.044c0.363-0.196,0.79-0.469,1.28-0.819
			s0.951-0.756,1.386-1.218c0.434-0.462,0.812-0.973,1.134-1.533c0.321-0.56,0.497-1.147,0.525-1.764
			c0.084-0.42,0.069-0.714-0.042-0.882c-0.057-0.084-0.112-0.126-0.168-0.126c-0.477-0.224-0.952-0.153-1.428,0.21
			c-0.477,0.364-0.91,0.882-1.302,1.554c-0.393,0.672-0.722,1.421-0.987,2.247S395.479,213.316,395.479,214.044z"/>
		<path fill="#FFFFFF" d="M413.324,216.437c0.308-0.056,0.546-0.048,0.714,0.021c0.168,0.07,0.363,0.133,0.588,0.189
			c-0.112,0.532-0.364,1.162-0.756,1.89c-0.393,0.728-0.833,1.413-1.323,2.058c-0.489,0.644-0.966,1.189-1.427,1.638
			c-0.462,0.447-0.833,0.671-1.113,0.671c-0.14-0.112-0.091-0.343,0.147-0.692c0.237-0.351,0.546-0.798,0.924-1.344
			c0.377-0.546,0.783-1.19,1.217-1.932C412.729,218.194,413.072,217.361,413.324,216.437z"/>
		<path fill="#FFFFFF" d="M441.078,192.839c0.252,0.56,0.413,0.924,0.483,1.092c0.069,0.168,0.133,0.448,0.188,0.84
			c-0.336-0.28-0.63-0.518-0.882-0.714c-0.252-0.196-0.504-0.371-0.756-0.525c-0.252-0.154-0.531-0.287-0.84-0.399
			c-0.308-0.112-0.671-0.21-1.091-0.294c-1.12-0.14-2.178-0.098-3.171,0.126c-0.994,0.224-1.834,0.581-2.52,1.071
			c-0.686,0.49-1.169,1.092-1.448,1.806c-0.28,0.714-0.28,1.49,0,2.33c0.308,0.924,0.783,1.813,1.428,2.667
			c0.644,0.854,1.378,1.687,2.204,2.499c0.825,0.812,1.707,1.575,2.646,2.288c0.938,0.714,1.833,1.386,2.688,2.016
			c0.854,0.63,1.645,1.197,2.372,1.701s1.287,0.938,1.68,1.302c0.867-0.447,1.68-0.825,2.436-1.134
			c0.756-0.308,1.539-0.615,2.352-0.924h0.252c0.111,0.028,0.126,0.112,0.042,0.252c-0.252,0.225-0.553,0.462-0.903,0.714
			c-0.35,0.252-0.707,0.511-1.07,0.777c-0.364,0.266-0.721,0.525-1.07,0.777c-0.351,0.252-0.666,0.476-0.945,0.672
			c0.812,0.812,1.344,1.547,1.596,2.205s0.266,1.301,0.042,1.931c-0.225,0.63-0.687,1.274-1.386,1.932
			c-0.7,0.657-1.61,1.365-2.729,2.121c-0.728,0.504-1.512,0.938-2.352,1.302c-0.84,0.363-1.616,0.581-2.33,0.651
			c-0.714,0.069-1.288-0.063-1.722-0.399c-0.435-0.336-0.581-0.966-0.44-1.89c0.447-1.512,1.273-2.911,2.478-4.199
			c1.203-1.287,2.589-2.589,4.156-3.905c0-0.084-0.272-0.322-0.818-0.714c-0.546-0.392-1.246-0.896-2.1-1.512
			c-0.854-0.615-1.792-1.329-2.813-2.142c-1.022-0.812-2.002-1.665-2.939-2.561s-1.771-1.833-2.498-2.813
			c-0.729-0.979-1.218-1.945-1.47-2.897c-0.336-1.203-0.413-2.253-0.23-3.149c0.182-0.896,0.476-1.645,0.881-2.247
			c0.406-0.602,0.854-1.071,1.344-1.407c0.49-0.336,0.889-0.56,1.197-0.672c0.644-0.195,1.294-0.363,1.952-0.504
			c0.657-0.14,1.323-0.182,1.995-0.126c0.672,0.057,1.35,0.246,2.036,0.567C439.686,191.67,440.379,192.167,441.078,192.839z
			 M437.636,219.418c-0.057,0.195,0.014,0.357,0.21,0.483c0.195,0.126,0.518,0.174,0.965,0.147c0.448-0.028,1.015-0.162,1.701-0.399
			c0.686-0.238,1.504-0.637,2.456-1.197c0.699-0.476,1.239-0.993,1.617-1.554c0.378-0.56,0.602-1.113,0.672-1.659
			c0.069-0.546-0.021-1.05-0.273-1.511c-0.252-0.462-0.672-0.833-1.26-1.113c-0.28,0.14-0.749,0.469-1.406,0.987
			c-0.658,0.518-1.33,1.112-2.016,1.784c-0.687,0.672-1.295,1.372-1.826,2.1C437.943,218.215,437.663,218.858,437.636,219.418z"/>
		<path fill="#FFFFFF" d="M456.699,205.897c0.531,0.028,1.119,0.105,1.764,0.231c0.644,0.126,1.273,0.294,1.89,0.504
			c0.615,0.21,1.182,0.448,1.7,0.714c0.518,0.267,0.945,0.567,1.281,0.903c0.336,0.309,0.531,0.777,0.588,1.407
			c0.056,0.63,0.014,1.323-0.126,2.079c-0.141,0.756-0.357,1.533-0.651,2.331c-0.294,0.797-0.623,1.519-0.986,2.162
			c-0.364,0.645-0.756,1.176-1.176,1.596s-0.812,0.63-1.176,0.63c-0.616,0-1.134-0.147-1.554-0.441s-0.756-0.651-1.008-1.071
			s-0.441-0.861-0.567-1.323s-0.202-0.861-0.23-1.197c-0.084-1.483-0.098-2.799-0.042-3.947c0.057-1.147,0.153-2.1,0.294-2.855
			c-0.084-0.14-0.168-0.266-0.252-0.378c-0.084-0.111-0.168-0.216-0.252-0.315c-0.084-0.098-0.182-0.189-0.294-0.273
			c0.112-0.056,0.225-0.14,0.336-0.252C456.462,206.233,456.615,206.065,456.699,205.897z M458.211,215.891
			c0.084,0.112,0.195,0.231,0.336,0.357c0.14,0.126,0.314,0.225,0.524,0.294c0.21,0.07,0.427,0.078,0.651,0.021
			c0.224-0.056,0.462-0.21,0.714-0.462c0.672-0.699,1.176-1.42,1.512-2.162s0.552-1.442,0.65-2.1
			c0.098-0.658,0.084-1.239-0.042-1.743s-0.329-0.867-0.608-1.092c-0.225-0.14-0.414-0.258-0.567-0.357
			c-0.154-0.098-0.351-0.189-0.588-0.273c-0.238-0.084-0.539-0.174-0.902-0.273c-0.364-0.098-0.84-0.231-1.428-0.399
			c-0.28,0.896-0.477,1.792-0.588,2.688c-0.112,0.896-0.161,1.715-0.147,2.457c0.015,0.742,0.07,1.385,0.168,1.931
			C457.994,215.324,458.099,215.696,458.211,215.891z"/>
		<path fill="#FFFFFF" d="M479.164,206.191c0.027,0.168-0.105,0.336-0.399,0.504s-0.665,0.414-1.112,0.735
			c-0.448,0.322-0.938,0.75-1.47,1.281c-0.532,0.532-1.008,1.232-1.428,2.1c-0.448,0.952-0.771,1.778-0.966,2.478
			c-0.196,0.7-0.154,1.526,0.126,2.477c0.084,0.196,0.202,0.372,0.356,0.525c0.154,0.154,0.385,0.246,0.693,0.273
			c0.615-0.111,1.161-0.266,1.638-0.462c0.476-0.195,0.924-0.434,1.344-0.714c0.42-0.279,0.825-0.581,1.218-0.903
			c0.392-0.321,0.798-0.65,1.218-0.986c0.615-0.588,1.126-1.099,1.532-1.533c0.405-0.434,0.734-0.798,0.986-1.092
			s0.469-0.511,0.651-0.651c0.182-0.14,0.37-0.182,0.566-0.126c-0.112,0.252-0.427,0.784-0.944,1.596
			c-0.519,0.812-1.19,1.673-2.016,2.582c-0.826,0.91-1.784,1.764-2.876,2.562s-2.268,1.295-3.527,1.491
			c-0.504-0.027-0.917-0.084-1.239-0.168c-0.321-0.084-0.623-0.42-0.902-1.008c-0.336-0.699-0.462-1.546-0.378-2.541
			c0.084-0.993,0.294-1.98,0.63-2.96c0.336-0.979,0.756-1.89,1.26-2.729s0.993-1.455,1.47-1.848c0.672-0.476,1.294-0.77,1.868-0.882
			C478.036,206.08,478.604,206.08,479.164,206.191z"/>
		<path fill="#FFFFFF" d="M491.887,200.019c0.279-0.056,0.447,0.112,0.504,0.504c0.056,0.393,0,0.687-0.168,0.882
			c-0.309,0.252-0.504,0.469-0.588,0.651c-0.084,0.182-0.28,0.301-0.588,0.357c-0.168-0.028-0.315-0.035-0.441-0.021
			c-0.126,0.014-0.23-0.217-0.314-0.693c0.111-0.308,0.287-0.615,0.524-0.924C491.054,200.467,491.41,200.215,491.887,200.019z
			 M492.013,205.478c0.14,1.344,0.237,2.821,0.294,4.43c0.056,1.61,0.153,3.296,0.294,5.06c0.111,0.896,0.224,1.596,0.336,2.1
			c0.111,0.504,0.195,0.98,0.252,1.428c-0.448,0.084-0.798,0.077-1.05-0.021s-0.49-0.216-0.714-0.357
			c-0.057-0.447-0.119-1.189-0.189-2.226c-0.069-1.035-0.14-2.162-0.21-3.38c-0.069-1.218-0.14-2.4-0.21-3.548
			c-0.069-1.147-0.133-2.058-0.188-2.729c0.111-0.056,0.203-0.14,0.272-0.252c0.07-0.111,0.147-0.21,0.231-0.294
			s0.195-0.153,0.336-0.21C491.606,205.422,491.788,205.422,492.013,205.478z"/>
		<path fill="#FFFFFF" d="M511.957,206.149c-0.027,0.168-0.091,0.519-0.188,1.05c-0.099,0.532-0.203,1.155-0.314,1.869
			c-0.112,0.714-0.21,1.463-0.294,2.247c-0.084,0.784-0.134,1.526-0.147,2.226c-0.015,0.7,0.027,1.295,0.126,1.784
			c0.098,0.49,0.259,0.792,0.483,0.903c0.644,0.309,1.301,0.204,1.973-0.315c0.672-0.518,1.456-1.308,2.352-2.372
			c0.084,0,0.091,0.112,0.021,0.336c-0.07,0.224-0.183,0.469-0.336,0.734c-0.154,0.267-0.309,0.532-0.462,0.798
			c-0.154,0.267-0.273,0.441-0.357,0.525c-0.224,0.28-0.546,0.595-0.966,0.945c-0.42,0.351-0.867,0.63-1.344,0.84
			c-0.476,0.21-0.931,0.301-1.364,0.273c-0.435-0.027-0.791-0.279-1.07-0.756c-0.141-0.336-0.225-0.749-0.252-1.239
			c-0.028-0.489-0.028-0.987,0-1.491c0.027-0.503,0.069-0.965,0.126-1.385c0.056-0.42,0.098-0.728,0.126-0.924
			c-0.588,1.092-1.26,2.127-2.016,3.107c-0.756,0.98-1.498,1.75-2.226,2.31c-0.729,0.561-1.4,0.861-2.016,0.903
			c-0.616,0.042-1.092-0.315-1.428-1.071c-0.195-0.728-0.195-1.546,0-2.457c0.196-0.909,0.49-1.728,0.882-2.456
			c0.588-1.008,1.203-1.932,1.848-2.771c0.644-0.84,1.329-1.554,2.058-2.142c0.728-0.588,1.49-1.014,2.288-1.281
			C510.257,206.073,511.09,206.01,511.957,206.149z M504.063,216.815c0.279,0.057,0.728-0.153,1.344-0.63
			c0.615-0.476,1.26-1.14,1.932-1.995c0.672-0.854,1.28-1.847,1.826-2.981s0.903-2.331,1.071-3.59c-0.112,0-0.273,0-0.483,0
			s-0.455,0.084-0.734,0.252c-1.064,0.7-1.974,1.519-2.729,2.457c-0.756,0.938-1.344,1.848-1.764,2.729s-0.672,1.673-0.756,2.372
			C503.686,216.129,503.783,216.591,504.063,216.815z"/>
		<path fill="#FFFFFF" d="M524.722,209.803c0,0.084,0.042,0.477,0.126,1.176c0.084,0.7,0.182,1.554,0.294,2.562
			c0.111,1.007,0.244,2.093,0.398,3.254c0.154,1.162,0.294,2.268,0.42,3.317s0.245,1.974,0.357,2.771
			c0.111,0.798,0.182,1.309,0.21,1.533c-0.168-0.028-0.309-0.056-0.42-0.084c-0.112-0.028-0.225-0.098-0.336-0.21
			c-0.112-0.112-0.245-0.273-0.399-0.483s-0.371-0.511-0.65-0.902c-0.364-2.576-0.651-4.822-0.861-6.74
			c-0.21-1.917-0.385-3.478-0.524-4.682c-0.504,0.672-0.867,1.12-1.092,1.344c-0.224,0.224-0.363,0.336-0.42,0.336
			c-0.084,0-0.098-0.126-0.042-0.378c0.028-0.14,0.057-0.28,0.084-0.42c0.028-0.14,0.057-0.266,0.084-0.378
			c0.028-0.112,0.07-0.21,0.126-0.294c0.196-0.28,0.371-0.56,0.524-0.84c0.154-0.28,0.273-0.531,0.357-0.756
			c0.111-0.279,0.195-0.546,0.252-0.798c-0.028-0.308-0.049-0.573-0.063-0.798c-0.014-0.224-0.021-0.455-0.021-0.693
			c0-0.237-0.007-0.483-0.021-0.735c-0.014-0.252-0.021-0.573-0.021-0.966c0-0.363,0-0.917,0-1.658s0-1.567,0-2.478
			c0-0.909,0.014-1.869,0.042-2.876c0.027-1.008,0.062-1.966,0.104-2.876s0.099-1.735,0.168-2.478
			c0.07-0.741,0.147-1.308,0.231-1.701c0.195-0.812,0.497-1.434,0.902-1.869c0.406-0.434,0.833-0.686,1.281-0.756
			c0.447-0.069,0.888,0.042,1.322,0.336c0.434,0.294,0.763,0.75,0.987,1.365c0.252,0.616,0.378,1.414,0.378,2.394
			c0,0.98-0.084,2.051-0.252,3.212s-0.399,2.372-0.693,3.632s-0.608,2.485-0.944,3.674c-0.336,1.19-0.672,2.303-1.008,3.338
			C525.268,208.235,524.974,209.104,524.722,209.803z M524.386,207.409c0.699-2.043,1.273-4.052,1.722-6.025
			c0.447-1.974,0.776-3.744,0.986-5.312c0.21-1.567,0.279-2.834,0.21-3.8c-0.07-0.966-0.272-1.462-0.608-1.491
			c-0.532-0.195-0.952-0.014-1.26,0.546c-0.309,0.561-0.554,1.344-0.735,2.352s-0.301,2.163-0.356,3.464
			c-0.057,1.302-0.077,2.597-0.063,3.884c0.015,1.288,0.035,2.505,0.063,3.653C524.371,205.828,524.386,206.737,524.386,207.409z"/>
		<path fill="#FFFFFF" d="M560.16,189.773c-0.672,0.393-1.645,0.826-2.918,1.302c-1.274,0.477-2.646,0.952-4.115,1.428
			c-1.47,0.476-2.946,0.959-4.43,1.449c-1.484,0.49-2.771,0.959-3.863,1.407c0.056,0.644,0.098,1.197,0.126,1.658
			c0.027,0.462,0.062,0.966,0.104,1.512s0.111,1.218,0.21,2.016c0.098,0.798,0.245,1.869,0.441,3.212
			c1.092-0.476,1.974-0.847,2.646-1.113c0.672-0.266,1.371-0.511,2.099-0.735c0.729-0.224,1.589-0.476,2.583-0.756
			c0.993-0.279,2.344-0.672,4.052-1.176c0.14,0.028,0.308,0.12,0.504,0.273c0.195,0.154,0.357,0.33,0.483,0.525
			c0.126,0.196,0.188,0.393,0.188,0.588c0,0.196-0.099,0.35-0.294,0.462c-1.176,0.14-2.33,0.357-3.464,0.651
			s-2.205,0.63-3.213,1.008s-1.945,0.763-2.812,1.155c-0.868,0.392-1.638,0.742-2.31,1.049c0.056,1.316,0.202,2.59,0.44,3.821
			c0.237,1.232,0.56,2.345,0.966,3.338c0.405,0.994,0.882,1.812,1.428,2.456c0.546,0.645,1.154,1.022,1.826,1.134
			c0.309,0.057,0.742,0.105,1.302,0.147s1.218-0.048,1.974-0.273c0.756-0.224,1.609-0.636,2.562-1.239
			c0.951-0.602,2.001-1.532,3.149-2.792c0.756-0.672,1.302-1.05,1.638-1.134s0.378,0.042,0.126,0.378
			c-0.756,0.812-1.449,1.575-2.079,2.289c-0.63,0.713-1.28,1.358-1.952,1.931c-0.672,0.574-1.4,1.071-2.184,1.491
			c-0.784,0.42-1.694,0.714-2.729,0.882c-1.428,0.309-2.617,0.231-3.568-0.231c-0.952-0.462-1.729-1.218-2.331-2.268
			c-0.603-1.05-1.085-2.358-1.448-3.926c-0.364-1.567-0.687-3.303-0.966-5.207c-0.477,0.057-0.868,0.147-1.176,0.273
			c-0.309,0.126-0.714,0.357-1.218,0.693c-0.225-0.027-0.309-0.147-0.252-0.357c0.056-0.21,0.203-0.462,0.44-0.756
			c0.238-0.294,0.532-0.602,0.882-0.924c0.35-0.321,0.693-0.594,1.029-0.818c-0.168-1.147-0.329-2.344-0.483-3.59
			c-0.154-1.245-0.301-2.436-0.44-3.569c-0.141-1.133-0.245-2.155-0.315-3.065c-0.069-0.91-0.104-1.602-0.104-2.079
			c0.168-0.084,0.294-0.147,0.378-0.189s0.175-0.077,0.272-0.105c0.098-0.027,0.217-0.048,0.357-0.063
			c0.14-0.014,0.363-0.035,0.672-0.063c0.056,0.141,0.091,0.336,0.104,0.588s0.021,0.476,0.021,0.672
			c1.428-0.363,2.715-0.714,3.863-1.05c1.147-0.336,2.267-0.665,3.358-0.987c1.092-0.321,2.197-0.644,3.317-0.966
			c1.119-0.321,2.352-0.651,3.695-0.987c0.224-0.056,0.44-0.063,0.65-0.021s0.385,0.112,0.525,0.21
			c0.14,0.099,0.237,0.189,0.294,0.273C560.258,189.689,560.244,189.746,560.16,189.773z"/>
		<path fill="#FFFFFF" d="M576.62,204.722c-0.028-0.084,0.014-0.105,0.126-0.063c0.111,0.042,0.237,0.105,0.377,0.189
			c0.141,0.084,0.273,0.182,0.399,0.294s0.188,0.21,0.188,0.293c-0.308,2.184-0.917,4.34-1.826,6.467
			c-0.91,2.127-2.036,4.157-3.38,6.088c-0.364,0.364-0.707,0.546-1.029,0.546s-0.553-0.153-0.692-0.462
			c-0.196-0.588-0.371-1.336-0.525-2.247c-0.154-0.909-0.308-1.875-0.462-2.897c-0.153-1.021-0.329-2.058-0.524-3.107
			c-0.196-1.05-0.42-2.022-0.672-2.918c-0.141-0.476-0.119-0.762,0.062-0.861c0.183-0.098,0.581-0.035,1.197,0.189
			c0.084,0,0.182,0.357,0.294,1.071c0.111,0.714,0.244,1.582,0.398,2.604c0.154,1.022,0.336,2.093,0.546,3.212
			s0.469,2.099,0.777,2.939c0.084,0.057,0.252-0.111,0.504-0.504c0.252-0.392,0.546-0.903,0.882-1.532
			c0.336-0.63,0.692-1.358,1.07-2.184s0.728-1.665,1.05-2.52c0.321-0.854,0.595-1.686,0.819-2.499
			C576.424,206.01,576.563,205.31,576.62,204.722z"/>
		<path fill="#FFFFFF" d="M589.217,206.611c0.084-0.027,0.321-0.105,0.714-0.231c0.392-0.126,0.714-0.147,0.966-0.063
			c0.812-0.027,1.434,0.183,1.868,0.63c0.434,0.448,0.469,1.316,0.105,2.604c-0.532,1.428-1.239,2.618-2.121,3.569
			s-1.925,1.862-3.128,2.729c0.279,0.729,0.699,1.134,1.26,1.218c0.56,0.084,1.147-0.006,1.764-0.273
			c0.615-0.266,1.218-0.623,1.806-1.071c0.588-0.447,1.063-0.84,1.428-1.176c0.587-0.503,1.056-0.93,1.406-1.28
			c0.35-0.35,0.721-0.777,1.112-1.281c0.084-0.056,0.133-0.049,0.147,0.021c0.014,0.07,0.007,0.175-0.021,0.315
			c-0.028,0.14-0.07,0.336-0.126,0.588c-0.084,0.196-0.168,0.371-0.252,0.525s-0.203,0.322-0.356,0.504
			c-0.154,0.182-0.357,0.398-0.609,0.65s-0.56,0.588-0.924,1.008c-0.419,0.393-0.825,0.777-1.217,1.155
			c-0.393,0.378-0.806,0.708-1.239,0.987c-0.435,0.28-0.91,0.477-1.428,0.588c-0.519,0.112-1.112,0.112-1.784,0
			c-0.561-0.195-1.008-0.405-1.344-0.63c-0.336-0.224-0.595-0.455-0.777-0.693c-0.182-0.237-0.314-0.455-0.398-0.651
			c-0.084-0.195-0.141-0.363-0.168-0.504c-0.141-0.56-0.196-1.315-0.168-2.267c0.027-0.952,0.308-2.184,0.84-3.695
			c0.363-0.783,0.756-1.449,1.176-1.995S588.656,206.92,589.217,206.611z M587.369,214.044c0.363-0.196,0.79-0.469,1.28-0.819
			s0.951-0.756,1.386-1.218c0.434-0.462,0.812-0.973,1.134-1.533c0.321-0.56,0.497-1.147,0.525-1.764
			c0.084-0.42,0.069-0.714-0.042-0.882c-0.057-0.084-0.112-0.126-0.168-0.126c-0.477-0.224-0.952-0.153-1.428,0.21
			c-0.477,0.364-0.91,0.882-1.302,1.554c-0.393,0.672-0.722,1.421-0.987,2.247S587.369,213.316,587.369,214.044z"/>
		<path fill="#FFFFFF" d="M605.257,205.688c0,0.784-0.008,1.568-0.021,2.352c-0.014,0.784-0.028,1.54-0.042,2.268
			c-0.014,0.728-0.027,1.414-0.042,2.058c-0.014,0.644-0.035,1.218-0.062,1.722c0-0.112,0.062-0.385,0.188-0.819
			s0.301-0.931,0.525-1.491c0.224-0.56,0.469-1.155,0.734-1.785s0.553-1.189,0.861-1.68c0.308-0.489,0.622-0.875,0.944-1.155
			c0.321-0.279,0.623-0.363,0.903-0.252c0.615,0.28,1.05,0.687,1.302,1.218c0.252,0.532,0.434,1.141,0.546,1.827
			c0.111,0.686,0.224,1.449,0.336,2.289c0.111,0.84,0.363,1.722,0.755,2.645c0.168,0.42,0.413,0.729,0.735,0.924
			c0.321,0.196,0.63,0.336,0.924,0.42s0.531,0.133,0.714,0.147c0.182,0.015,0.244,0.063,0.188,0.147
			c-0.7,0.532-1.302,0.714-1.806,0.546s-0.931-0.539-1.28-1.113c-0.351-0.573-0.637-1.26-0.86-2.057
			c-0.225-0.798-0.428-1.568-0.609-2.31c-0.183-0.742-0.343-1.371-0.482-1.89c-0.141-0.518-0.294-0.777-0.462-0.777
			c-0.252,0.028-0.525,0.267-0.819,0.714c-0.294,0.448-0.595,1.008-0.902,1.68c-0.309,0.672-0.603,1.407-0.882,2.205
			c-0.28,0.797-0.539,1.547-0.777,2.246c-0.238,0.7-0.427,1.302-0.566,1.806c-0.141,0.504-0.225,0.812-0.252,0.924
			c-0.42,0-0.679,0.014-0.777,0.042c-0.098,0.027-0.259-0.111-0.482-0.42c0.14-2.463,0.188-4.793,0.146-6.991
			c-0.042-2.197-0.104-4.108-0.188-5.731c0-0.252,0.062-0.378,0.188-0.378s0.267,0.056,0.42,0.168
			c0.154,0.112,0.315,0.224,0.483,0.335C605.005,205.632,605.145,205.688,605.257,205.688z"/>
		<path fill="#FFFFFF" d="M625.412,205.981c1.203-0.084,2.386-0.174,3.548-0.273c1.161-0.098,2.372-0.203,3.632-0.314
			c0.279,0.028,0.462,0.175,0.546,0.44c0.084,0.267-0.028,0.427-0.336,0.483c-1.036,0.112-2.226,0.267-3.569,0.462
			c-1.344,0.196-2.617,0.448-3.82,0.756c0.056,0.868,0.084,1.757,0.084,2.667c0,0.91,0.021,1.806,0.062,2.688
			s0.126,1.736,0.252,2.561c0.126,0.826,0.329,1.589,0.609,2.289c0.392,0.477,0.783,0.756,1.175,0.84
			c0.393,0.084,0.763,0.063,1.113-0.063c0.35-0.126,0.672-0.321,0.966-0.588c0.294-0.266,0.553-0.525,0.776-0.777
			c0.196-0.195,0.357-0.195,0.483,0c0.126,0.196,0.007,0.49-0.357,0.882c-0.168,0.196-0.378,0.406-0.63,0.63
			s-0.553,0.413-0.902,0.567c-0.351,0.153-0.742,0.252-1.176,0.294c-0.435,0.042-0.902-0.007-1.406-0.147
			c-0.645-0.168-1.12-0.687-1.428-1.554c-0.309-0.867-0.54-1.882-0.693-3.044c-0.154-1.161-0.259-2.372-0.314-3.632
			c-0.057-1.26-0.126-2.394-0.21-3.401c-1.232,0.112-2.135,0.21-2.709,0.294c-0.573,0.084-0.986,0.141-1.238,0.168
			c-0.252,0.028-0.42,0.015-0.504-0.042c-0.084-0.056-0.238-0.182-0.462-0.378c0.027-0.14,0.035-0.273,0.021-0.399
			c-0.014-0.126-0.014-0.231,0-0.315c0.015-0.084,0.07-0.168,0.168-0.252c0.099-0.084,0.287-0.153,0.567-0.21
			c0.42-0.111,1.028-0.174,1.826-0.189c0.798-0.014,1.575-0.077,2.331-0.189c-0.028-0.896-0.057-1.595-0.084-2.099
			c-0.028-0.504-0.057-0.945-0.084-1.323c-0.028-0.378-0.05-0.749-0.063-1.113c-0.015-0.363-0.021-0.84-0.021-1.428
			c0-0.14,0.076-0.245,0.23-0.315c0.153-0.069,0.329-0.111,0.525-0.126c0.195-0.014,0.378,0.015,0.546,0.084
			c0.168,0.07,0.279,0.175,0.336,0.315c0.084,0.252,0.14,0.624,0.168,1.113c0.027,0.49,0.048,1.008,0.062,1.554
			c0.014,0.546,0.021,1.099,0.021,1.659S625.439,205.59,625.412,205.981z"/>
		<path fill="#FFFFFF" d="M642.46,205.268c0.699,0.112,1.28,0.266,1.742,0.461c0.462,0.196,0.825,0.414,1.092,0.651
			c0.266,0.238,0.476,0.483,0.63,0.735c0.153,0.252,0.301,0.49,0.441,0.714c-0.028,0.112-0.162,0.099-0.399-0.042
			c-0.238-0.14-0.469-0.279-0.692-0.42c-0.616-0.392-1.358-0.63-2.226-0.714c-0.868-0.084-1.673-0.035-2.415,0.147
			c-0.742,0.183-1.337,0.498-1.784,0.945c-0.448,0.448-0.561,0.994-0.336,1.638c0.224,0.645,0.623,1.204,1.196,1.68
			c0.574,0.476,1.211,0.903,1.911,1.281c0.699,0.378,1.399,0.721,2.1,1.029c0.699,0.308,1.273,0.616,1.722,0.923
			c0.56-0.308,1.035-0.566,1.427-0.776c0.393-0.21,0.742-0.406,1.05-0.588c0.309-0.182,0.623-0.35,0.945-0.504
			c0.321-0.154,0.692-0.329,1.112-0.525c0.056-0.028,0.105-0.042,0.147-0.042s0.042,0.035,0,0.105
			c-0.042,0.07-0.154,0.182-0.336,0.336c-0.183,0.154-0.47,0.371-0.861,0.651c-0.196,0.14-0.56,0.378-1.092,0.714
			c-0.531,0.336-1.105,0.7-1.721,1.091c0.336,0.309,0.602,0.63,0.797,0.966c0.168,0.309,0.287,0.637,0.357,0.987
			c0.069,0.351,0.007,0.708-0.189,1.071c-0.56,0.896-1.189,1.596-1.889,2.1c-0.7,0.504-1.344,0.854-1.932,1.05
			c-0.393,0.14-0.826,0.153-1.302,0.042c-0.477-0.112-0.854-0.336-1.134-0.672c-0.309-0.448-0.386-0.903-0.231-1.365
			s0.413-0.909,0.777-1.344c0.363-0.434,0.783-0.846,1.26-1.239c0.476-0.392,0.896-0.741,1.26-1.05
			c-0.252-0.279-0.742-0.623-1.47-1.029c-0.729-0.405-1.478-0.854-2.247-1.343s-1.463-1.015-2.078-1.575
			c-0.615-0.56-0.951-1.119-1.008-1.68c-0.111-0.615-0.035-1.21,0.231-1.785c0.266-0.573,0.657-1.077,1.175-1.512
			c0.519-0.434,1.12-0.756,1.806-0.966C640.982,205.205,641.704,205.156,642.46,205.268z M642.082,219.67
			c0.308,0.14,0.657,0.14,1.05,0c0.392-0.141,0.762-0.343,1.112-0.609c0.35-0.267,0.657-0.561,0.924-0.882
			c0.266-0.321,0.441-0.609,0.525-0.861c0.084-0.224,0.006-0.468-0.231-0.735c-0.238-0.266-0.482-0.483-0.734-0.651
			c-0.309,0.225-0.658,0.511-1.05,0.861c-0.393,0.351-0.735,0.708-1.029,1.071c-0.294,0.364-0.511,0.714-0.65,1.05
			C641.857,219.25,641.886,219.502,642.082,219.67z"/>
	</g>
	<g>
		<path fill="#FFFFFF" d="M643.249,153.033v0.632h-1.789v4.676h-0.726v-4.676h-1.789v-0.632H643.249z"/>
		<path fill="#FFFFFF" d="M644.484,153.033h1.03l1.526,4.488l1.516-4.488h1.022v5.308h-0.687v-3.133
			c0-0.108,0.002-0.288,0.007-0.539s0.008-0.519,0.008-0.806l-1.516,4.477h-0.713l-1.529-4.477v0.163
			c0,0.13,0.003,0.328,0.011,0.594c0.007,0.266,0.011,0.462,0.011,0.587v3.133h-0.687V153.033z"/>
	</g>
</g>
</svg>
