<?xml version="1.0" encoding="utf-8"?>
<!-- Generator: Adobe Illustrator 16.0.0, SVG Export Plug-In . SVG Version: 6.00 Build 0)  -->
<!DOCTYPE svg PUBLIC "-//W3C//DTD SVG 1.1//EN" "http://www.w3.org/Graphics/SVG/1.1/DTD/svg11.dtd">
<svg version="1.1" id="Layer_1" xmlns="http://www.w3.org/2000/svg" xmlns:xlink="http://www.w3.org/1999/xlink" x="0px" y="0px"
	 width="580.312px" height="144.528px" viewBox="69.843 89.736 580.312 144.528"
	 enable-background="new 69.843 89.736 580.312 144.528" xml:space="preserve">
<g>
	<path fill="#FFFFFF" d="M180.661,115.471c0.972,1.567,1.458,3.349,1.458,5.347c0,3.132-1.027,6.236-3.078,9.315
		c-7.183,7.613-15.013,11.421-23.49,11.421c-3.078,0-6.048-0.596-8.909-1.781c-1.514-0.975-2.512-2.62-2.998-4.941
		c0.324-2.052,0.62-3.377,0.891-3.97c0.539-1.403,1.43-2.43,2.673-3.079c1.835-0.54,3.078-0.025,3.726,1.539
		c-0.109,1.027-0.19,2.539-0.243,4.535c0.053,1.244,0.647,2.107,1.782,2.591c1.403,0.596,2.997,0.894,4.779,0.894
		c4.536,0,8.667-1.592,12.393-4.78c3.997-3.349,5.777-7.263,5.347-11.745c-0.379-3.24-2.647-6.831-6.805-10.775
		c-0.485-0.105-0.919-0.403-1.295-0.888l-0.243-0.165c-2.269-1.024-4.969-2.185-8.101-3.482c-0.702-0.053-1.688-0.309-2.955-0.769
		c-1.271-0.459-2.257-0.716-2.957-0.771c-3.24-0.863-6.696-1.294-10.369-1.294c-4.536,0-12.446,1.186-23.733,3.563
		c-3.187,1.08-6.346,2.16-9.477,3.24c-3.673,1.35-6.671,2.781-8.991,4.292c-5.131,2.483-9.693,5.913-13.689,10.286
		c-4.212,4.646-6.939,9.506-8.182,14.581c-0.27,1.838-0.404,3.619-0.404,5.348c0,6.154,1.701,11.071,5.102,14.742
		c5.184,5.667,11.827,9.773,19.926,12.31c5.885,1.837,13.824,3.131,23.813,3.889c3.403-0.053,8.533-0.189,15.391-0.404
		c8.153-0.486,15.767-2.16,22.842-5.023c0.432-0.105,1.079-0.105,1.943,0c0.649,0.326,0.973,0.918,0.973,1.785
		c0,0.916-0.324,1.592-0.973,2.023c-0.161,0.107-0.404,0.217-0.728,0.325c-11.719,4.587-24.167,6.884-37.342,6.884
		c-6.858,0-13.446-0.676-19.764-2.025c-15.553-3.293-26.596-9.206-33.129-17.737c-3.51-4.644-5.428-9.531-5.751-14.662
		c-0.107-1.297-0.188-2.591-0.243-3.886c-0.054-1.567,0.162-2.836,0.648-3.808c0.701-3.781,2.511-7.75,5.426-11.909
		c2.701-3.995,5.724-7.179,9.073-9.557c1.348-0.81,3.212-2.16,5.589-4.05c0.593-0.487,1.606-1.038,3.038-1.659
		c1.43-0.623,2.469-1.202,3.118-1.742c3.455-1.35,6.102-2.645,7.938-3.889c4.536-1.241,9.045-2.483,13.527-3.728
		c5.237-1.347,9.854-1.996,13.851-1.943c2.593-0.537,5.454-0.81,8.586-0.81c3.078,0,7.209,0.298,12.393,0.891
		C165.945,101.62,175.153,106.778,180.661,115.471z"/>
	<path fill="#FFFFFF" d="M196.171,175.654c-0.19,0.486-1.041,1.459-2.552,2.916c-1.673,0.699-3.699,0.65-6.075-0.16
		c-1.674-1.406-2.51-3.514-2.51-6.319c0-1.136,0.188-2.998,0.567-5.59c-0.109-0.702-0.567-1.104-1.377-1.213
		c-2.755,0.701-4.86,1.052-6.318,1.052c-0.864,0-1.243-0.162-1.133-0.484c-0.054-0.217-0.405-0.975-1.054-2.269
		c-0.432-0.919-0.648-1.702-0.648-2.353c0-0.484,0.082-0.944,0.244-1.375c0.648-1.834,1.106-3.023,1.377-3.563
		c0.647-1.672,1.241-2.7,1.782-3.079c0.323-0.213,0.891-0.27,1.701-0.161c0.756,0.485,1.161,1.834,1.215,4.05
		c0.054,1.89,0.62,2.834,1.701,2.834c0.377,0,0.864-0.081,1.458-0.242c1.135-0.702,2.241-1.055,3.322-1.055
		c0.647,0,1.24,0.164,1.782,0.487c0.81,0.487,1.214,1.322,1.214,2.511c0,0.378-0.041,0.933-0.121,1.662
		c-0.081,0.729-0.121,1.254-0.121,1.579c-0.271,2.107-0.406,3.429-0.406,3.97c0,1.996,0.594,3.455,1.783,4.373
		c0.323,0.326,0.836,0.487,1.539,0.487c0.215,0,0.539-0.026,0.972-0.081c0.431-0.056,0.729-0.081,0.891-0.081
		c0.701,0,1.053,0.296,1.053,0.892C196.455,174.764,196.36,175.167,196.171,175.654z"/>
	<path fill="#FFFFFF" d="M266.6,167.23c-2.484,0.487-4.59,0.729-6.318,0.729c-1.296,0-2.592-0.133-3.888-0.405
		c-2.377-0.916-3.564-2.861-3.564-5.833c0-0.538,0-1.336,0-2.389s0-1.848,0-2.391c0-0.646-0.028-1.239-0.082-1.781l-1.368-2.35
		c-1.985-0.916-4.24-1.375-6.761-1.375c-2.791,0-5.608,0.54-8.452,1.62c-3.114,1.189-5.501,3.104-7.166,5.751
		c-1.288,2.105-1.931,4.32-1.931,6.642c0,1.722,0.329,2.807,0.958,3.318c-2.919,1.127-5.804,1.703-8.651,1.703
		c-1.62,0-3.159-0.188-4.618-0.568c-3.024-0.7-4.914-1.809-5.67-3.32c3.564-3.725,5.346-6.912,5.346-9.559
		c0-1.996-0.783-3.669-2.349-5.019c-0.972-0.487-1.943-0.731-2.916-0.731c-0.92,0-1.958,0.192-3.119,0.568
		c-1.162,0.378-2.309,0.729-3.442,1.052c-0.756,1.027-1.539,2.055-2.349,3.079c-0.919,1.188-1.539,2.257-1.864,3.198
		c-0.323,0.947-0.485,1.879-0.485,2.795c0,2.485,1.349,4.727,4.05,6.723c2.269,1.676,4.994,2.89,8.181,3.646
		c1.835,0.433,3.833,0.649,5.994,0.649c3.564,0,8.396-0.703,14.499-2.107c0.425-0.166,0.852-0.355,1.277-0.532
		c1.058,0.234,2.165,0.37,3.339,0.37c2.97,0,6.372-0.727,10.207-2.188c3.078,1.998,6.966,2.998,11.664,2.998
		c3.131,0,6.291-0.416,9.477-1.25c0.594-0.156,0.891-0.728,0.891-1.719C267.49,167.564,267.194,167.123,266.6,167.23z
		 M206.903,162.371c-0.595,0.486-0.972,0.702-1.134,0.648c-0.702-0.919-0.919-3.023-0.648-6.319c0.811-1.564,1.54-2.349,2.188-2.349
		c0.755,0,1.214,0.459,1.376,1.377C208.847,158.106,208.251,160.319,206.903,162.371z M244.972,159.169
		c-1.026,0.676-1.593,1.311-1.701,1.904c-0.433,1.188-0.864,2.35-1.295,3.481c-0.648,1.244-1.539,2.107-2.673,2.594
		c-0.324,0.054-0.647,0.082-0.972,0.082c-1.781,0-2.89-0.729-3.321-2.188c-0.161-0.537-0.243-1.052-0.243-1.54
		c0-0.807,0.647-2.645,1.943-5.506c1.512-1.621,3.051-2.7,4.618-3.241c2.861,0,4.589,0.729,5.183,2.186
		C246.511,157.755,245.998,158.496,244.972,159.169z"/>
	<path fill="#FFFFFF" d="M360.238,149.086c-4.429-0.648-11.016-1.35-19.765-2.107c-18.308-0.646-31.51-0.972-39.608-0.972
		c-8.535,0-16.444,0.242-23.733,0.729c-0.597,0.053-1.054,0.568-1.378,1.54c-0.705,4.86-1.053,8.182-1.053,9.963
		c0,4.969,1.377,8.64,4.13,11.015c1.728,1.512,3.942,2.27,6.644,2.27c1.566,0,2.995-0.271,4.292-0.811
		c2.485-0.971,4.618-2.375,6.401-4.211c0.214-0.217,0.377-0.322,0.485-0.322c0.323,0,0.485,0.375,0.485,1.133
		c0,1.35-0.378,2.43-1.134,3.239c-1.62,1.673-3.753,2.833-6.4,3.482c-2.323,0.323-4.644,0.674-6.966,1.052
		c-7.183-1.781-11.475-4.857-12.878-9.23c-0.217-0.865-0.729-2.135-1.54-3.808c-0.108-0.758-0.162-1.568-0.162-2.43
		c0-1.567,0.162-3.566,0.486-5.996c0.486-3.185,0.755-5.184,0.811-5.994l-0.648-0.648c-3.349-0.053-7.965-0.025-13.851,0.081
		c-6.156,0.109-10.773,0.165-13.852,0.165c-10.745,0-19.925-0.838-27.54-2.514c-1.079-0.971-1.62-1.778-1.62-2.427
		c0-0.431,0.162-0.81,0.487-1.136c1.133-1.242,2.377-1.862,3.725-1.862c0.919,0,2.485,0.515,4.699,1.539
		c1.999,0.972,3.618,1.351,4.859,1.133c5.886,0.918,13.15,1.406,21.789,1.459c7.29,0,14.581,0,21.871,0
		c0.755,0,1.483-0.729,2.186-2.188c0.539-1.996,1.62-4.966,3.241-8.911c1.565-3.777,2.619-6.748,3.159-8.908
		c0.432-0.757,1.053-1.135,1.863-1.135c1.134,0,2.078,0.568,2.836,1.701c-0.758,4.646-2.053,9.506-3.887,14.581
		c-0.812,0.918-1.164,2.216-1.057,3.889l0.408,0.323c11.068,0,22.14,0,33.211,0c12.902,0.053,23.866,0.507,32.886,1.359
		c5.235,0.481,8.02,0.749,8.342,0.802c3.129,0.481,5.723,1.414,7.776,2.797V149.086L360.238,149.086z"/>
	<path fill="#FFFFFF" d="M334.477,167.473c-1.024,0.487-2.025,0.971-2.993,1.459c-1.189,0.539-2.188,0.81-2.998,0.81
		c-4.052,0.487-7.587,0.729-10.611,0.729c-8.694,0-15.633-1.972-20.818-5.916c-0.539-0.969-1.08-1.943-1.619-2.916
		c-0.539-1.188-0.812-2.241-0.812-3.159c0-0.646,0.11-1.295,0.326-1.943c0.107-1.133,0.998-2.887,2.671-5.267
		c0.81,0.055,1.903-0.362,3.283-1.253c1.376-0.894,2.415-1.339,3.117-1.339c0.594,0,1.188,0.217,1.78,0.648
		c-1.834,2.864-2.752,5.05-2.752,6.562c0,2.43,0.972,4.727,2.916,6.883c1.944,2.164,4.129,3.459,6.562,3.89
		c2.214,0.757,4.586,1.133,7.127,1.133c4.265,0,8.991-1.024,14.175-3.076L334.477,167.473z"/>
	<path fill="#FFFFFF" d="M371.007,159.13l-1.214,2.834c-2-0.376-3.862-0.618-5.589-0.729c-1.404,0.865-2.621,2.164-3.645,3.889
		c-0.759,1.458-1.512,2.917-2.271,4.373c-1.89,2.325-4.913,3.485-9.07,3.485c-1.188,0-2.406-0.082-3.646-0.242
		c-1.189,0-2.67-1.731-4.452-5.186c-1.676-3.294-3.322-4.781-4.942-4.455c-5.076-0.486-7.615-1.592-7.615-3.321
		c0-0.863,0.677-1.673,2.025-2.43c1.348-0.755,2.756-1.134,4.215-1.134c2.213,0,4.103,1,5.668,2.996
		c1.026,1.297,2.051,3.376,3.079,6.238c0.916,0.757,1.782,1.133,2.591,1.133c1.135,0,2.593-1.402,4.373-4.211
		c1.948-3.132,3.754-5.021,5.43-5.67C359.181,156.809,364.204,157.619,371.007,159.13z"/>
	<path fill="#FFFFFF" d="M410.455,167.555c-0.11,0.971-0.647,1.676-1.622,2.106c-0.972,0.431-1.943,0.834-2.913,1.213
		c-6.104,1.405-10.937,2.106-14.5,2.106c-2.161,0-4.158-0.217-5.995-0.648c-3.186-0.757-5.914-1.971-8.181-3.646
		c-2.699-1.996-4.048-4.236-4.048-6.722c0-0.916,0.159-1.849,0.484-2.795c0.323-0.94,0.941-2.01,1.862-3.198
		c0.809-1.024,1.592-2.052,2.348-3.079c1.137-0.323,2.28-0.674,3.444-1.052c1.159-0.376,2.198-0.568,3.118-0.568
		c0.971,0,1.94,0.244,2.913,0.731c1.567,1.35,2.353,3.023,2.353,5.019c0,2.647-1.785,5.835-5.347,9.559
		c0.757,1.512,2.645,2.62,5.67,3.321c1.457,0.379,2.997,0.568,4.618,0.568c4.315,0,8.717-1.298,13.2-3.89
		C409.266,166.582,410.131,166.904,410.455,167.555z M383.966,155.729c-0.16-0.918-0.62-1.377-1.376-1.377
		c-0.646,0-1.377,0.785-2.186,2.349c-0.273,3.296-0.057,5.4,0.647,6.318c0.16,0.054,0.537-0.16,1.132-0.647
		C383.534,160.319,384.129,158.106,383.966,155.729z"/>
	<g>
		<path fill="#FFFFFF" d="M555.606,167.23c-2.485,0.487-4.591,0.729-6.318,0.729c-1.295,0-2.592-0.133-3.89-0.405
			c-2.374-0.916-3.562-2.861-3.562-5.833c0-0.538,0-1.336,0-2.389s0-1.848,0-2.391c0-0.646-0.025-1.239-0.083-1.781l-1.364-2.35
			c-1.987-0.916-4.242-1.375-6.762-1.375c-2.792,0-5.609,0.54-8.454,1.62c-3.115,1.189-5.5,3.104-7.165,5.751
			c-1.286,2.105-1.932,4.32-1.932,6.642c0,1.89,0.382,3.051,1.136,3.482c2.051,1.188,4.401,1.78,7.045,1.78
			c2.974,0,6.374-0.726,10.208-2.188c3.079,2,6.965,2.998,11.664,2.998c3.132,0,6.291-0.414,9.479-1.25
			c0.593-0.155,0.891-0.727,0.891-1.717C556.498,167.562,556.199,167.123,555.606,167.23z M533.981,159.169
			c-1.028,0.676-1.598,1.311-1.705,1.904c-0.432,1.188-0.862,2.35-1.293,3.481c-0.649,1.244-1.54,2.107-2.677,2.594
			c-0.321,0.054-0.648,0.082-0.972,0.082c-1.781,0-2.887-0.729-3.321-2.188c-0.161-0.537-0.242-1.052-0.242-1.54
			c0-0.807,0.648-2.645,1.945-5.506c1.512-1.621,3.049-2.7,4.616-3.241c2.861,0,4.59,0.729,5.183,2.186
			C535.517,157.755,535.002,158.496,533.981,159.169z"/>
		<path fill="#FFFFFF" d="M649.243,147.726c-2.054-1.383-4.648-2.316-7.777-2.797c-0.312-0.053-2.917-0.301-7.799-0.749
			c-0.969-0.938-2.068-1.412-3.3-1.412c-0.542,0-1.052,0.081-1.539,0.242l-0.6,0.716c-8.009-0.59-17.327-0.913-27.994-0.958
			c-11.067,0-22.139,0-33.206,0l-0.406-0.323c-0.108-1.673,0.242-2.97,1.052-3.889c1.834-5.075,3.132-9.935,3.891-14.581
			c-0.759-1.133-1.701-1.701-2.836-1.701c-0.81,0-1.433,0.378-1.863,1.135c-0.537,2.16-1.594,5.13-3.159,8.908
			c-1.618,3.944-2.701,6.915-3.238,8.911c-0.704,1.458-1.431,2.188-2.188,2.188c-7.288,0-14.581,0-21.871,0
			c-6.62-0.042-12.424-0.337-17.426-0.885c0.68-2.906,0.96-5.464,0.825-7.627c-0.981-4.49-2.022-7.912-3.085-10.11
			c-1.735-3.566-4.338-6.578-7.731-8.953l-0.066-0.055c-5.179-5.553-16.063-11.553-32.354-17.83
			c-0.081-0.019-0.558-0.097-2.437-0.264c-1.183-0.064-1.941-0.331-2.306-0.821c-7.245-1.949-15.854-3.641-25.598-5.03
			c-10.274-1.395-19.133-2.105-26.32-2.105c-1.3,0-3.225,0.048-5.709,0.146c-2.503,0.094-4.396,0.142-5.629,0.142
			c-1.531,0-2.973-0.095-4.282-0.284c-2.788,0.384-7.193,0.804-13.099,1.244c-5.935,0.446-10.455,0.93-13.438,1.437
			c-1.717,0.07-4.181,0.47-7.385,1.197c-3.221,0.734-5.88,1.107-7.903,1.116l-15.912,4.215c-6.257,1.709-11.249,3.574-14.835,5.533
			c-13.177,5.415-20.521,10.971-21.869,16.535c0.577,1.554,2.229,2.311,5.04,2.311l0.201-0.003c0.45-0.264,1.463-0.601,4.496-0.762
			c1.757-0.114,2.851-0.585,3.244-1.395l0.107-0.136c0.445-0.368,0.66-0.794,0.66-1.309v-1.431c-0.075-0.557-0.075-1.111,0.01-1.595
			l0.021-0.142l0.107-0.092c3.178-2.817,8.264-5.281,15.119-7.321c1.72-1.086,4.345-2.119,7.8-3.07
			c4.048-1.134,6.751-1.994,8.035-2.556c11.274-3.001,26.269-5.155,44.617-6.425c4.84-0.317,9.786-0.479,14.701-0.479
			c16.978,0,34.035,2.038,50.704,6.052c4.767,1.718,9.583,3.427,14.369,5.091c5.389,2.043,9.993,4.15,13.698,6.261
			c1.821,1.506,3.611,3.023,5.381,4.551c2.143,1.781,3.714,3.374,4.656,4.727c2.412,2.013,4.262,4.668,5.51,7.894
			c0.854,2.776,1.703,5.56,2.55,8.368l0.028,0.092l-0.016,0.095c-0.089,0.509-0.175,0.999-0.259,1.478
			c-0.283-0.12-0.574-0.248-0.877-0.396c-2.213-1.024-3.78-1.539-4.699-1.539c-1.347,0-2.591,0.621-3.725,1.862
			c-0.325,0.326-0.483,0.705-0.483,1.136c0,0.648,0.537,1.456,1.617,2.427c2.296,0.507,4.752,0.925,7.329,1.278
			c-0.197,1.097-0.373,2.057-0.526,2.867c-2.117,5.417-7.098,10.826-14.819,16.143c-0.438,0.481-1.291,1.077-2.616,1.819
			c-1.572,0.88-2.194,1.4-2.438,1.685l-0.062,0.072l-0.089,0.036c-0.175,0.072-1.155,0.529-5.763,2.771
			c-2.24,1.15-4.37,1.84-6.324,2.043c-7.929,3.182-14.839,4.991-20.549,5.375c-2.197-0.125-4.373-0.226-6.518-0.287
			c-2.637-0.343-4.384-1.078-5.386-2.255l-0.07-0.084l-0.02-0.103c-0.498-2.542,1.081-4.977,4.692-7.243
			c1.555-0.905,4.929-2.453,10.04-4.606c0.195-0.22,0.296-0.429,0.296-0.621c0-0.252-0.095-0.486-0.293-0.715
			c-1.831-0.704-4.103-0.818-6.746-0.328c-7.785,2.992-12.997,7.332-15.416,12.883c-0.221,1.229-0.331,2.257-0.331,3.053
			c0,2.464,1.229,4.287,3.769,5.566c2.938,0.496,5.329,0.686,7.132,0.562c0.576,0.027,1.119,0.039,1.676,0.039
			c1.955,0,4.144-0.173,6.509-0.516c6.199-0.938,7.506-1.112,7.816-1.148l2.132-1.021c7.792-2.119,12.744-3.75,14.79-4.881
			l0.14-0.047c0.275-0.035,0.839-0.238,1.971-0.99c0.983-0.654,1.898-0.998,2.724-1.024c9.659-5.047,15.744-8.908,18.084-11.474
			l0.079-0.064c2.806-1.824,5.423-4.153,7.777-6.923c1.049-1.306,2.938-3.897,5.618-7.694c0.252-0.704,0.487-1.397,0.709-2.074
			c3.824,0.273,7.889,0.417,12.226,0.417c3.076,0,7.694-0.056,13.85-0.165c5.888-0.105,10.506-0.133,13.852-0.081l0.652,0.648
			c-0.061,0.81-0.327,2.809-0.813,5.994c-0.323,2.43-0.486,4.429-0.486,5.996c0,0.862,0.056,1.672,0.163,2.43
			c0.811,1.672,1.323,2.942,1.537,3.808c1.406,4.373,5.697,7.449,12.88,9.23c2.321-0.378,4.645-0.729,6.968-1.052
			c2.642-0.648,4.776-1.81,6.398-3.482c0.752-0.81,1.132-1.89,1.132-3.239c0-0.758-0.158-1.134-0.484-1.134
			c-0.108,0-0.271,0.105-0.487,0.323c-1.781,1.837-3.917,3.24-6.399,4.211c-1.295,0.541-2.726,0.811-4.293,0.811
			c-2.698,0-4.913-0.758-6.638-2.27c-2.756-2.375-4.134-6.046-4.134-11.015c0-1.781,0.351-5.103,1.055-9.963
			c0.323-0.972,0.782-1.487,1.378-1.54c7.29-0.487,15.199-0.729,23.732-0.729c7.517,0,19.437,0.281,35.745,0.838l-2.618,3.131
			c-0.649,2.052-0.972,3.7-0.972,4.941c0,1.027,0.187,1.943,0.567,2.753c0.267,0.487,1.049,1.107,2.347,1.865
			c1.137,0.592,1.729,1.294,1.781,2.104c-0.487,0.917-1.566,2.349-3.24,4.292c-0.215,0.25-0.411,0.483-0.594,0.707
			c-0.283-0.039-0.596-0.06-0.945-0.06c-4.479,2.592-8.884,3.889-13.202,3.889c-1.618,0-3.157-0.188-4.616-0.567
			c-3.025-0.701-4.913-1.81-5.67-3.321c3.562-3.724,5.348-6.912,5.348-9.559c0-1.996-0.783-3.669-2.353-5.019
			c-0.973-0.487-1.94-0.731-2.915-0.731c-0.918,0-1.956,0.192-3.117,0.568c-1.164,0.378-2.308,0.729-3.443,1.052
			c-0.754,1.027-1.54,2.055-2.347,3.079c-0.919,1.188-1.539,2.257-1.862,3.198c-0.324,0.947-0.489,1.879-0.489,2.795
			c0,2.485,1.353,4.726,4.051,6.722c2.271,1.676,4.996,2.891,8.184,3.646c1.834,0.432,3.833,0.648,5.993,0.648
			c3.563,0,8.396-0.701,14.498-2.106c0.718-0.278,1.434-0.587,2.148-0.894c0.112,0.029,0.226,0.063,0.36,0.082
			c1.352,0,3.457-1.428,6.319-4.291l2.998-1.539l8.018,5.914c0.378,0.377,0.566,0.889,0.566,1.537c0,0.758-0.199,1.54-0.609,2.35
			c-0.402,0.81-0.769,1.283-1.091,1.416c-0.325,0.137-0.62,0.203-0.894,0.203c-0.701,0-1.834-0.402-3.402-1.213
			c-1.566-0.81-2.725-1.215-3.481-1.215c-0.271,0-0.513,0.026-0.729,0.08c-0.483,0.161-0.957,0.352-1.416,0.568
			c-0.46,0.214-0.744,0.621-0.854,1.213c-0.429,1.245-0.13,2.135,0.895,2.675c0.698,0.162,2.051,0.649,4.051,1.459
			c1.673,0.646,3.075,0.997,4.211,1.052c1.834,0.053,3.592-0.567,5.265-1.861c1.459-1.189,2.595-2.703,3.401-4.538
			c0.164-0.647,0.242-1.271,0.242-1.862c0-2.322-1.133-4.617-3.398-6.887c-2.056-1.834-4.105-3.697-6.157-5.586
			c-1.62-1.027-2.432-2.322-2.432-3.89c0-0.757,0.257-1.943,0.772-3.563c0.512-1.62,0.768-2.864,0.768-3.727
			c0-0.284-0.021-0.56-0.063-0.833c5.82,0.551,10.405,1.072,13.757,1.562v-1.354H649.243z M596.268,162.371
			c-0.595,0.486-0.975,0.702-1.136,0.648c-0.701-0.919-0.918-3.023-0.646-6.319c0.807-1.564,1.539-2.349,2.185-2.349
			c0.756,0,1.217,0.459,1.376,1.377C598.211,158.106,597.615,160.319,596.268,162.371z"/>
		<path fill="#FFFFFF" d="M428.126,127.591c-0.841,0-1.621,0.237-2.321,0.702c-3.246,1.389-4.794,3.371-4.794,6.099v0.101
			l-0.046,0.086c-0.661,1.284-0.993,2.837-0.993,4.618c0,0.766,0.054,1.904,0.161,3.382c0.109,1.503,0.194,2.575,0.251,3.212
			l0.003,0.056l-0.01,0.053c-0.214,1.175-0.156,3.271,0.169,6.225l0.005,0.044l-0.005,0.044c-0.153,1.375-0.133,3.549,0.061,6.463
			c0.192,3.01,0.174,5.208-0.062,6.721l0.003,1.222c0.15,0.532,0.153,1.013,0.013,1.442l0.448,2.78
			c0.197,0.994,0.639,1.677,1.346,2.074c1.984,0.262,4.329-0.899,6.996-3.442c0.375-6.348,0.45-11.19,0.226-14.392l-0.01-0.109
			l0.047-0.094c0.274-0.574,0.357-1.557,0.25-2.917c-0.117-1.47,0.013-2.564,0.399-3.34c-0.071-1.832-0.031-5.23,0.12-10.107
			c0.073-4.134-0.039-7.51-0.335-10.035C429.657,127.884,429.027,127.591,428.126,127.591z"/>
	</g>
	<g>
		<path fill="#FFFFFF" d="M87.361,206.736c0.14,1.037,0.287,2.129,0.441,3.275c0.153,1.148,0.287,2.254,0.399,3.317
			c0.111,1.063,0.182,2.03,0.21,2.897c0.027,0.867,0,1.532-0.084,1.994c-0.084,0.463-0.252,0.657-0.504,0.588
			c-0.252-0.07-0.616-0.51-1.092-1.322c0-1.932-0.091-3.758-0.273-5.479s-0.413-3.45-0.693-5.187c-0.644,0-1.274-0.104-1.89-0.314
			s-1.175-0.447-1.679-0.714c-0.504-0.267-0.903-0.545-1.197-0.839s-0.441-0.539-0.441-0.735c0.195,0.056,0.504,0.126,0.924,0.21
			s0.861,0.161,1.323,0.231c0.461,0.069,0.923,0.126,1.385,0.168s0.833,0.063,1.113,0.063c-0.168-1.261-0.329-2.395-0.483-3.402
			c-0.154-1.006-0.308-1.986-0.462-2.938c-0.154-0.95-0.308-1.924-0.462-2.918c-0.154-0.993-0.301-2.106-0.441-3.338
			c-0.868-0.362-1.742-0.699-2.624-1.008c-0.882-0.308-1.729-0.657-2.541-1.05c-0.056-0.168-0.098-0.287-0.126-0.357
			c-0.027-0.068-0.035-0.132-0.021-0.189c0.015-0.056,0.057-0.119,0.126-0.188c0.07-0.069,0.189-0.174,0.357-0.315
			c0.224-0.056,0.749,0.037,1.575,0.273c0.825,0.238,1.806,0.574,2.939,1.008c1.134,0.436,2.352,0.952,3.653,1.555
			c1.302,0.603,2.562,1.218,3.779,1.848c1.217,0.63,2.309,1.26,3.275,1.89c0.966,0.63,1.672,1.212,2.121,1.742
			c0.42,0.336,0.707,0.729,0.861,1.176c0.153,0.448,0.195,0.91,0.126,1.386c-0.07,0.478-0.246,0.953-0.525,1.429
			c-0.28,0.476-0.63,0.924-1.05,1.344c-0.42,0.392-0.917,0.806-1.491,1.239c-0.574,0.434-1.197,0.84-1.869,1.218
			c-0.671,0.377-1.4,0.7-2.183,0.965C89.055,206.521,88.229,206.682,87.361,206.736z M86.815,204.807
			c1.315,0,2.484-0.141,3.506-0.421c1.021-0.28,1.882-0.672,2.582-1.176c0.7-0.504,1.21-1.092,1.533-1.765
			c0.322-0.672,0.427-1.37,0.315-2.1c-0.056-0.56-0.434-1.126-1.134-1.701c-0.7-0.572-1.547-1.133-2.54-1.679
			c-0.994-0.546-2.044-1.077-3.149-1.596c-1.106-0.519-2.093-1.015-2.96-1.491c0.056,0.588,0.133,1.225,0.231,1.911
			c0.098,0.687,0.217,1.483,0.357,2.394c0.14,0.909,0.315,1.98,0.525,3.211C86.291,201.629,86.535,203.1,86.815,204.807z"/>
		<path fill="#FFFFFF" d="M101.595,205.227c-0.028-0.252,0.105-0.315,0.399-0.189s0.594,0.259,0.903,0.398
			c0.111,0.645,0.195,1.154,0.252,1.532c0.056,0.378,0.098,0.735,0.126,1.071c0.027,0.336,0.056,0.7,0.084,1.092
			c0.027,0.393,0.069,0.91,0.126,1.555c0.252-0.645,0.56-1.24,0.924-1.785c0.363-0.547,0.833-1.015,1.406-1.407
			c0.574-0.392,1.26-0.679,2.058-0.861c0.798-0.182,1.756-0.245,2.876-0.188c0,0.225-0.078,0.414-0.231,0.566
			c-0.154,0.154-0.511,0.273-1.071,0.357c-0.812,0.141-1.519,0.414-2.121,0.818c-0.602,0.406-1.12,0.875-1.554,1.407
			s-0.784,1.099-1.049,1.701c-0.267,0.603-0.483,1.155-0.651,1.659c-0.028,0.252-0.063,0.609-0.105,1.07s-0.07,0.953-0.084,1.47
			c-0.015,0.519-0.028,1.022-0.042,1.512c-0.015,0.49,0.006,0.875,0.063,1.155c0.027,0.141-0.036,0.246-0.189,0.314
			c-0.154,0.069-0.33,0.119-0.525,0.147c-0.196,0.026-0.378,0.014-0.546-0.042c-0.168-0.057-0.252-0.153-0.252-0.294
			c0.056-2.884-0.021-5.368-0.231-7.453C101.952,208.747,101.763,206.878,101.595,205.227z"/>
		<path fill="#FFFFFF" d="M120.407,206.611c0.084-0.027,0.321-0.105,0.713-0.231s0.714-0.147,0.966-0.063
			c0.812-0.026,1.435,0.184,1.869,0.631s0.469,1.316,0.105,2.604c-0.532,1.428-1.239,2.618-2.121,3.569
			c-0.882,0.95-1.925,1.862-3.128,2.729c0.279,0.729,0.699,1.133,1.26,1.217c0.56,0.084,1.147-0.006,1.763-0.272
			s1.218-0.623,1.806-1.071c0.588-0.447,1.063-0.84,1.428-1.176c0.588-0.503,1.056-0.93,1.407-1.279
			c0.35-0.351,0.72-0.777,1.113-1.281c0.084-0.057,0.132-0.049,0.147,0.021c0.014,0.07,0.006,0.175-0.021,0.315
			c-0.028,0.14-0.07,0.336-0.126,0.588c-0.084,0.195-0.168,0.371-0.252,0.525c-0.084,0.153-0.204,0.321-0.357,0.504
			c-0.154,0.182-0.357,0.397-0.609,0.649s-0.561,0.588-0.924,1.009c-0.42,0.393-0.826,0.776-1.218,1.154s-0.805,0.708-1.239,0.986
			c-0.434,0.281-0.91,0.478-1.428,0.589c-0.518,0.112-1.112,0.112-1.784,0c-0.561-0.195-1.008-0.405-1.344-0.63
			s-0.595-0.455-0.777-0.693c-0.183-0.236-0.315-0.455-0.399-0.65s-0.141-0.363-0.168-0.504c-0.141-0.561-0.196-1.315-0.168-2.268
			c0.027-0.952,0.308-2.184,0.84-3.695c0.363-0.783,0.756-1.449,1.176-1.994C119.357,207.346,119.846,206.92,120.407,206.611z
			 M118.559,214.044c0.363-0.196,0.791-0.469,1.281-0.819c0.489-0.35,0.951-0.756,1.385-1.218s0.812-0.973,1.134-1.532
			c0.322-0.561,0.497-1.147,0.525-1.765c0.084-0.42,0.07-0.714-0.042-0.882c-0.056-0.084-0.112-0.126-0.168-0.126
			c-0.476-0.224-0.952-0.153-1.428,0.21s-0.91,0.882-1.301,1.554c-0.393,0.673-0.721,1.421-0.987,2.247
			C118.691,212.539,118.559,213.316,118.559,214.044z"/>
		<path fill="#FFFFFF" d="M141.905,208.459c0.084,0,0.14,0.057,0.168,0.168c0.028,0.112,0.035,0.246,0.021,0.398
			c-0.014,0.154-0.042,0.302-0.084,0.441c-0.042,0.141-0.077,0.238-0.105,0.294c-0.308-0.026-0.798-0.034-1.47-0.021
			c-0.672,0.015-1.372,0.042-2.099,0.084c-0.729,0.042-1.386,0.099-1.974,0.168c-0.588,0.07-0.938,0.162-1.05,0.273
			c-0.141-0.531-0.12-0.951,0.063-1.261c0.182-0.308,0.497-0.446,0.945-0.42c0.504,0,0.945-0.006,1.323-0.021
			s0.762-0.021,1.155-0.021c0.392,0,0.825-0.006,1.301-0.021C140.576,208.508,141.177,208.486,141.905,208.459z"/>
		<path fill="#FFFFFF" d="M161.053,206.736c0.14,1.037,0.287,2.129,0.441,3.275c0.153,1.148,0.287,2.254,0.399,3.317
			c0.111,1.063,0.182,2.03,0.21,2.897c0.027,0.867,0,1.532-0.084,1.994c-0.084,0.463-0.252,0.657-0.504,0.588
			c-0.252-0.07-0.616-0.51-1.092-1.322c0-1.932-0.091-3.758-0.273-5.479s-0.413-3.45-0.693-5.187c-0.644,0-1.274-0.104-1.89-0.314
			c-0.616-0.21-1.175-0.447-1.679-0.714c-0.504-0.267-0.903-0.545-1.197-0.839s-0.441-0.539-0.441-0.735
			c0.195,0.056,0.504,0.126,0.924,0.21c0.42,0.084,0.861,0.161,1.323,0.231c0.461,0.069,0.923,0.126,1.385,0.168
			s0.833,0.063,1.113,0.063c-0.168-1.261-0.329-2.395-0.483-3.402c-0.154-1.006-0.308-1.986-0.462-2.938
			c-0.154-0.95-0.308-1.924-0.462-2.918c-0.154-0.993-0.301-2.106-0.441-3.338c-0.868-0.362-1.742-0.699-2.624-1.008
			c-0.882-0.308-1.729-0.657-2.541-1.05c-0.056-0.168-0.098-0.287-0.126-0.357c-0.027-0.068-0.035-0.132-0.021-0.189
			c0.015-0.056,0.057-0.119,0.126-0.188c0.07-0.069,0.189-0.174,0.357-0.315c0.224-0.056,0.749,0.037,1.575,0.273
			c0.825,0.238,1.806,0.574,2.939,1.008c1.134,0.436,2.352,0.952,3.653,1.555c1.302,0.603,2.562,1.218,3.779,1.848
			c1.217,0.63,2.309,1.26,3.275,1.89s1.672,1.212,2.121,1.742c0.42,0.336,0.707,0.729,0.861,1.176
			c0.153,0.448,0.195,0.91,0.126,1.386c-0.07,0.478-0.246,0.953-0.525,1.429c-0.28,0.476-0.63,0.924-1.05,1.344
			c-0.42,0.392-0.917,0.806-1.491,1.239c-0.574,0.434-1.197,0.84-1.869,1.218c-0.671,0.377-1.4,0.7-2.183,0.965
			C162.746,206.521,161.92,206.682,161.053,206.736z M160.507,204.807c1.315,0,2.484-0.141,3.506-0.421
			c1.021-0.28,1.882-0.672,2.582-1.176c0.7-0.504,1.21-1.092,1.533-1.765c0.322-0.672,0.427-1.37,0.315-2.1
			c-0.056-0.56-0.434-1.126-1.134-1.701c-0.7-0.572-1.547-1.133-2.54-1.679c-0.994-0.546-2.044-1.077-3.149-1.596
			c-1.106-0.519-2.093-1.015-2.96-1.491c0.056,0.588,0.133,1.225,0.231,1.911s0.217,1.483,0.357,2.394
			c0.14,0.909,0.315,1.98,0.525,3.211C159.982,201.629,160.227,203.1,160.507,204.807z"/>
		<path fill="#FFFFFF" d="M181.081,209.803c0,0.084,0.042,0.477,0.126,1.176c0.084,0.701,0.182,1.555,0.294,2.562
			c0.111,1.007,0.245,2.093,0.399,3.254c0.153,1.162,0.294,2.268,0.42,3.316c0.126,1.05,0.245,1.975,0.357,2.771
			c0.111,0.799,0.182,1.309,0.21,1.533c-0.168-0.027-0.309-0.057-0.42-0.084c-0.112-0.027-0.225-0.098-0.336-0.21
			c-0.112-0.112-0.246-0.272-0.399-0.483c-0.154-0.21-0.372-0.511-0.651-0.902c-0.364-2.575-0.651-4.821-0.861-6.739
			c-0.21-1.917-0.385-3.478-0.525-4.683c-0.504,0.672-0.867,1.121-1.092,1.345c-0.224,0.224-0.363,0.336-0.42,0.336
			c-0.084,0-0.098-0.126-0.042-0.378c0.028-0.141,0.057-0.28,0.084-0.42c0.028-0.141,0.057-0.266,0.084-0.379
			c0.028-0.111,0.07-0.209,0.126-0.293c0.196-0.28,0.372-0.561,0.525-0.84c0.153-0.281,0.273-0.531,0.357-0.757
			c0.111-0.278,0.195-0.546,0.252-0.798c-0.028-0.309-0.049-0.572-0.063-0.798c-0.015-0.224-0.021-0.455-0.021-0.692
			c0-0.238-0.007-0.484-0.021-0.736c-0.015-0.252-0.021-0.572-0.021-0.965c0-0.363,0-0.918,0-1.658c0-0.741,0-1.567,0-2.479
			c0-0.908,0.014-1.869,0.042-2.876c0.027-1.008,0.063-1.966,0.105-2.876s0.098-1.734,0.168-2.479c0.069-0.74,0.147-1.307,0.231-1.7
			c0.195-0.812,0.497-1.435,0.903-1.869c0.405-0.435,0.833-0.687,1.281-0.756c0.447-0.069,0.888,0.042,1.322,0.336
			s0.763,0.75,0.987,1.364c0.252,0.617,0.378,1.414,0.378,2.395s-0.084,2.051-0.252,3.212s-0.399,2.372-0.693,3.632
			s-0.608,2.485-0.944,3.674c-0.336,1.19-0.672,2.304-1.008,3.338C181.627,208.234,181.333,209.104,181.081,209.803z
			 M180.745,207.409c0.699-2.043,1.273-4.052,1.722-6.025c0.447-1.974,0.777-3.743,0.986-5.312c0.21-1.567,0.28-2.834,0.21-3.801
			c-0.07-0.965-0.273-1.461-0.608-1.49c-0.532-0.195-0.952-0.014-1.26,0.546c-0.309,0.562-0.553,1.344-0.735,2.353
			c-0.183,1.008-0.301,2.162-0.357,3.463c-0.057,1.303-0.078,2.598-0.063,3.885c0.014,1.287,0.035,2.505,0.063,3.652
			C180.73,205.828,180.745,206.736,180.745,207.409z"/>
		<path fill="#FFFFFF" d="M201.067,206.148c-0.028,0.168-0.091,0.52-0.189,1.051c-0.099,0.531-0.204,1.154-0.315,1.869
			c-0.112,0.714-0.21,1.463-0.294,2.246c-0.084,0.785-0.133,1.526-0.147,2.227s0.028,1.295,0.126,1.784s0.258,0.792,0.483,0.903
			c0.644,0.309,1.302,0.203,1.974-0.315s1.455-1.308,2.352-2.372c0.084,0,0.09,0.111,0.021,0.336
			c-0.07,0.225-0.183,0.469-0.336,0.734c-0.154,0.267-0.309,0.531-0.462,0.798c-0.154,0.267-0.273,0.44-0.357,0.524
			c-0.225,0.28-0.546,0.596-0.966,0.945c-0.42,0.352-0.868,0.63-1.344,0.84c-0.477,0.211-0.931,0.301-1.365,0.273
			s-0.791-0.279-1.071-0.756c-0.14-0.336-0.224-0.75-0.252-1.239c-0.028-0.489-0.028-0.987,0-1.491
			c0.028-0.503,0.07-0.965,0.126-1.385c0.056-0.42,0.098-0.729,0.126-0.924c-0.588,1.092-1.26,2.127-2.016,3.107
			c-0.755,0.979-1.498,1.75-2.225,2.31c-0.729,0.561-1.4,0.86-2.016,0.903c-0.616,0.041-1.092-0.315-1.428-1.072
			c-0.195-0.728-0.195-1.545,0-2.456c0.196-0.909,0.49-1.729,0.882-2.456c0.588-1.008,1.203-1.932,1.848-2.771
			c0.644-0.84,1.329-1.554,2.058-2.142c0.728-0.588,1.49-1.015,2.288-1.281C199.367,206.073,200.199,206.01,201.067,206.148z
			 M193.173,216.814c0.279,0.058,0.728-0.152,1.344-0.629c0.615-0.477,1.26-1.141,1.932-1.996c0.671-0.854,1.28-1.847,1.826-2.98
			s0.903-2.331,1.071-3.59c-0.112,0-0.273,0-0.483,0c-0.21,0-0.455,0.084-0.735,0.252c-1.064,0.699-1.973,1.52-2.729,2.457
			s-1.344,1.848-1.764,2.729c-0.42,0.881-0.672,1.674-0.756,2.373S192.893,216.591,193.173,216.814z"/>
		<path fill="#FFFFFF" d="M213.664,205.688c0,0.785-0.007,1.568-0.021,2.353c-0.015,0.784-0.028,1.54-0.042,2.269
			c-0.015,0.728-0.028,1.414-0.042,2.058c-0.015,0.644-0.036,1.218-0.063,1.722c0-0.111,0.063-0.385,0.189-0.818
			c0.126-0.435,0.3-0.932,0.525-1.492c0.224-0.56,0.468-1.154,0.735-1.784c0.266-0.63,0.552-1.188,0.861-1.681
			c0.308-0.488,0.623-0.875,0.944-1.154c0.322-0.279,0.623-0.363,0.903-0.252c0.616,0.279,1.05,0.687,1.302,1.218
			c0.252,0.532,0.434,1.142,0.546,1.827s0.224,1.449,0.336,2.289c0.111,0.84,0.363,1.722,0.756,2.645
			c0.168,0.42,0.413,0.729,0.735,0.924c0.321,0.196,0.63,0.336,0.924,0.42s0.531,0.133,0.714,0.147
			c0.182,0.015,0.245,0.063,0.189,0.147c-0.7,0.531-1.302,0.713-1.806,0.545c-0.504-0.168-0.931-0.538-1.281-1.112
			c-0.35-0.573-0.637-1.26-0.861-2.058c-0.224-0.797-0.427-1.567-0.609-2.31c-0.182-0.741-0.343-1.371-0.483-1.89
			c-0.14-0.518-0.294-0.777-0.462-0.777c-0.252,0.028-0.525,0.268-0.819,0.715s-0.595,1.008-0.902,1.68
			c-0.309,0.672-0.603,1.406-0.882,2.205c-0.28,0.797-0.54,1.547-0.777,2.246c-0.238,0.699-0.427,1.301-0.567,1.806
			c-0.141,0.504-0.225,0.812-0.252,0.924c-0.42,0-0.679,0.015-0.777,0.042c-0.099,0.027-0.259-0.111-0.483-0.42
			c0.14-2.463,0.189-4.793,0.147-6.991c-0.042-2.196-0.105-4.108-0.189-5.731c0-0.252,0.063-0.377,0.189-0.377
			s0.266,0.056,0.42,0.168c0.153,0.111,0.315,0.224,0.483,0.334S213.551,205.688,213.664,205.688z"/>
		<path fill="#FFFFFF" d="M232.097,205.688c0,0.785-0.007,1.568-0.021,2.353c-0.015,0.784-0.028,1.54-0.042,2.269
			c-0.015,0.728-0.028,1.414-0.042,2.058c-0.015,0.644-0.036,1.218-0.063,1.722c0-0.111,0.063-0.385,0.189-0.818
			c0.126-0.435,0.3-0.932,0.525-1.492c0.224-0.56,0.468-1.154,0.735-1.784c0.266-0.63,0.552-1.188,0.861-1.681
			c0.308-0.488,0.623-0.875,0.944-1.154c0.322-0.279,0.623-0.363,0.903-0.252c0.616,0.279,1.05,0.687,1.302,1.218
			c0.252,0.532,0.434,1.142,0.546,1.827c0.112,0.686,0.224,1.449,0.336,2.289c0.111,0.84,0.363,1.722,0.756,2.645
			c0.168,0.42,0.413,0.729,0.735,0.924c0.321,0.196,0.63,0.336,0.924,0.42s0.531,0.133,0.714,0.147
			c0.182,0.015,0.245,0.063,0.189,0.147c-0.7,0.531-1.302,0.713-1.806,0.545c-0.504-0.168-0.931-0.538-1.281-1.112
			c-0.35-0.573-0.637-1.26-0.861-2.058c-0.224-0.797-0.427-1.567-0.609-2.31c-0.182-0.741-0.343-1.371-0.483-1.89
			c-0.14-0.518-0.294-0.777-0.462-0.777c-0.252,0.028-0.525,0.268-0.819,0.715s-0.595,1.008-0.902,1.68
			c-0.309,0.672-0.603,1.406-0.882,2.205c-0.28,0.797-0.54,1.547-0.777,2.246c-0.238,0.699-0.427,1.301-0.567,1.806
			c-0.141,0.504-0.225,0.812-0.252,0.924c-0.42,0-0.679,0.015-0.777,0.042c-0.099,0.027-0.259-0.111-0.483-0.42
			c0.14-2.463,0.189-4.793,0.147-6.991c-0.042-2.196-0.105-4.108-0.189-5.731c0-0.252,0.063-0.377,0.189-0.377
			s0.266,0.056,0.42,0.168c0.153,0.111,0.315,0.224,0.483,0.334C231.845,205.632,231.984,205.688,232.097,205.688z"/>
		<path fill="#FFFFFF" d="M252.336,206.611c0.084-0.027,0.321-0.105,0.713-0.231c0.392-0.126,0.714-0.147,0.966-0.063
			c0.812-0.026,1.435,0.184,1.869,0.631c0.434,0.447,0.469,1.316,0.105,2.604c-0.532,1.428-1.239,2.618-2.121,3.569
			c-0.882,0.95-1.925,1.862-3.128,2.729c0.279,0.729,0.699,1.133,1.26,1.217c0.56,0.084,1.147-0.006,1.763-0.272
			c0.616-0.267,1.218-0.623,1.806-1.071c0.588-0.447,1.063-0.84,1.428-1.176c0.588-0.503,1.056-0.93,1.407-1.279
			c0.35-0.351,0.72-0.777,1.113-1.281c0.084-0.057,0.132-0.049,0.147,0.021c0.014,0.07,0.006,0.175-0.021,0.315
			c-0.028,0.14-0.07,0.336-0.126,0.588c-0.084,0.195-0.168,0.371-0.252,0.525c-0.084,0.153-0.204,0.321-0.357,0.504
			c-0.154,0.182-0.357,0.397-0.609,0.649s-0.561,0.588-0.924,1.009c-0.42,0.393-0.826,0.776-1.218,1.154
			c-0.392,0.378-0.805,0.708-1.239,0.986c-0.434,0.281-0.91,0.478-1.428,0.589c-0.518,0.112-1.112,0.112-1.784,0
			c-0.561-0.195-1.008-0.405-1.344-0.63c-0.336-0.225-0.595-0.455-0.777-0.693c-0.183-0.236-0.315-0.455-0.399-0.65
			s-0.141-0.363-0.168-0.504c-0.141-0.561-0.196-1.315-0.168-2.268c0.027-0.952,0.308-2.184,0.84-3.695
			c0.363-0.783,0.756-1.449,1.176-1.994C251.286,207.346,251.775,206.92,252.336,206.611z M250.488,214.044
			c0.363-0.196,0.791-0.469,1.281-0.819c0.489-0.35,0.951-0.756,1.385-1.218c0.434-0.462,0.812-0.973,1.134-1.532
			c0.322-0.561,0.497-1.147,0.525-1.765c0.084-0.42,0.07-0.714-0.042-0.882c-0.056-0.084-0.112-0.126-0.168-0.126
			c-0.476-0.224-0.952-0.153-1.428,0.21c-0.476,0.363-0.91,0.882-1.301,1.554c-0.393,0.673-0.721,1.421-0.987,2.247
			C250.621,212.539,250.488,213.316,250.488,214.044z"/>
		<path fill="#FFFFFF" d="M280.259,196.408c-0.084,0.503-0.182,1.035-0.294,1.595c-0.112,0.562-0.231,1.093-0.357,1.597
			s-0.231,0.938-0.315,1.301c-0.084,0.365-0.14,0.589-0.168,0.673c-0.168,0.476-0.392,1.092-0.671,1.848
			c-0.28,0.756-0.609,1.547-0.987,2.372c-0.378,0.826-0.805,1.652-1.281,2.479c-0.477,0.826-0.966,1.533-1.47,2.121
			c0,0.42,0.048,1.127,0.147,2.121c0.098,0.993,0.216,2.063,0.357,3.211c0.14,1.148,0.273,2.275,0.399,3.381
			c0.126,1.104,0.203,1.965,0.231,2.582c-0.141,0.141-0.267,0.111-0.378-0.084c-0.112-0.195-0.28-0.531-0.504-1.008
			c-0.168-0.729-0.301-1.4-0.399-2.016c-0.099-0.615-0.189-1.239-0.273-1.869s-0.175-1.294-0.273-1.995
			c-0.099-0.698-0.246-1.497-0.441-2.393c-0.532,0.672-1.169,1.435-1.911,2.288s-1.512,1.609-2.309,2.268
			c-0.798,0.658-1.582,1.12-2.352,1.387c-0.771,0.266-1.435,0.146-1.995-0.357c-0.336-0.447-0.483-0.973-0.441-1.575
			s0.21-1.218,0.504-1.849c0.294-0.629,0.672-1.252,1.134-1.867c0.462-0.616,0.93-1.189,1.407-1.723
			c0.476-0.531,0.924-0.992,1.344-1.386c0.42-0.392,0.728-0.672,0.923-0.84c0.392-0.252,0.721-0.455,0.987-0.608
			s0.504-0.279,0.714-0.379c0.21-0.098,0.427-0.168,0.651-0.209c0.224-0.043,0.504-0.049,0.84-0.021
			c-0.056-0.645-0.091-1.413-0.105-2.309c-0.014-0.896-0.014-1.799,0-2.709c0.014-0.908,0.042-1.756,0.084-2.541
			c0.042-0.783,0.105-1.386,0.189-1.806c0.056-0.614,0.189-1.26,0.399-1.931c0.21-0.672,0.476-1.323,0.798-1.953
			c0.321-0.63,0.678-1.189,1.071-1.68c0.392-0.489,0.819-0.84,1.281-1.051c0.462-0.209,0.938-0.258,1.428-0.146
			c0.489,0.111,0.972,0.462,1.448,1.05c0.392,0.476,0.588,1.071,0.588,1.785S280.259,195.625,280.259,196.408z M268.628,211.523
			c-0.756,0.785-1.309,1.506-1.659,2.164c-0.351,0.658-0.637,1.267-0.861,1.826c0,0.084,0,0.217,0,0.398
			c0,0.184,0.021,0.357,0.063,0.525s0.126,0.314,0.252,0.44s0.329,0.162,0.609,0.104c0.279-0.11,0.51-0.224,0.693-0.336
			c0.182-0.11,0.35-0.23,0.504-0.356c0.153-0.126,0.321-0.258,0.504-0.399c0.182-0.14,0.413-0.32,0.693-0.546
			c0.392-0.42,0.875-0.896,1.448-1.427c0.573-0.531,1.078-1.092,1.512-1.68c0.434-0.588,0.721-1.189,0.861-1.807
			c0.14-0.615-0.042-1.218-0.546-1.806c-0.196,0-0.399,0.028-0.609,0.084c-0.21,0.058-0.469,0.188-0.777,0.399
			c-0.308,0.209-0.679,0.504-1.113,0.882C269.768,210.369,269.243,210.881,268.628,211.523z M274.716,207.619
			c0.504-0.561,0.924-1.155,1.26-1.785c0.336-0.629,0.714-1.378,1.134-2.246c0.363-0.756,0.693-1.722,0.987-2.896
			c0.294-1.176,0.497-2.332,0.608-3.465c0.112-1.133,0.112-2.119,0-2.959c-0.112-0.841-0.392-1.289-0.839-1.345
			c-0.393-0.056-0.756,0.091-1.092,0.44c-0.336,0.351-0.645,0.785-0.924,1.303c-0.28,0.518-0.519,1.07-0.714,1.659
			c-0.196,0.587-0.336,1.106-0.42,1.553c-0.112,0.562-0.189,1.063-0.231,1.513c-0.042,0.447-0.07,0.916-0.084,1.406
			c-0.015,0.49-0.036,1.021-0.063,1.596c-0.028,0.574-0.084,1.281-0.168,2.121c0,0.42,0.021,0.84,0.063,1.26s0.098,0.776,0.168,1.07
			c0.069,0.295,0.132,0.52,0.189,0.672C274.646,207.668,274.688,207.703,274.716,207.619z"/>
		<path fill="#FFFFFF" d="M287.817,216.438c0.308-0.057,0.546-0.049,0.714,0.021c0.168,0.069,0.363,0.133,0.588,0.188
			c-0.112,0.533-0.364,1.162-0.756,1.891c-0.393,0.729-0.833,1.413-1.323,2.058c-0.49,0.644-0.966,1.189-1.428,1.638
			c-0.462,0.447-0.833,0.672-1.113,0.672c-0.14-0.112-0.09-0.344,0.147-0.692c0.238-0.351,0.546-0.798,0.924-1.344
			c0.378-0.546,0.783-1.19,1.218-1.933C287.222,218.193,287.565,217.361,287.817,216.438z"/>
		<path fill="#FFFFFF" d="M299.322,190.654c0.168,0.029,0.3,0.162,0.399,0.4c0.098,0.237,0.168,0.531,0.21,0.881
			c0.042,0.352,0.077,0.722,0.105,1.113c0.027,0.393,0.056,0.77,0.084,1.135c0.056,0.447,0.14,1.301,0.252,2.561
			c0.111,1.26,0.245,2.708,0.399,4.346c0.153,1.639,0.329,3.338,0.525,5.102c0.195,1.765,0.392,3.367,0.587,4.809
			c0.196,1.441,0.392,2.618,0.588,3.527c0.196,0.91,0.378,1.309,0.546,1.197c0.588,0.195,1.162-0.035,1.722-0.693
			c0.56-0.657,1.077-1.561,1.554-2.708c0.476-1.147,0.909-2.47,1.302-3.968s0.707-3.002,0.945-4.515
			c0.237-1.512,0.405-2.946,0.504-4.304c0.098-1.357,0.09-2.484-0.021-3.38c-0.028-0.196,0.048-0.336,0.23-0.421
			c0.182-0.084,0.384-0.125,0.609-0.125c0.224,0,0.446,0.041,0.671,0.125c0.224,0.085,0.364,0.211,0.42,0.379
			c0,0.951-0.028,2.072-0.084,3.359s-0.099,2.646-0.126,4.072c-0.028,1.428-0.042,2.855-0.042,4.283s0.049,2.736,0.146,3.926
			c0.099,1.19,0.267,2.219,0.504,3.086c0.238,0.868,0.581,1.442,1.029,1.723c0.756,0.225,1.441,0.209,2.059-0.043
			c0.614-0.252,1.154-0.602,1.616-1.049s0.847-0.918,1.155-1.406c0.308-0.49,0.531-0.848,0.672-1.071
			c0.111-0.224,0.195-0.238,0.252-0.042c0.057,0.195,0.015,0.504-0.126,0.924c-0.364,0.645-0.805,1.316-1.323,2.016
			s-1.077,1.28-1.68,1.742c-0.603,0.463-1.231,0.742-1.89,0.84c-0.658,0.099-1.323-0.132-1.995-0.692
			c-0.308-0.195-0.588-0.63-0.839-1.302c-0.252-0.672-0.462-1.441-0.63-2.311c-0.168-0.867-0.288-1.777-0.357-2.729
			c-0.07-0.952-0.078-1.807-0.021-2.562c-0.841,2.408-1.568,4.227-2.185,5.458s-1.148,2.101-1.596,2.604
			c-0.448,0.504-0.819,0.771-1.113,0.798c-0.294,0.028-0.539,0.042-0.735,0.042c-0.308,0.027-0.588,0.042-0.84,0.042
			s-0.49-0.069-0.714-0.21c-0.224-0.141-0.427-0.371-0.608-0.693c-0.183-0.32-0.357-0.791-0.525-1.406
			c-0.477-3.918-0.903-7.922-1.281-12.01c-0.378-4.087-0.847-8.16-1.407-12.219c0-0.141,0.042-0.279,0.126-0.42
			C298.482,190.727,298.79,190.654,299.322,190.654z"/>
		<path fill="#FFFFFF" d="M326.742,205.688c0,0.785-0.007,1.568-0.021,2.353s-0.027,1.54-0.042,2.269
			c-0.015,0.728-0.027,1.414-0.042,2.058s-0.036,1.218-0.062,1.722c0-0.111,0.062-0.385,0.188-0.818
			c0.126-0.435,0.301-0.932,0.525-1.492c0.224-0.56,0.468-1.154,0.735-1.784c0.266-0.63,0.552-1.188,0.86-1.681
			c0.309-0.488,0.623-0.875,0.944-1.154c0.322-0.279,0.623-0.363,0.903-0.252c0.615,0.279,1.05,0.687,1.302,1.218
			c0.252,0.532,0.434,1.142,0.546,1.827s0.224,1.449,0.336,2.289c0.111,0.84,0.363,1.722,0.756,2.645
			c0.168,0.42,0.413,0.729,0.735,0.924c0.32,0.196,0.63,0.336,0.924,0.42s0.531,0.133,0.714,0.147
			c0.182,0.015,0.245,0.063,0.189,0.147c-0.7,0.531-1.303,0.713-1.807,0.545s-0.931-0.538-1.28-1.112
			c-0.351-0.573-0.638-1.26-0.861-2.058c-0.225-0.797-0.427-1.567-0.609-2.31c-0.182-0.741-0.343-1.371-0.482-1.89
			c-0.141-0.518-0.294-0.777-0.462-0.777c-0.253,0.028-0.525,0.268-0.819,0.715s-0.595,1.008-0.902,1.68
			c-0.309,0.672-0.603,1.406-0.882,2.205c-0.28,0.797-0.54,1.547-0.777,2.246s-0.427,1.301-0.566,1.806
			c-0.142,0.504-0.226,0.812-0.252,0.924c-0.42,0-0.68,0.015-0.777,0.042c-0.099,0.027-0.259-0.111-0.483-0.42
			c0.141-2.463,0.189-4.793,0.147-6.991c-0.042-2.196-0.104-4.108-0.188-5.731c0-0.252,0.062-0.377,0.188-0.377
			s0.266,0.056,0.42,0.168c0.153,0.111,0.315,0.224,0.483,0.334S326.629,205.688,326.742,205.688z"/>
		<path fill="#FFFFFF" d="M344.881,200.02c0.279-0.057,0.447,0.111,0.504,0.504s0,0.687-0.168,0.881
			c-0.309,0.253-0.504,0.47-0.588,0.652c-0.084,0.182-0.28,0.301-0.588,0.356c-0.168-0.028-0.315-0.035-0.441-0.021
			c-0.126,0.014-0.23-0.218-0.314-0.693c0.11-0.309,0.287-0.615,0.524-0.924C344.048,200.467,344.405,200.215,344.881,200.02z
			 M345.007,205.479c0.141,1.344,0.237,2.82,0.294,4.43s0.153,3.296,0.294,5.06c0.111,0.896,0.225,1.597,0.336,2.101
			s0.195,0.979,0.252,1.428c-0.447,0.084-0.798,0.077-1.05-0.021c-0.252-0.098-0.49-0.216-0.714-0.356
			c-0.057-0.447-0.12-1.188-0.188-2.226c-0.07-1.035-0.142-2.162-0.21-3.381c-0.07-1.218-0.142-2.4-0.21-3.548
			c-0.07-1.147-0.134-2.058-0.189-2.729c0.111-0.055,0.203-0.14,0.273-0.252c0.068-0.11,0.146-0.209,0.23-0.293
			s0.195-0.153,0.336-0.211C344.601,205.422,344.783,205.422,345.007,205.479z"/>
		<path fill="#FFFFFF" d="M365.875,206.359c-0.055,0.477-0.119,1.162-0.188,2.058c-0.07,0.896-0.136,1.883-0.189,2.96
			c-0.057,1.078-0.105,2.189-0.146,3.338c-0.043,1.148-0.063,2.198-0.063,3.149c0,0.672-0.014,1.483-0.041,2.436
			c-0.027,0.951-0.049,1.959-0.062,3.023c-0.016,1.063-0.008,2.142,0.021,3.233c0.029,1.092,0.1,2.127,0.211,3.106
			s0.279,1.86,0.504,2.646c0.223,0.783,0.519,1.385,0.881,1.806c-0.168,0.112-0.377,0.161-0.629,0.146
			c-0.252-0.014-0.498-0.062-0.733-0.146c-0.238-0.085-0.449-0.183-0.632-0.294c-0.182-0.112-0.271-0.211-0.271-0.295
			c-0.196,0-0.336-0.518-0.42-1.553c-0.084-1.037-0.133-2.436-0.146-4.199c-0.015-1.765-0.015-3.787,0-6.067
			c0.015-2.282,0.021-4.667,0.021-7.16c-0.588,0.672-1.238,1.295-1.952,1.869c-0.714,0.573-1.428,1.008-2.142,1.302
			c-0.715,0.294-1.406,0.393-2.078,0.294c-0.672-0.098-1.232-0.483-1.681-1.155c-0.195-0.42-0.237-1-0.126-1.742
			c0.111-0.741,0.351-1.547,0.714-2.414c0.363-0.868,0.854-1.735,1.471-2.604c0.614-0.866,1.314-1.622,2.099-2.268
			c0.784-0.644,1.651-1.113,2.604-1.407C363.846,206.128,364.84,206.107,365.875,206.359z M357.562,216.018
			c0.336,0.561,0.902,0.729,1.699,0.504c0.798-0.225,1.589-0.742,2.372-1.555c0.784-0.812,1.463-1.854,2.037-3.128
			c0.572-1.272,0.818-2.68,0.734-4.22c-0.729-0.057-1.429,0.084-2.101,0.42s-1.288,0.777-1.847,1.322
			c-0.56,0.547-1.057,1.162-1.49,1.849c-0.435,0.687-0.784,1.351-1.05,1.995c-0.267,0.645-0.435,1.225-0.504,1.742
			S357.395,215.822,357.562,216.018z"/>
		<path fill="#FFFFFF" d="M377.465,216.646c0.195,0.142,0.519-0.098,0.966-0.713s0.882-1.408,1.303-2.373
			c0.42-0.965,0.77-1.994,1.05-3.086c0.278-1.092,0.363-2.043,0.252-2.854c0-0.168,0.068-0.272,0.21-0.315
			c0.14-0.041,0.3-0.062,0.481-0.062c0.183,0,0.363,0.015,0.547,0.042c0.182,0.028,0.314,0.057,0.398,0.084
			c-0.057,0.616-0.134,1.394-0.23,2.331c-0.1,0.938-0.161,1.869-0.188,2.792c-0.028,0.924,0.006,1.763,0.104,2.519
			c0.098,0.756,0.328,1.246,0.692,1.471c0.309,0.195,0.664,0.183,1.07-0.043c0.405-0.224,0.798-0.504,1.176-0.84
			s0.721-0.636,1.028-0.902c0.308-0.266,0.504-0.357,0.588-0.273c-0.112,0.477-0.35,0.938-0.714,1.387
			c-0.364,0.447-0.776,0.825-1.238,1.133c-0.462,0.31-0.952,0.525-1.47,0.651c-0.52,0.126-0.986,0.105-1.406-0.062
			c-0.168-0.027-0.302-0.189-0.399-0.483c-0.099-0.294-0.183-0.636-0.252-1.029c-0.069-0.392-0.126-0.812-0.168-1.26
			c-0.042-0.447-0.091-0.854-0.146-1.217c-0.226,0.448-0.478,0.952-0.756,1.511c-0.28,0.562-0.562,1.093-0.84,1.597
			c-0.28,0.504-0.547,0.938-0.799,1.302s-0.462,0.573-0.63,0.63c-0.561,0.225-0.994,0.273-1.302,0.146
			c-0.309-0.125-0.519-0.3-0.63-0.524c-0.168-0.084-0.287-0.371-0.357-0.861c-0.068-0.489-0.126-1.112-0.168-1.868
			c-0.042-0.757-0.062-1.609-0.062-2.562s0-1.925,0-2.918s-0.016-1.974-0.042-2.938c-0.028-0.967-0.07-1.854-0.126-2.666
			c0.194,0,0.392,0.014,0.588,0.041c0.168,0.028,0.336,0.063,0.504,0.105s0.308,0.133,0.42,0.273c0.14,0.644,0.16,1.777,0.062,3.4
			c-0.099,1.624-0.176,3.583-0.23,5.879c0,0.083,0.007,0.245,0.021,0.482c0.014,0.238,0.042,0.498,0.084,0.777
			s0.111,0.545,0.21,0.797C377.165,216.396,377.297,216.562,377.465,216.646z"/>
		<path fill="#FFFFFF" d="M397.326,206.611c0.084-0.027,0.321-0.105,0.714-0.231c0.392-0.126,0.714-0.147,0.966-0.063
			c0.812-0.026,1.435,0.184,1.868,0.631s0.469,1.316,0.104,2.604c-0.531,1.428-1.238,2.618-2.12,3.569
			c-0.883,0.95-1.926,1.862-3.128,2.729c0.278,0.729,0.698,1.133,1.26,1.217c0.56,0.084,1.146-0.006,1.764-0.272
			c0.615-0.267,1.218-0.623,1.806-1.071c0.589-0.447,1.063-0.84,1.429-1.176c0.587-0.503,1.056-0.93,1.406-1.279
			c0.35-0.351,0.721-0.777,1.111-1.281c0.084-0.057,0.133-0.049,0.147,0.021c0.014,0.07,0.007,0.175-0.021,0.315
			c-0.027,0.14-0.069,0.336-0.126,0.588c-0.084,0.195-0.168,0.371-0.252,0.525c-0.084,0.153-0.203,0.321-0.355,0.504
			c-0.154,0.182-0.357,0.397-0.609,0.649s-0.56,0.588-0.924,1.009c-0.419,0.393-0.825,0.776-1.217,1.154
			c-0.394,0.378-0.807,0.708-1.239,0.986c-0.436,0.281-0.91,0.478-1.428,0.589c-0.52,0.112-1.112,0.112-1.784,0
			c-0.562-0.195-1.008-0.405-1.345-0.63c-0.336-0.225-0.595-0.455-0.776-0.693c-0.183-0.236-0.314-0.455-0.398-0.65
			s-0.141-0.363-0.168-0.504c-0.141-0.561-0.195-1.315-0.168-2.268s0.309-2.184,0.84-3.695c0.363-0.783,0.756-1.449,1.177-1.994
			C396.278,207.346,396.766,206.92,397.326,206.611z M395.479,214.044c0.363-0.196,0.79-0.469,1.28-0.819
			c0.49-0.35,0.951-0.756,1.386-1.218s0.812-0.973,1.135-1.532c0.32-0.561,0.497-1.147,0.524-1.765
			c0.084-0.42,0.069-0.714-0.042-0.882c-0.057-0.084-0.111-0.126-0.168-0.126c-0.477-0.224-0.952-0.153-1.428,0.21
			c-0.477,0.363-0.91,0.882-1.302,1.554c-0.394,0.673-0.723,1.421-0.987,2.247S395.479,213.316,395.479,214.044z"/>
		<path fill="#FFFFFF" d="M413.324,216.438c0.308-0.057,0.546-0.049,0.714,0.021s0.363,0.133,0.588,0.188
			c-0.112,0.533-0.364,1.162-0.756,1.891c-0.394,0.729-0.833,1.413-1.323,2.058c-0.489,0.644-0.966,1.189-1.427,1.638
			c-0.462,0.447-0.833,0.672-1.113,0.672c-0.14-0.112-0.091-0.344,0.147-0.692c0.236-0.351,0.546-0.798,0.924-1.344
			c0.377-0.546,0.783-1.19,1.217-1.933S413.072,217.361,413.324,216.438z"/>
		<path fill="#FFFFFF" d="M441.078,192.839c0.252,0.56,0.413,0.925,0.482,1.093s0.134,0.447,0.188,0.84
			c-0.336-0.28-0.63-0.519-0.882-0.715c-0.252-0.195-0.504-0.371-0.756-0.524c-0.252-0.154-0.531-0.287-0.84-0.399
			c-0.309-0.111-0.672-0.21-1.092-0.294c-1.12-0.14-2.178-0.098-3.171,0.126c-0.994,0.225-1.834,0.581-2.52,1.071
			c-0.687,0.489-1.169,1.092-1.448,1.806c-0.28,0.715-0.28,1.49,0,2.33c0.308,0.924,0.783,1.812,1.428,2.667
			s1.378,1.687,2.204,2.499c0.825,0.812,1.707,1.575,2.646,2.288c0.938,0.714,1.833,1.386,2.688,2.017
			c0.854,0.629,1.646,1.196,2.372,1.7c0.728,0.505,1.287,0.938,1.68,1.302c0.867-0.446,1.681-0.824,2.437-1.134
			c0.756-0.308,1.539-0.614,2.352-0.924h0.252c0.111,0.028,0.126,0.112,0.042,0.252c-0.252,0.226-0.553,0.462-0.902,0.714
			c-0.351,0.252-0.707,0.512-1.07,0.777c-0.364,0.266-0.721,0.525-1.07,0.777c-0.351,0.252-0.666,0.476-0.944,0.672
			c0.812,0.812,1.344,1.547,1.596,2.205s0.266,1.301,0.042,1.931c-0.225,0.63-0.688,1.274-1.386,1.933
			c-0.7,0.656-1.61,1.364-2.729,2.12c-0.728,0.505-1.512,0.938-2.352,1.302s-1.616,0.582-2.33,0.651s-1.288-0.063-1.722-0.399
			c-0.436-0.336-0.581-0.965-0.44-1.89c0.447-1.512,1.273-2.911,2.478-4.198c1.203-1.287,2.59-2.59,4.156-3.906
			c0-0.084-0.271-0.321-0.817-0.713c-0.547-0.393-1.246-0.896-2.101-1.513c-0.854-0.614-1.792-1.329-2.812-2.142
			c-1.022-0.812-2.002-1.665-2.939-2.561c-0.937-0.896-1.771-1.834-2.498-2.813c-0.729-0.979-1.218-1.945-1.47-2.897
			c-0.336-1.203-0.413-2.253-0.23-3.148c0.183-0.896,0.477-1.646,0.882-2.247c0.405-0.603,0.854-1.071,1.344-1.407
			s0.889-0.561,1.197-0.672c0.644-0.195,1.294-0.363,1.951-0.504s1.323-0.182,1.995-0.126c0.672,0.057,1.351,0.245,2.036,0.567
			C439.686,191.67,440.379,192.167,441.078,192.839z M437.636,219.418c-0.057,0.195,0.015,0.357,0.21,0.482
			c0.195,0.127,0.519,0.175,0.965,0.147c0.448-0.028,1.016-0.162,1.701-0.399c0.687-0.237,1.504-0.637,2.456-1.196
			c0.699-0.476,1.239-0.993,1.617-1.554s0.602-1.113,0.672-1.659c0.069-0.546-0.021-1.05-0.272-1.511
			c-0.252-0.463-0.673-0.834-1.261-1.113c-0.279,0.14-0.749,0.469-1.405,0.986c-0.658,0.519-1.33,1.112-2.017,1.784
			c-0.687,0.673-1.295,1.372-1.826,2.101C437.943,218.215,437.663,218.857,437.636,219.418z"/>
		<path fill="#FFFFFF" d="M456.699,205.896c0.531,0.028,1.119,0.105,1.764,0.231s1.273,0.294,1.891,0.504
			c0.614,0.21,1.182,0.448,1.699,0.714c0.519,0.268,0.945,0.567,1.281,0.903c0.336,0.31,0.531,0.776,0.588,1.407
			c0.057,0.63,0.015,1.322-0.126,2.078c-0.141,0.757-0.356,1.533-0.65,2.332c-0.295,0.797-0.623,1.519-0.986,2.162
			c-0.364,0.645-0.756,1.176-1.176,1.596s-0.812,0.63-1.177,0.63c-0.615,0-1.134-0.147-1.554-0.44
			c-0.42-0.295-0.756-0.652-1.008-1.072s-0.441-0.86-0.567-1.322s-0.201-0.861-0.229-1.197c-0.084-1.482-0.099-2.799-0.042-3.947
			c0.057-1.146,0.153-2.1,0.294-2.854c-0.084-0.14-0.168-0.267-0.252-0.378s-0.168-0.217-0.252-0.315
			c-0.084-0.098-0.183-0.188-0.294-0.272c0.111-0.057,0.225-0.141,0.336-0.252C456.462,206.232,456.615,206.064,456.699,205.896z
			 M458.211,215.891c0.084,0.112,0.195,0.231,0.336,0.357s0.314,0.225,0.524,0.294s0.427,0.078,0.65,0.021
			c0.225-0.056,0.462-0.209,0.714-0.461c0.673-0.699,1.177-1.42,1.513-2.162s0.552-1.442,0.649-2.101
			c0.099-0.657,0.084-1.239-0.042-1.743s-0.329-0.867-0.607-1.092c-0.226-0.14-0.414-0.258-0.567-0.357
			c-0.154-0.098-0.351-0.188-0.588-0.272c-0.238-0.084-0.539-0.174-0.902-0.272s-0.84-0.231-1.428-0.399
			c-0.28,0.896-0.477,1.792-0.588,2.688c-0.112,0.896-0.161,1.715-0.147,2.457c0.016,0.741,0.07,1.385,0.168,1.93
			C457.994,215.324,458.099,215.695,458.211,215.891z"/>
		<path fill="#FFFFFF" d="M479.164,206.191c0.027,0.168-0.105,0.336-0.399,0.504s-0.665,0.414-1.111,0.734
			c-0.448,0.322-0.938,0.75-1.471,1.281c-0.531,0.532-1.008,1.232-1.428,2.1c-0.448,0.953-0.771,1.778-0.966,2.479
			c-0.196,0.7-0.154,1.525,0.126,2.477c0.084,0.196,0.202,0.373,0.356,0.525c0.153,0.154,0.385,0.246,0.692,0.273
			c0.615-0.111,1.161-0.267,1.638-0.463c0.477-0.194,0.925-0.434,1.345-0.713s0.825-0.582,1.218-0.904
			c0.392-0.32,0.798-0.649,1.218-0.985c0.615-0.588,1.126-1.099,1.532-1.533c0.405-0.434,0.734-0.798,0.986-1.092
			s0.469-0.511,0.65-0.651c0.183-0.14,0.37-0.182,0.566-0.125c-0.112,0.252-0.427,0.783-0.944,1.596
			c-0.519,0.812-1.189,1.673-2.016,2.582c-0.826,0.91-1.784,1.764-2.876,2.562s-2.269,1.295-3.527,1.491
			c-0.504-0.027-0.917-0.084-1.239-0.168c-0.32-0.084-0.623-0.42-0.901-1.008c-0.336-0.699-0.462-1.547-0.378-2.541
			c0.084-0.993,0.294-1.98,0.63-2.961c0.336-0.979,0.756-1.89,1.26-2.729s0.993-1.455,1.47-1.848
			c0.672-0.477,1.294-0.771,1.868-0.883C478.036,206.08,478.604,206.08,479.164,206.191z"/>
		<path fill="#FFFFFF" d="M491.887,200.02c0.279-0.057,0.447,0.111,0.504,0.504s0,0.687-0.168,0.881
			c-0.309,0.253-0.504,0.47-0.588,0.652c-0.084,0.182-0.279,0.301-0.588,0.356c-0.168-0.028-0.314-0.035-0.441-0.021
			c-0.126,0.014-0.229-0.218-0.313-0.693c0.111-0.309,0.287-0.615,0.524-0.924S491.41,200.215,491.887,200.02z M492.013,205.479
			c0.141,1.344,0.237,2.82,0.294,4.43s0.153,3.296,0.294,5.06c0.111,0.896,0.225,1.597,0.337,2.101
			c0.11,0.504,0.194,0.979,0.252,1.428c-0.448,0.084-0.799,0.077-1.051-0.021c-0.252-0.098-0.489-0.216-0.714-0.356
			c-0.057-0.447-0.119-1.188-0.188-2.226c-0.069-1.035-0.141-2.162-0.21-3.381c-0.069-1.218-0.141-2.4-0.21-3.548
			s-0.134-2.058-0.188-2.729c0.111-0.055,0.203-0.14,0.272-0.252c0.069-0.11,0.146-0.209,0.23-0.293s0.195-0.153,0.336-0.211
			C491.606,205.422,491.788,205.422,492.013,205.479z"/>
		<path fill="#FFFFFF" d="M511.957,206.148c-0.027,0.168-0.091,0.52-0.188,1.051c-0.099,0.531-0.202,1.154-0.313,1.869
			c-0.112,0.714-0.21,1.463-0.294,2.246c-0.084,0.785-0.134,1.526-0.147,2.227c-0.015,0.7,0.027,1.295,0.126,1.784
			s0.26,0.792,0.483,0.903c0.644,0.309,1.301,0.203,1.973-0.315s1.456-1.308,2.353-2.372c0.084,0,0.091,0.111,0.021,0.336
			c-0.069,0.225-0.183,0.469-0.336,0.734c-0.154,0.267-0.309,0.531-0.462,0.798c-0.154,0.267-0.272,0.44-0.356,0.524
			c-0.225,0.28-0.547,0.596-0.967,0.945c-0.42,0.352-0.866,0.63-1.344,0.84c-0.476,0.211-0.931,0.301-1.364,0.273
			c-0.435-0.027-0.791-0.279-1.069-0.756c-0.142-0.336-0.226-0.75-0.252-1.239c-0.028-0.489-0.028-0.987,0-1.491
			c0.026-0.503,0.068-0.965,0.126-1.385c0.056-0.42,0.098-0.729,0.126-0.924c-0.588,1.092-1.261,2.127-2.017,3.107
			c-0.756,0.979-1.498,1.75-2.226,2.31c-0.729,0.561-1.4,0.86-2.016,0.903c-0.616,0.041-1.093-0.315-1.429-1.072
			c-0.194-0.728-0.194-1.545,0-2.456c0.196-0.909,0.49-1.729,0.882-2.456c0.588-1.008,1.203-1.932,1.849-2.771
			c0.644-0.84,1.329-1.554,2.058-2.142s1.49-1.015,2.288-1.281C510.257,206.073,511.09,206.01,511.957,206.148z M504.062,216.814
			c0.279,0.058,0.729-0.152,1.345-0.629c0.614-0.477,1.26-1.141,1.932-1.996c0.672-0.854,1.28-1.847,1.826-2.98
			s0.903-2.331,1.071-3.59c-0.112,0-0.273,0-0.483,0s-0.455,0.084-0.734,0.252c-1.063,0.699-1.974,1.52-2.729,2.457
			c-0.756,0.938-1.344,1.848-1.764,2.729c-0.421,0.881-0.673,1.674-0.757,2.373S503.783,216.591,504.062,216.814z"/>
		<path fill="#FFFFFF" d="M524.722,209.803c0,0.084,0.042,0.477,0.126,1.176c0.084,0.701,0.183,1.555,0.294,2.562
			c0.111,1.007,0.244,2.093,0.398,3.254c0.154,1.162,0.294,2.268,0.42,3.316c0.126,1.05,0.245,1.975,0.357,2.771
			c0.11,0.799,0.182,1.309,0.21,1.533c-0.168-0.027-0.31-0.057-0.42-0.084c-0.112-0.027-0.226-0.098-0.336-0.21
			c-0.112-0.112-0.245-0.272-0.399-0.483c-0.154-0.21-0.371-0.511-0.65-0.902c-0.363-2.575-0.65-4.821-0.86-6.739
			c-0.21-1.917-0.386-3.478-0.524-4.683c-0.504,0.672-0.867,1.121-1.092,1.345c-0.224,0.224-0.363,0.336-0.42,0.336
			c-0.084,0-0.099-0.126-0.042-0.378c0.027-0.141,0.057-0.28,0.084-0.42c0.027-0.141,0.057-0.266,0.084-0.379
			c0.027-0.111,0.07-0.209,0.126-0.293c0.196-0.28,0.371-0.561,0.523-0.84c0.154-0.281,0.273-0.531,0.357-0.757
			c0.111-0.278,0.195-0.546,0.252-0.798c-0.028-0.309-0.049-0.572-0.063-0.798c-0.014-0.224-0.021-0.455-0.021-0.692
			c0-0.238-0.007-0.484-0.021-0.736c-0.015-0.252-0.021-0.572-0.021-0.965c0-0.363,0-0.918,0-1.658c0-0.741,0-1.567,0-2.479
			c0-0.908,0.014-1.869,0.042-2.876c0.027-1.008,0.062-1.966,0.104-2.876c0.041-0.91,0.099-1.734,0.168-2.479
			c0.069-0.74,0.146-1.307,0.23-1.7c0.195-0.812,0.497-1.435,0.902-1.869c0.406-0.435,0.833-0.687,1.281-0.756
			c0.446-0.069,0.888,0.042,1.321,0.336c0.435,0.294,0.764,0.75,0.987,1.364c0.252,0.617,0.378,1.414,0.378,2.395
			s-0.084,2.051-0.252,3.212s-0.399,2.372-0.693,3.632s-0.607,2.485-0.943,3.674c-0.336,1.19-0.672,2.304-1.009,3.338
			C525.268,208.234,524.974,209.104,524.722,209.803z M524.386,207.409c0.699-2.043,1.273-4.052,1.723-6.025
			c0.446-1.974,0.775-3.743,0.985-5.312c0.21-1.567,0.279-2.834,0.21-3.801c-0.069-0.965-0.271-1.461-0.607-1.49
			c-0.532-0.195-0.952-0.014-1.261,0.546c-0.309,0.562-0.554,1.344-0.734,2.353c-0.181,1.008-0.301,2.162-0.356,3.463
			c-0.057,1.303-0.077,2.598-0.062,3.885s0.035,2.505,0.062,3.652C524.371,205.828,524.386,206.736,524.386,207.409z"/>
		<path fill="#FFFFFF" d="M560.16,189.773c-0.672,0.393-1.646,0.826-2.918,1.302c-1.274,0.477-2.646,0.952-4.115,1.428
			c-1.47,0.476-2.946,0.959-4.43,1.449c-1.484,0.489-2.771,0.959-3.863,1.407c0.056,0.644,0.098,1.197,0.126,1.658
			c0.027,0.461,0.062,0.965,0.104,1.512c0.041,0.546,0.11,1.218,0.21,2.016c0.098,0.798,0.244,1.869,0.44,3.212
			c1.092-0.476,1.975-0.847,2.646-1.112c0.672-0.267,1.371-0.512,2.099-0.735c0.729-0.224,1.589-0.476,2.583-0.757
			c0.993-0.278,2.344-0.672,4.052-1.176c0.141,0.028,0.309,0.121,0.504,0.273c0.195,0.154,0.357,0.33,0.483,0.525
			s0.188,0.393,0.188,0.588s-0.099,0.35-0.294,0.462c-1.176,0.14-2.33,0.356-3.464,0.651c-1.134,0.293-2.205,0.629-3.213,1.008
			c-1.008,0.377-1.945,0.763-2.812,1.154c-0.868,0.393-1.639,0.742-2.311,1.049c0.057,1.316,0.202,2.59,0.44,3.821
			c0.236,1.232,0.56,2.345,0.966,3.339c0.405,0.993,0.882,1.812,1.428,2.455c0.546,0.646,1.154,1.022,1.826,1.135
			c0.309,0.057,0.742,0.104,1.302,0.146c0.561,0.042,1.219-0.048,1.975-0.273c0.756-0.224,1.608-0.636,2.562-1.238
			c0.951-0.603,2.001-1.532,3.149-2.793c0.756-0.672,1.302-1.049,1.638-1.133s0.378,0.041,0.126,0.377
			c-0.756,0.812-1.449,1.576-2.079,2.289s-1.28,1.358-1.952,1.932c-0.672,0.574-1.399,1.07-2.184,1.49s-1.694,0.715-2.729,0.883
			c-1.428,0.309-2.616,0.23-3.567-0.231c-0.952-0.462-1.729-1.218-2.331-2.268c-0.604-1.05-1.085-2.358-1.448-3.927
			c-0.364-1.566-0.688-3.303-0.966-5.207c-0.478,0.058-0.868,0.147-1.176,0.273c-0.31,0.126-0.715,0.357-1.219,0.693
			c-0.225-0.027-0.309-0.147-0.252-0.357s0.203-0.462,0.44-0.756c0.238-0.294,0.532-0.602,0.882-0.924
			c0.35-0.321,0.693-0.594,1.029-0.818c-0.168-1.146-0.329-2.344-0.483-3.59c-0.154-1.245-0.301-2.436-0.439-3.568
			c-0.142-1.133-0.245-2.155-0.315-3.065c-0.069-0.91-0.104-1.603-0.104-2.079c0.169-0.084,0.295-0.146,0.379-0.189
			c0.084-0.041,0.175-0.076,0.271-0.104c0.098-0.026,0.217-0.048,0.357-0.063c0.14-0.014,0.362-0.035,0.672-0.062
			c0.056,0.141,0.091,0.336,0.104,0.588c0.014,0.252,0.021,0.477,0.021,0.672c1.428-0.363,2.715-0.714,3.862-1.05
			s2.268-0.665,3.358-0.987c1.092-0.32,2.197-0.644,3.317-0.966c1.118-0.321,2.352-0.651,3.694-0.987
			c0.225-0.056,0.44-0.062,0.65-0.021s0.385,0.112,0.525,0.21c0.14,0.1,0.236,0.189,0.294,0.273S560.244,189.746,560.16,189.773z"/>
		<path fill="#FFFFFF" d="M576.62,204.723c-0.028-0.084,0.014-0.105,0.126-0.063c0.111,0.042,0.237,0.104,0.377,0.188
			c0.141,0.084,0.273,0.182,0.398,0.295c0.127,0.111,0.188,0.209,0.188,0.293c-0.308,2.184-0.917,4.34-1.826,6.467
			c-0.91,2.127-2.036,4.156-3.38,6.088c-0.364,0.363-0.707,0.546-1.029,0.546c-0.321,0-0.553-0.153-0.691-0.462
			c-0.196-0.588-0.371-1.336-0.525-2.247c-0.154-0.909-0.308-1.875-0.462-2.897c-0.153-1.021-0.329-2.058-0.524-3.106
			c-0.195-1.05-0.42-2.022-0.672-2.919c-0.141-0.475-0.119-0.762,0.062-0.86c0.183-0.099,0.581-0.035,1.197,0.188
			c0.084,0,0.182,0.357,0.294,1.072c0.11,0.713,0.244,1.581,0.397,2.604c0.154,1.021,0.336,2.093,0.546,3.212
			s0.47,2.099,0.777,2.938c0.084,0.058,0.252-0.11,0.504-0.504c0.252-0.392,0.546-0.902,0.882-1.531
			c0.336-0.631,0.692-1.358,1.07-2.185c0.378-0.825,0.729-1.665,1.05-2.521c0.321-0.854,0.595-1.686,0.819-2.498
			C576.424,206.01,576.562,205.311,576.62,204.723z"/>
		<path fill="#FFFFFF" d="M589.217,206.611c0.084-0.027,0.321-0.105,0.714-0.231s0.714-0.147,0.966-0.063
			c0.812-0.026,1.435,0.184,1.868,0.631c0.435,0.447,0.47,1.316,0.105,2.604c-0.532,1.428-1.239,2.618-2.121,3.569
			c-0.882,0.95-1.925,1.862-3.128,2.729c0.279,0.729,0.699,1.133,1.26,1.217s1.147-0.006,1.764-0.272
			c0.615-0.267,1.219-0.623,1.807-1.071c0.588-0.447,1.062-0.84,1.428-1.176c0.587-0.503,1.056-0.93,1.406-1.279
			c0.35-0.351,0.721-0.777,1.111-1.281c0.084-0.057,0.134-0.049,0.147,0.021c0.014,0.07,0.007,0.175-0.021,0.315
			c-0.028,0.14-0.07,0.336-0.127,0.588c-0.084,0.195-0.168,0.371-0.252,0.525c-0.084,0.153-0.202,0.321-0.355,0.504
			c-0.154,0.182-0.357,0.397-0.609,0.649s-0.56,0.588-0.924,1.009c-0.419,0.393-0.825,0.776-1.217,1.154
			c-0.394,0.378-0.807,0.708-1.239,0.986c-0.435,0.281-0.91,0.478-1.428,0.589c-0.52,0.112-1.112,0.112-1.784,0
			c-0.561-0.195-1.008-0.405-1.344-0.63s-0.595-0.455-0.777-0.693c-0.182-0.236-0.313-0.455-0.397-0.65s-0.142-0.363-0.168-0.504
			c-0.142-0.561-0.196-1.315-0.169-2.268s0.309-2.184,0.841-3.695c0.362-0.783,0.756-1.449,1.176-1.994
			C588.169,207.346,588.656,206.92,589.217,206.611z M587.369,214.044c0.363-0.196,0.79-0.469,1.28-0.819
			c0.489-0.35,0.95-0.756,1.386-1.218c0.434-0.462,0.812-0.973,1.134-1.532c0.321-0.561,0.497-1.147,0.525-1.765
			c0.084-0.42,0.068-0.714-0.042-0.882c-0.058-0.084-0.112-0.126-0.168-0.126c-0.478-0.224-0.952-0.153-1.429,0.21
			s-0.909,0.882-1.302,1.554c-0.393,0.673-0.722,1.421-0.987,2.247C587.502,212.539,587.369,213.316,587.369,214.044z"/>
		<path fill="#FFFFFF" d="M605.257,205.688c0,0.785-0.008,1.568-0.021,2.353c-0.015,0.784-0.028,1.54-0.042,2.269
			c-0.015,0.728-0.027,1.414-0.042,2.058s-0.035,1.218-0.062,1.722c0-0.111,0.062-0.385,0.188-0.818
			c0.126-0.435,0.301-0.932,0.524-1.492c0.225-0.56,0.47-1.154,0.734-1.784s0.553-1.188,0.861-1.681
			c0.308-0.488,0.622-0.875,0.943-1.154s0.623-0.363,0.903-0.252c0.615,0.279,1.05,0.687,1.302,1.218
			c0.252,0.532,0.435,1.142,0.546,1.827s0.225,1.449,0.336,2.289s0.363,1.722,0.755,2.645c0.169,0.42,0.413,0.729,0.735,0.924
			c0.321,0.196,0.63,0.336,0.924,0.42s0.531,0.133,0.714,0.147s0.244,0.063,0.188,0.147c-0.7,0.531-1.302,0.713-1.806,0.545
			c-0.505-0.168-0.932-0.538-1.28-1.112c-0.352-0.573-0.638-1.26-0.86-2.058c-0.225-0.797-0.428-1.567-0.608-2.31
			c-0.184-0.741-0.344-1.371-0.482-1.89c-0.141-0.518-0.294-0.777-0.462-0.777c-0.252,0.028-0.525,0.268-0.819,0.715
			s-0.595,1.008-0.901,1.68c-0.31,0.672-0.604,1.406-0.883,2.205c-0.279,0.797-0.538,1.547-0.776,2.246s-0.427,1.301-0.566,1.806
			c-0.141,0.504-0.225,0.812-0.252,0.924c-0.42,0-0.679,0.015-0.776,0.042c-0.099,0.027-0.26-0.111-0.482-0.42
			c0.14-2.463,0.188-4.793,0.146-6.991c-0.042-2.196-0.104-4.108-0.188-5.731c0-0.252,0.062-0.377,0.188-0.377
			s0.267,0.056,0.42,0.168c0.153,0.111,0.314,0.224,0.482,0.334C605.005,205.632,605.145,205.688,605.257,205.688z"/>
		<path fill="#FFFFFF" d="M625.412,205.98c1.203-0.084,2.386-0.174,3.548-0.272c1.161-0.099,2.372-0.203,3.632-0.313
			c0.279,0.027,0.462,0.174,0.546,0.439c0.084,0.268-0.027,0.428-0.336,0.482c-1.036,0.113-2.226,0.268-3.568,0.463
			c-1.345,0.195-2.617,0.447-3.82,0.756c0.056,0.867,0.084,1.757,0.084,2.667c0,0.909,0.021,1.806,0.062,2.688
			c0.041,0.881,0.126,1.735,0.252,2.561c0.127,0.826,0.329,1.589,0.609,2.289c0.393,0.477,0.783,0.756,1.175,0.84
			c0.394,0.084,0.764,0.062,1.113-0.062c0.35-0.127,0.672-0.321,0.966-0.588s0.553-0.525,0.776-0.777
			c0.196-0.195,0.356-0.195,0.482,0s0.008,0.49-0.356,0.882c-0.168,0.196-0.378,0.405-0.63,0.63s-0.554,0.413-0.902,0.566
			c-0.351,0.153-0.742,0.252-1.176,0.295c-0.436,0.041-0.902-0.008-1.406-0.147c-0.645-0.168-1.12-0.687-1.428-1.554
			c-0.31-0.867-0.54-1.883-0.693-3.044s-0.259-2.372-0.313-3.632c-0.058-1.26-0.126-2.395-0.21-3.401
			c-1.232,0.112-2.136,0.21-2.709,0.294s-0.986,0.141-1.238,0.168c-0.252,0.028-0.42,0.016-0.504-0.042
			c-0.084-0.056-0.238-0.183-0.462-0.378c0.026-0.141,0.035-0.273,0.021-0.398c-0.014-0.127-0.014-0.231,0-0.315
			c0.016-0.084,0.07-0.168,0.168-0.252c0.1-0.084,0.287-0.153,0.567-0.21c0.42-0.111,1.028-0.174,1.826-0.189
			c0.798-0.014,1.574-0.076,2.331-0.189c-0.028-0.896-0.058-1.594-0.084-2.098c-0.028-0.505-0.058-0.945-0.084-1.324
			c-0.028-0.377-0.051-0.748-0.063-1.112c-0.015-0.363-0.021-0.841-0.021-1.429c0-0.14,0.075-0.244,0.229-0.314
			c0.153-0.068,0.329-0.111,0.525-0.126c0.194-0.015,0.378,0.015,0.546,0.084s0.279,0.175,0.336,0.315
			c0.084,0.252,0.14,0.623,0.168,1.112c0.027,0.49,0.048,1.009,0.062,1.554c0.015,0.547,0.021,1.1,0.021,1.66
			C625.453,205.116,625.439,205.59,625.412,205.98z"/>
		<path fill="#FFFFFF" d="M642.46,205.268c0.699,0.112,1.28,0.267,1.742,0.461c0.462,0.196,0.825,0.414,1.092,0.651
			c0.266,0.238,0.476,0.483,0.63,0.735c0.153,0.252,0.301,0.49,0.441,0.714c-0.028,0.112-0.162,0.099-0.399-0.042
			s-0.469-0.279-0.691-0.42c-0.616-0.393-1.358-0.631-2.227-0.715s-1.673-0.034-2.415,0.147c-0.742,0.183-1.337,0.498-1.784,0.945
			c-0.447,0.448-0.561,0.994-0.336,1.638c0.225,0.645,0.623,1.204,1.196,1.68c0.574,0.477,1.211,0.903,1.911,1.281
			c0.699,0.379,1.398,0.721,2.1,1.029c0.699,0.309,1.273,0.616,1.723,0.923c0.56-0.308,1.034-0.565,1.427-0.776
			c0.393-0.209,0.742-0.405,1.05-0.588c0.309-0.182,0.623-0.35,0.945-0.504c0.32-0.154,0.691-0.328,1.111-0.525
			c0.057-0.027,0.105-0.041,0.147-0.041s0.042,0.035,0,0.104c-0.042,0.07-0.154,0.183-0.336,0.336
			c-0.184,0.154-0.47,0.371-0.861,0.651c-0.196,0.14-0.56,0.378-1.092,0.714c-0.531,0.336-1.105,0.7-1.721,1.091
			c0.336,0.309,0.602,0.631,0.797,0.967c0.168,0.309,0.287,0.637,0.356,0.986c0.069,0.352,0.007,0.708-0.188,1.071
			c-0.561,0.896-1.189,1.596-1.89,2.1c-0.699,0.505-1.344,0.854-1.932,1.05c-0.393,0.141-0.826,0.153-1.302,0.043
			c-0.478-0.112-0.854-0.336-1.134-0.672c-0.31-0.449-0.387-0.904-0.231-1.365c0.155-0.463,0.413-0.91,0.777-1.344
			c0.362-0.435,0.783-0.847,1.26-1.24c0.476-0.392,0.896-0.74,1.26-1.049c-0.252-0.279-0.742-0.623-1.47-1.029
			c-0.729-0.405-1.479-0.854-2.247-1.344c-0.769-0.488-1.463-1.015-2.078-1.574c-0.615-0.561-0.951-1.119-1.008-1.68
			c-0.111-0.615-0.035-1.211,0.23-1.785c0.267-0.574,0.657-1.078,1.176-1.513c0.519-0.434,1.12-0.756,1.806-0.966
			C640.982,205.205,641.704,205.156,642.46,205.268z M642.082,219.67c0.308,0.141,0.657,0.141,1.05,0s0.762-0.343,1.112-0.609
			c0.35-0.267,0.657-0.561,0.924-0.881c0.266-0.322,0.441-0.609,0.525-0.861c0.084-0.225,0.006-0.469-0.231-0.735
			c-0.238-0.267-0.481-0.483-0.734-0.651c-0.309,0.226-0.657,0.512-1.05,0.861c-0.393,0.352-0.734,0.708-1.028,1.071
			c-0.294,0.364-0.512,0.714-0.65,1.05C641.857,219.25,641.886,219.502,642.082,219.67z"/>
	</g>
	<g>
		<path fill="#FFFFFF" d="M643.249,153.033v0.632h-1.789v4.676h-0.726v-4.676h-1.789v-0.632H643.249z"/>
		<path fill="#FFFFFF" d="M644.484,153.033h1.029l1.526,4.488l1.516-4.488h1.022v5.308h-0.688v-3.133
			c0-0.108,0.002-0.288,0.008-0.539c0.005-0.251,0.008-0.519,0.008-0.806l-1.517,4.477h-0.713l-1.528-4.477v0.163
			c0,0.13,0.003,0.328,0.011,0.594c0.007,0.266,0.011,0.462,0.011,0.587v3.133h-0.687L644.484,153.033L644.484,153.033z"/>
	</g>
</g>
</svg>
