<?xml version="1.0" encoding="utf-8"?>
<!-- Generator: Adobe Illustrator 16.0.0, SVG Export Plug-In . SVG Version: 6.00 Build 0)  -->
<!DOCTYPE svg PUBLIC "-//W3C//DTD SVG 1.1//EN" "http://www.w3.org/Graphics/SVG/1.1/DTD/svg11.dtd">
<svg version="1.1" id="Layer_1" xmlns="http://www.w3.org/2000/svg" xmlns:xlink="http://www.w3.org/1999/xlink" x="0px" y="0px"
	 width="30.857px" height="40.908px" viewBox="0 0 30.857 40.908" enable-background="new 0 0 30.857 40.908" xml:space="preserve">
<g>
	<g>
		<path fill="#FF0000" d="M0.459,35.771c-0.946,1.639-0.384,3.734,1.254,4.679c1.637,0.946,3.732,0.386,4.679-1.255l5.928-10.268
			c-2.199-0.703-4.224-1.871-5.933-3.425L0.459,35.771z M30.389,10.16c-1.958-7.31-9.474-11.648-16.783-9.689
			C6.296,2.429,1.958,9.944,3.917,17.253c1.959,7.311,9.473,11.648,16.783,9.689C28.009,24.983,32.347,17.47,30.389,10.16z
			 M19.812,23.634c-5.474,1.467-11.12-1.793-12.587-7.268c-1.467-5.474,1.793-11.12,7.268-12.587
			c5.474-1.466,11.119,1.793,12.586,7.268C28.546,16.521,25.286,22.167,19.812,23.634z M15.084,5.985l0.591,2.206
			c3.041-0.814,6.178,0.997,6.992,4.037l2.207-0.591C23.733,7.381,19.341,4.845,15.084,5.985z"/>
	</g>
</g>
</svg>
